STARTFONT 2.1
COMMENT
COMMENT Converted from OpenType font "A-OTF-ShinGoPro-Regular.otf" by "otf2bdf 3.0".
COMMENT
FONT -FreeType-A OTF Shin Go Pro R-Medium-R-Normal--14-140-72-72-P-127-ISO10646-1
SIZE 14 72 72
FONTBOUNDINGBOX 18 18 -4 -3
STARTPROPERTIES 19
FOUNDRY "FreeType"
FAMILY_NAME "A OTF Shin Go Pro R"
WEIGHT_NAME "Medium"
SLANT "R"
SETWIDTH_NAME "Normal"
ADD_STYLE_NAME ""
PIXEL_SIZE 14
POINT_SIZE 140
RESOLUTION_X 72
RESOLUTION_Y 72
SPACING "P"
AVERAGE_WIDTH 127
CHARSET_REGISTRY "ISO10646"
CHARSET_ENCODING "1"
FONT_ASCENT 12
FONT_DESCENT 1
COPYRIGHT "Font © Copyright 2002 Morisawa and Company Limited. All rights reserved."
_OTF_FONTFILE "A-OTF-ShinGoPro-Regular.otf"
_OTF_PSNAME "ShinGoPro-Regular"
ENDPROPERTIES
CHARS 9804
STARTCHAR 0000
ENCODING 0
SWIDTH 357 0
DWIDTH 5 0
BBX 0 0 0 0
BITMAP
ENDCHAR
STARTCHAR 0001
ENCODING 1
SWIDTH 357 0
DWIDTH 5 0
BBX 0 0 0 0
BITMAP
ENDCHAR
STARTCHAR 0002
ENCODING 2
SWIDTH 357 0
DWIDTH 5 0
BBX 0 0 0 0
BITMAP
ENDCHAR
STARTCHAR 0003
ENCODING 3
SWIDTH 357 0
DWIDTH 5 0
BBX 0 0 0 0
BITMAP
ENDCHAR
STARTCHAR 0004
ENCODING 4
SWIDTH 357 0
DWIDTH 5 0
BBX 0 0 0 0
BITMAP
ENDCHAR
STARTCHAR 0005
ENCODING 5
SWIDTH 357 0
DWIDTH 5 0
BBX 0 0 0 0
BITMAP
ENDCHAR
STARTCHAR 0006
ENCODING 6
SWIDTH 357 0
DWIDTH 5 0
BBX 0 0 0 0
BITMAP
ENDCHAR
STARTCHAR 0007
ENCODING 7
SWIDTH 357 0
DWIDTH 5 0
BBX 0 0 0 0
BITMAP
ENDCHAR
STARTCHAR 0008
ENCODING 8
SWIDTH 357 0
DWIDTH 5 0
BBX 0 0 0 0
BITMAP
ENDCHAR
STARTCHAR 0009
ENCODING 9
SWIDTH 357 0
DWIDTH 5 0
BBX 0 0 0 0
BITMAP
ENDCHAR
STARTCHAR 000A
ENCODING 10
SWIDTH 357 0
DWIDTH 5 0
BBX 0 0 0 0
BITMAP
ENDCHAR
STARTCHAR 000B
ENCODING 11
SWIDTH 357 0
DWIDTH 5 0
BBX 0 0 0 0
BITMAP
ENDCHAR
STARTCHAR 000C
ENCODING 12
SWIDTH 357 0
DWIDTH 5 0
BBX 0 0 0 0
BITMAP
ENDCHAR
STARTCHAR 000D
ENCODING 13
SWIDTH 357 0
DWIDTH 5 0
BBX 0 0 0 0
BITMAP
ENDCHAR
STARTCHAR 000E
ENCODING 14
SWIDTH 357 0
DWIDTH 5 0
BBX 0 0 0 0
BITMAP
ENDCHAR
STARTCHAR 000F
ENCODING 15
SWIDTH 357 0
DWIDTH 5 0
BBX 0 0 0 0
BITMAP
ENDCHAR
STARTCHAR 0010
ENCODING 16
SWIDTH 357 0
DWIDTH 5 0
BBX 0 0 0 0
BITMAP
ENDCHAR
STARTCHAR 0011
ENCODING 17
SWIDTH 357 0
DWIDTH 5 0
BBX 0 0 0 0
BITMAP
ENDCHAR
STARTCHAR 0012
ENCODING 18
SWIDTH 357 0
DWIDTH 5 0
BBX 0 0 0 0
BITMAP
ENDCHAR
STARTCHAR 0013
ENCODING 19
SWIDTH 357 0
DWIDTH 5 0
BBX 0 0 0 0
BITMAP
ENDCHAR
STARTCHAR 0014
ENCODING 20
SWIDTH 357 0
DWIDTH 5 0
BBX 0 0 0 0
BITMAP
ENDCHAR
STARTCHAR 0015
ENCODING 21
SWIDTH 357 0
DWIDTH 5 0
BBX 0 0 0 0
BITMAP
ENDCHAR
STARTCHAR 0016
ENCODING 22
SWIDTH 357 0
DWIDTH 5 0
BBX 0 0 0 0
BITMAP
ENDCHAR
STARTCHAR 0017
ENCODING 23
SWIDTH 357 0
DWIDTH 5 0
BBX 0 0 0 0
BITMAP
ENDCHAR
STARTCHAR 0018
ENCODING 24
SWIDTH 357 0
DWIDTH 5 0
BBX 0 0 0 0
BITMAP
ENDCHAR
STARTCHAR 0019
ENCODING 25
SWIDTH 357 0
DWIDTH 5 0
BBX 0 0 0 0
BITMAP
ENDCHAR
STARTCHAR 001A
ENCODING 26
SWIDTH 357 0
DWIDTH 5 0
BBX 0 0 0 0
BITMAP
ENDCHAR
STARTCHAR 001B
ENCODING 27
SWIDTH 357 0
DWIDTH 5 0
BBX 0 0 0 0
BITMAP
ENDCHAR
STARTCHAR 001C
ENCODING 28
SWIDTH 357 0
DWIDTH 5 0
BBX 0 0 0 0
BITMAP
ENDCHAR
STARTCHAR 001D
ENCODING 29
SWIDTH 357 0
DWIDTH 5 0
BBX 0 0 0 0
BITMAP
ENDCHAR
STARTCHAR 001E
ENCODING 30
SWIDTH 357 0
DWIDTH 5 0
BBX 0 0 0 0
BITMAP
ENDCHAR
STARTCHAR 001F
ENCODING 31
SWIDTH 357 0
DWIDTH 5 0
BBX 0 0 0 0
BITMAP
ENDCHAR
STARTCHAR 0020
ENCODING 32
SWIDTH 357 0
DWIDTH 5 0
BBX 0 0 0 0
BITMAP
ENDCHAR
STARTCHAR 0021
ENCODING 33
SWIDTH 285 0
DWIDTH 4 0
BBX 2 11 1 0
BITMAP
C0
40
40
40
40
40
40
40
00
C0
C0
ENDCHAR
STARTCHAR 0022
ENCODING 34
SWIDTH 285 0
DWIDTH 4 0
BBX 3 3 1 8
BITMAP
A0
A0
A0
ENDCHAR
STARTCHAR 0023
ENCODING 35
SWIDTH 714 0
DWIDTH 10 0
BBX 9 11 0 0
BITMAP
0900
1200
1200
7F80
1200
1200
2200
FF00
2700
2400
2400
ENDCHAR
STARTCHAR 0024
ENCODING 36
SWIDTH 785 0
DWIDTH 11 0
BBX 9 13 1 -1
BITMAP
0800
7E00
CB00
8900
8800
C800
7F00
0980
8980
8980
C900
7E00
0800
ENDCHAR
STARTCHAR 0025
ENCODING 37
SWIDTH 1000 0
DWIDTH 14 0
BBX 14 11 0 0
BITMAP
7840
4440
C480
C480
4500
7B78
0288
048C
048C
0888
0878
ENDCHAR
STARTCHAR 0026
ENCODING 38
SWIDTH 785 0
DWIDTH 11 0
BBX 10 11 1 0
BITMAP
3E00
6300
4100
4000
2000
F000
8C80
8680
8380
C380
7EC0
ENDCHAR
STARTCHAR 0027
ENCODING 39
SWIDTH 214 0
DWIDTH 3 0
BBX 1 3 1 8
BITMAP
80
80
80
ENDCHAR
STARTCHAR 0028
ENCODING 40
SWIDTH 357 0
DWIDTH 5 0
BBX 4 13 1 -2
BITMAP
30
20
40
40
C0
C0
80
C0
C0
40
40
20
20
ENDCHAR
STARTCHAR 0029
ENCODING 41
SWIDTH 357 0
DWIDTH 5 0
BBX 3 13 1 -2
BITMAP
80
80
40
40
60
20
20
20
20
40
40
80
80
ENDCHAR
STARTCHAR 002A
ENCODING 42
SWIDTH 428 0
DWIDTH 6 0
BBX 5 5 1 6
BITMAP
20
B8
60
B8
20
ENDCHAR
STARTCHAR 002B
ENCODING 43
SWIDTH 785 0
DWIDTH 11 0
BBX 9 9 1 1
BITMAP
0800
0800
0800
0800
FF80
0800
0800
0800
0800
ENDCHAR
STARTCHAR 002C
ENCODING 44
SWIDTH 285 0
DWIDTH 4 0
BBX 2 4 1 -2
BITMAP
C0
C0
40
80
ENDCHAR
STARTCHAR 002D
ENCODING 45
SWIDTH 285 0
DWIDTH 4 0
BBX 4 1 0 4
BITMAP
F0
ENDCHAR
STARTCHAR 002E
ENCODING 46
SWIDTH 285 0
DWIDTH 4 0
BBX 2 2 1 0
BITMAP
C0
C0
ENDCHAR
STARTCHAR 002F
ENCODING 47
SWIDTH 500 0
DWIDTH 7 0
BBX 5 11 1 0
BITMAP
08
08
18
10
30
20
60
40
C0
80
80
ENDCHAR
STARTCHAR 0030
ENCODING 48
SWIDTH 785 0
DWIDTH 11 0
BBX 9 11 1 0
BITMAP
3E00
4300
8180
8180
8180
8180
8180
8180
8180
4300
3E00
ENDCHAR
STARTCHAR 0031
ENCODING 49
SWIDTH 785 0
DWIDTH 11 0
BBX 3 11 3 0
BITMAP
E0
20
20
20
20
20
20
20
20
20
20
ENDCHAR
STARTCHAR 0032
ENCODING 50
SWIDTH 785 0
DWIDTH 11 0
BBX 9 11 1 0
BITMAP
3E00
6300
C180
8180
0180
0700
7C00
C000
8000
8000
FF80
ENDCHAR
STARTCHAR 0033
ENCODING 51
SWIDTH 785 0
DWIDTH 11 0
BBX 9 11 1 0
BITMAP
3E00
6300
C180
0180
0100
1E00
0100
8180
8180
C300
7E00
ENDCHAR
STARTCHAR 0034
ENCODING 52
SWIDTH 785 0
DWIDTH 11 0
BBX 10 11 0 0
BITMAP
0300
0700
0D00
1900
3100
2100
4100
FFC0
0100
0100
0100
ENDCHAR
STARTCHAR 0035
ENCODING 53
SWIDTH 785 0
DWIDTH 11 0
BBX 9 11 1 0
BITMAP
FF00
C000
C000
C000
FF00
C100
0180
0180
8180
C300
7E00
ENDCHAR
STARTCHAR 0036
ENCODING 54
SWIDTH 785 0
DWIDTH 11 0
BBX 9 11 1 0
BITMAP
3E00
6300
C180
8000
BE00
E300
C180
8180
C180
4300
3E00
ENDCHAR
STARTCHAR 0037
ENCODING 55
SWIDTH 785 0
DWIDTH 11 0
BBX 9 11 1 0
BITMAP
FF80
0180
0100
0300
0600
0400
0C00
0800
1800
3000
3000
ENDCHAR
STARTCHAR 0038
ENCODING 56
SWIDTH 785 0
DWIDTH 11 0
BBX 9 11 1 0
BITMAP
7E00
C300
8180
8100
C300
7E00
C100
8180
8180
C100
7E00
ENDCHAR
STARTCHAR 0039
ENCODING 57
SWIDTH 785 0
DWIDTH 11 0
BBX 9 11 1 0
BITMAP
3E00
4300
8100
8180
8180
C380
3F80
0180
8100
C300
7E00
ENDCHAR
STARTCHAR 003A
ENCODING 58
SWIDTH 285 0
DWIDTH 4 0
BBX 2 9 1 0
BITMAP
C0
C0
00
00
00
00
00
C0
C0
ENDCHAR
STARTCHAR 003B
ENCODING 59
SWIDTH 285 0
DWIDTH 4 0
BBX 2 11 1 -2
BITMAP
C0
C0
00
00
00
00
00
C0
C0
40
80
ENDCHAR
STARTCHAR 003C
ENCODING 60
SWIDTH 785 0
DWIDTH 11 0
BBX 11 11 0 0
BITMAP
0020
00C0
0300
0C00
3000
E000
3800
0C00
0300
00C0
0020
ENDCHAR
STARTCHAR 003D
ENCODING 61
SWIDTH 785 0
DWIDTH 11 0
BBX 9 5 1 3
BITMAP
FF80
0000
0000
0000
FF80
ENDCHAR
STARTCHAR 003E
ENCODING 62
SWIDTH 785 0
DWIDTH 11 0
BBX 10 10 1 0
BITMAP
8000
E000
3800
0C00
0300
00C0
0300
0C00
3000
C000
ENDCHAR
STARTCHAR 003F
ENCODING 63
SWIDTH 642 0
DWIDTH 9 0
BBX 7 11 1 0
BITMAP
7C
C6
82
82
06
1C
30
20
00
30
30
ENDCHAR
STARTCHAR 0040
ENCODING 64
SWIDTH 857 0
DWIDTH 12 0
BBX 11 11 1 0
BITMAP
1F00
6080
8F40
9340
A120
A220
A240
A240
9D80
4000
3F00
ENDCHAR
STARTCHAR 0041
ENCODING 65
SWIDTH 785 0
DWIDTH 11 0
BBX 9 11 1 0
BITMAP
1800
1C00
3400
3400
2600
6200
4300
7F00
C100
8180
8080
ENDCHAR
STARTCHAR 0042
ENCODING 66
SWIDTH 785 0
DWIDTH 11 0
BBX 9 11 1 0
BITMAP
FE00
8300
8100
8100
8300
FE00
8100
8180
8180
8100
FF00
ENDCHAR
STARTCHAR 0043
ENCODING 67
SWIDTH 785 0
DWIDTH 11 0
BBX 9 11 1 0
BITMAP
3E00
6300
C180
8180
8000
8000
8000
8180
C180
6300
3E00
ENDCHAR
STARTCHAR 0044
ENCODING 68
SWIDTH 785 0
DWIDTH 11 0
BBX 9 11 1 0
BITMAP
FF00
8180
8080
8080
8080
8080
8080
8080
8080
8180
FF00
ENDCHAR
STARTCHAR 0045
ENCODING 69
SWIDTH 714 0
DWIDTH 10 0
BBX 8 11 1 0
BITMAP
FF
80
80
80
80
FF
80
80
80
80
FF
ENDCHAR
STARTCHAR 0046
ENCODING 70
SWIDTH 642 0
DWIDTH 9 0
BBX 7 11 1 0
BITMAP
FE
80
80
80
80
FE
80
80
80
80
80
ENDCHAR
STARTCHAR 0047
ENCODING 71
SWIDTH 785 0
DWIDTH 11 0
BBX 10 11 1 0
BITMAP
3F00
6180
C080
8000
8000
87C0
8080
8080
C080
6180
3F00
ENDCHAR
STARTCHAR 0048
ENCODING 72
SWIDTH 785 0
DWIDTH 11 0
BBX 9 11 1 0
BITMAP
8080
8080
8080
8080
8080
FF80
8080
8080
8080
8080
8080
ENDCHAR
STARTCHAR 0049
ENCODING 73
SWIDTH 285 0
DWIDTH 4 0
BBX 1 11 1 0
BITMAP
80
80
80
80
80
80
80
80
80
80
80
ENDCHAR
STARTCHAR 004A
ENCODING 74
SWIDTH 642 0
DWIDTH 9 0
BBX 8 11 0 0
BITMAP
03
03
03
03
03
03
03
C3
C3
42
3C
ENDCHAR
STARTCHAR 004B
ENCODING 75
SWIDTH 785 0
DWIDTH 11 0
BBX 9 11 1 0
BITMAP
C100
C200
CC00
D800
F000
E000
D000
CC00
C600
C300
C180
ENDCHAR
STARTCHAR 004C
ENCODING 76
SWIDTH 642 0
DWIDTH 9 0
BBX 7 11 1 0
BITMAP
80
80
80
80
80
80
80
80
80
80
FE
ENDCHAR
STARTCHAR 004D
ENCODING 77
SWIDTH 928 0
DWIDTH 13 0
BBX 11 11 1 0
BITMAP
C060
A0E0
A0A0
A0A0
91A0
9120
9120
8B20
8A20
8A20
8620
ENDCHAR
STARTCHAR 004E
ENCODING 78
SWIDTH 785 0
DWIDTH 11 0
BBX 9 11 1 0
BITMAP
C080
A080
B080
9080
9880
8880
8480
8680
8280
8380
8180
ENDCHAR
STARTCHAR 004F
ENCODING 79
SWIDTH 785 0
DWIDTH 11 0
BBX 10 11 1 0
BITMAP
3F00
6180
C080
8080
8080
80C0
8080
8080
C080
6180
3F00
ENDCHAR
STARTCHAR 0050
ENCODING 80
SWIDTH 785 0
DWIDTH 11 0
BBX 9 11 1 0
BITMAP
FF00
C180
C080
C080
C080
C180
FF00
C000
C000
C000
C000
ENDCHAR
STARTCHAR 0051
ENCODING 81
SWIDTH 785 0
DWIDTH 11 0
BBX 10 11 1 -1
BITMAP
3F00
6180
C080
8080
8080
80C0
8080
8C80
C680
6180
3FC0
ENDCHAR
STARTCHAR 0052
ENCODING 82
SWIDTH 785 0
DWIDTH 11 0
BBX 9 11 1 0
BITMAP
FF00
C180
C180
C180
C100
FE00
C100
C180
C180
C180
C180
ENDCHAR
STARTCHAR 0053
ENCODING 83
SWIDTH 785 0
DWIDTH 11 0
BBX 9 11 1 0
BITMAP
7E00
C300
8100
8000
C000
7F00
0180
8180
8180
C100
7E00
ENDCHAR
STARTCHAR 0054
ENCODING 84
SWIDTH 714 0
DWIDTH 10 0
BBX 9 11 0 0
BITMAP
FF80
0800
0800
0800
0800
0800
0800
0800
0800
0800
0800
ENDCHAR
STARTCHAR 0055
ENCODING 85
SWIDTH 785 0
DWIDTH 11 0
BBX 9 11 1 0
BITMAP
8080
8080
8080
8080
8080
8080
8080
8080
C080
6180
3E00
ENDCHAR
STARTCHAR 0056
ENCODING 86
SWIDTH 785 0
DWIDTH 11 0
BBX 9 11 1 0
BITMAP
8080
8180
C100
4100
4300
6200
2600
3600
3400
1C00
1800
ENDCHAR
STARTCHAR 0057
ENCODING 87
SWIDTH 1000 0
DWIDTH 14 0
BBX 14 11 0 0
BITMAP
C30C
4308
4308
6798
6498
2490
2490
2CD0
3870
1860
1860
ENDCHAR
STARTCHAR 0058
ENCODING 88
SWIDTH 785 0
DWIDTH 11 0
BBX 9 11 1 0
BITMAP
C180
4300
6200
3600
1C00
1800
3400
2600
6300
C100
8180
ENDCHAR
STARTCHAR 0059
ENCODING 89
SWIDTH 785 0
DWIDTH 11 0
BBX 9 11 1 0
BITMAP
8180
C100
6300
2600
3400
1C00
0800
0800
0800
0800
0800
ENDCHAR
STARTCHAR 005A
ENCODING 90
SWIDTH 785 0
DWIDTH 11 0
BBX 9 11 1 0
BITMAP
FF80
0100
0300
0600
0C00
1800
3000
2000
6000
C000
FF80
ENDCHAR
STARTCHAR 005B
ENCODING 91
SWIDTH 357 0
DWIDTH 5 0
BBX 4 13 1 -2
BITMAP
F0
C0
C0
C0
C0
C0
C0
C0
C0
C0
C0
C0
F0
ENDCHAR
STARTCHAR 005C
ENCODING 92
SWIDTH 500 0
DWIDTH 7 0
BBX 5 11 1 0
BITMAP
80
80
C0
40
60
20
30
10
18
08
08
ENDCHAR
STARTCHAR 005D
ENCODING 93
SWIDTH 357 0
DWIDTH 5 0
BBX 4 13 0 -2
BITMAP
F0
10
10
10
10
10
10
10
10
10
10
10
F0
ENDCHAR
STARTCHAR 005E
ENCODING 94
SWIDTH 714 0
DWIDTH 10 0
BBX 8 7 1 4
BITMAP
10
18
28
24
42
82
81
ENDCHAR
STARTCHAR 005F
ENCODING 95
SWIDTH 500 0
DWIDTH 7 0
BBX 7 1 0 -2
BITMAP
FE
ENDCHAR
STARTCHAR 0060
ENCODING 96
SWIDTH 285 0
DWIDTH 4 0
BBX 2 2 1 9
BITMAP
80
40
ENDCHAR
STARTCHAR 0061
ENCODING 97
SWIDTH 642 0
DWIDTH 9 0
BBX 7 9 1 0
BITMAP
7C
C6
82
02
7E
82
82
86
FA
ENDCHAR
STARTCHAR 0062
ENCODING 98
SWIDTH 642 0
DWIDTH 9 0
BBX 7 11 1 0
BITMAP
80
80
BC
C6
82
82
82
82
82
C6
BC
ENDCHAR
STARTCHAR 0063
ENCODING 99
SWIDTH 642 0
DWIDTH 9 0
BBX 7 9 1 0
BITMAP
7C
C6
82
80
80
80
82
C6
7C
ENDCHAR
STARTCHAR 0064
ENCODING 100
SWIDTH 642 0
DWIDTH 9 0
BBX 7 11 1 0
BITMAP
02
02
7A
C6
86
82
82
82
86
C6
7A
ENDCHAR
STARTCHAR 0065
ENCODING 101
SWIDTH 642 0
DWIDTH 9 0
BBX 7 9 1 0
BITMAP
7C
C6
82
82
FE
80
82
C6
7C
ENDCHAR
STARTCHAR 0066
ENCODING 102
SWIDTH 357 0
DWIDTH 5 0
BBX 5 11 0 0
BITMAP
38
20
F8
20
20
20
20
20
20
20
20
ENDCHAR
STARTCHAR 0067
ENCODING 103
SWIDTH 714 0
DWIDTH 10 0
BBX 8 11 1 -2
BITMAP
7D
C2
C2
C2
FE
80
FE
83
81
83
7E
ENDCHAR
STARTCHAR 0068
ENCODING 104
SWIDTH 642 0
DWIDTH 9 0
BBX 7 11 1 0
BITMAP
80
80
BC
C6
82
82
82
82
82
82
82
ENDCHAR
STARTCHAR 0069
ENCODING 105
SWIDTH 285 0
DWIDTH 4 0
BBX 2 11 1 0
BITMAP
C0
00
80
80
80
80
80
80
80
80
80
ENDCHAR
STARTCHAR 006A
ENCODING 106
SWIDTH 285 0
DWIDTH 4 0
BBX 3 13 0 -2
BITMAP
60
00
60
60
60
60
60
60
60
60
60
60
C0
ENDCHAR
STARTCHAR 006B
ENCODING 107
SWIDTH 571 0
DWIDTH 8 0
BBX 6 11 1 0
BITMAP
80
80
8C
98
B0
A0
E0
B0
98
88
84
ENDCHAR
STARTCHAR 006C
ENCODING 108
SWIDTH 285 0
DWIDTH 4 0
BBX 1 11 1 0
BITMAP
80
80
80
80
80
80
80
80
80
80
80
ENDCHAR
STARTCHAR 006D
ENCODING 109
SWIDTH 928 0
DWIDTH 13 0
BBX 11 9 1 0
BITMAP
B9C0
CE20
8420
8420
8420
8420
8420
8420
8420
ENDCHAR
STARTCHAR 006E
ENCODING 110
SWIDTH 642 0
DWIDTH 9 0
BBX 7 9 1 0
BITMAP
BC
C6
82
82
82
82
82
82
82
ENDCHAR
STARTCHAR 006F
ENCODING 111
SWIDTH 642 0
DWIDTH 9 0
BBX 7 9 1 0
BITMAP
7C
C6
82
82
82
82
82
C6
7C
ENDCHAR
STARTCHAR 0070
ENCODING 112
SWIDTH 642 0
DWIDTH 9 0
BBX 7 11 1 -2
BITMAP
BC
C6
82
82
82
82
82
C6
BC
80
80
ENDCHAR
STARTCHAR 0071
ENCODING 113
SWIDTH 642 0
DWIDTH 9 0
BBX 7 11 1 -2
BITMAP
7A
C6
86
82
82
82
86
C6
7A
02
02
ENDCHAR
STARTCHAR 0072
ENCODING 114
SWIDTH 357 0
DWIDTH 5 0
BBX 4 9 1 0
BITMAP
B0
C0
80
80
80
80
80
80
80
ENDCHAR
STARTCHAR 0073
ENCODING 115
SWIDTH 642 0
DWIDTH 9 0
BBX 7 9 1 0
BITMAP
7C
C6
82
C0
7C
02
82
C6
7C
ENDCHAR
STARTCHAR 0074
ENCODING 116
SWIDTH 428 0
DWIDTH 6 0
BBX 6 11 0 0
BITMAP
20
20
FC
20
20
20
20
20
20
30
1C
ENDCHAR
STARTCHAR 0075
ENCODING 117
SWIDTH 642 0
DWIDTH 9 0
BBX 7 9 1 0
BITMAP
82
82
82
82
82
82
86
C6
7A
ENDCHAR
STARTCHAR 0076
ENCODING 118
SWIDTH 571 0
DWIDTH 8 0
BBX 7 9 0 0
BITMAP
C2
42
46
64
24
24
38
18
18
ENDCHAR
STARTCHAR 0077
ENCODING 119
SWIDTH 785 0
DWIDTH 11 0
BBX 11 9 0 0
BITMAP
C620
4620
4A60
4A40
4A40
6940
29C0
3180
3180
ENDCHAR
STARTCHAR 0078
ENCODING 120
SWIDTH 571 0
DWIDTH 8 0
BBX 6 9 1 0
BITMAP
84
C8
58
70
30
78
48
CC
84
ENDCHAR
STARTCHAR 0079
ENCODING 121
SWIDTH 571 0
DWIDTH 8 0
BBX 7 11 0 -2
BITMAP
C2
42
46
24
24
2C
18
18
18
10
70
ENDCHAR
STARTCHAR 007A
ENCODING 122
SWIDTH 500 0
DWIDTH 7 0
BBX 5 9 1 0
BITMAP
F8
08
18
30
20
60
C0
80
F8
ENDCHAR
STARTCHAR 007B
ENCODING 123
SWIDTH 357 0
DWIDTH 5 0
BBX 3 13 1 -2
BITMAP
60
40
40
40
40
40
80
40
40
40
40
40
60
ENDCHAR
STARTCHAR 007C
ENCODING 124
SWIDTH 285 0
DWIDTH 4 0
BBX 1 13 1 -2
BITMAP
80
80
80
80
80
00
00
00
80
80
80
80
80
ENDCHAR
STARTCHAR 007D
ENCODING 125
SWIDTH 357 0
DWIDTH 5 0
BBX 3 13 1 -2
BITMAP
80
C0
40
40
40
40
60
40
C0
40
40
C0
80
ENDCHAR
STARTCHAR 007E
ENCODING 126
SWIDTH 285 0
DWIDTH 4 0
BBX 4 2 0 9
BITMAP
C0
30
ENDCHAR
STARTCHAR 00A1
ENCODING 161
SWIDTH 285 0
DWIDTH 4 0
BBX 2 11 1 -2
BITMAP
C0
C0
00
40
40
40
40
40
40
40
C0
ENDCHAR
STARTCHAR 00A2
ENCODING 162
SWIDTH 642 0
DWIDTH 9 0
BBX 7 11 1 0
BITMAP
10
7C
D6
92
90
90
92
92
7C
10
10
ENDCHAR
STARTCHAR 00A3
ENCODING 163
SWIDTH 785 0
DWIDTH 11 0
BBX 9 11 1 0
BITMAP
3F00
6180
4080
4000
4000
F800
4000
4000
4000
4000
FF80
ENDCHAR
STARTCHAR 00A4
ENCODING 164
SWIDTH 714 0
DWIDTH 10 0
BBX 9 9 0 1
BITMAP
DC80
6300
4100
4080
4080
4080
4100
6300
DE80
ENDCHAR
STARTCHAR 00A5
ENCODING 165
SWIDTH 785 0
DWIDTH 11 0
BBX 9 11 1 0
BITMAP
8180
C100
4300
2600
3400
FF00
0800
FF00
0800
0800
0800
ENDCHAR
STARTCHAR 00A6
ENCODING 166
SWIDTH 285 0
DWIDTH 4 0
BBX 1 13 1 -2
BITMAP
80
80
80
80
80
80
80
80
80
80
80
80
80
ENDCHAR
STARTCHAR 00A7
ENCODING 167
SWIDTH 1000 0
DWIDTH 14 0
BBX 6 14 4 -2
BITMAP
78
CC
84
80
70
DC
84
84
E4
3C
04
84
CC
78
ENDCHAR
STARTCHAR 00A8
ENCODING 168
SWIDTH 1000 0
DWIDTH 14 0
BBX 4 1 5 10
BITMAP
90
ENDCHAR
STARTCHAR 00A9
ENCODING 169
SWIDTH 857 0
DWIDTH 12 0
BBX 12 11 0 0
BITMAP
0F00
30C0
4F20
90A0
9010
9010
9090
90A0
4FA0
2040
1F80
ENDCHAR
STARTCHAR 00AA
ENCODING 170
SWIDTH 428 0
DWIDTH 6 0
BBX 4 5 1 6
BITMAP
F0
90
F0
90
E0
ENDCHAR
STARTCHAR 00AB
ENCODING 171
SWIDTH 428 0
DWIDTH 6 0
BBX 5 6 1 1
BITMAP
58
90
B0
90
50
48
ENDCHAR
STARTCHAR 00AC
ENCODING 172
SWIDTH 714 0
DWIDTH 10 0
BBX 8 5 1 3
BITMAP
FF
01
01
01
01
ENDCHAR
STARTCHAR 00AD
ENCODING 173
SWIDTH 785 0
DWIDTH 11 0
BBX 9 1 1 5
BITMAP
FF80
ENDCHAR
STARTCHAR 00AE
ENCODING 174
SWIDTH 857 0
DWIDTH 12 0
BBX 12 11 0 0
BITMAP
0F00
30C0
5F20
90A0
9090
9F10
9090
90A0
50A0
2040
1F80
ENDCHAR
STARTCHAR 00AF
ENCODING 175
SWIDTH 285 0
DWIDTH 4 0
BBX 4 1 0 10
BITMAP
F0
ENDCHAR
STARTCHAR 00B0
ENCODING 176
SWIDTH 1000 0
DWIDTH 14 0
BBX 3 3 1 8
BITMAP
C0
A0
C0
ENDCHAR
STARTCHAR 00B1
ENCODING 177
SWIDTH 1000 0
DWIDTH 14 0
BBX 10 11 2 0
BITMAP
0C00
0C00
0C00
0C00
FFC0
0C00
0C00
0C00
0C00
0000
FFC0
ENDCHAR
STARTCHAR 00B2
ENCODING 178
SWIDTH 428 0
DWIDTH 6 0
BBX 4 6 1 5
BITMAP
F0
90
10
E0
80
F0
ENDCHAR
STARTCHAR 00B3
ENCODING 179
SWIDTH 428 0
DWIDTH 6 0
BBX 4 6 1 5
BITMAP
F0
90
30
10
90
F0
ENDCHAR
STARTCHAR 00B4
ENCODING 180
SWIDTH 1000 0
DWIDTH 14 0
BBX 2 2 6 9
BITMAP
40
80
ENDCHAR
STARTCHAR 00B5
ENCODING 181
SWIDTH 714 0
DWIDTH 10 0
BBX 8 11 1 -2
BITMAP
C2
C2
C2
C2
C2
C2
C2
C6
FB
C0
C0
ENDCHAR
STARTCHAR 00B6
ENCODING 182
SWIDTH 1000 0
DWIDTH 14 0
BBX 7 14 3 -2
BITMAP
7E
FA
FA
FA
FA
FA
7A
0A
0A
0A
0A
0A
0A
0A
ENDCHAR
STARTCHAR 00B7
ENCODING 183
SWIDTH 285 0
DWIDTH 4 0
BBX 2 2 1 5
BITMAP
80
C0
ENDCHAR
STARTCHAR 00B8
ENCODING 184
SWIDTH 214 0
DWIDTH 3 0
BBX 2 3 0 -3
BITMAP
40
40
C0
ENDCHAR
STARTCHAR 00B9
ENCODING 185
SWIDTH 428 0
DWIDTH 6 0
BBX 2 6 2 5
BITMAP
C0
40
40
40
40
40
ENDCHAR
STARTCHAR 00BA
ENCODING 186
SWIDTH 428 0
DWIDTH 6 0
BBX 4 5 1 6
BITMAP
F0
90
90
90
F0
ENDCHAR
STARTCHAR 00BB
ENCODING 187
SWIDTH 428 0
DWIDTH 6 0
BBX 4 6 1 1
BITMAP
A0
90
50
D0
90
20
ENDCHAR
STARTCHAR 00BC
ENCODING 188
SWIDTH 928 0
DWIDTH 13 0
BBX 11 11 2 0
BITMAP
C100
4100
4200
4400
4400
48C0
1140
2140
2240
43E0
8040
ENDCHAR
STARTCHAR 00BD
ENCODING 189
SWIDTH 928 0
DWIDTH 13 0
BBX 10 11 2 0
BITMAP
C100
4100
4200
4400
4400
4BC0
1240
2040
23C0
4200
83C0
ENDCHAR
STARTCHAR 00BE
ENCODING 190
SWIDTH 928 0
DWIDTH 13 0
BBX 12 11 1 0
BITMAP
F080
9080
3100
1200
9200
F460
08A0
10A0
1120
21F0
4020
ENDCHAR
STARTCHAR 00BF
ENCODING 191
SWIDTH 642 0
DWIDTH 9 0
BBX 7 11 1 -2
BITMAP
18
18
00
18
10
60
C0
82
82
C6
7C
ENDCHAR
STARTCHAR 00C0
ENCODING 192
SWIDTH 785 0
DWIDTH 11 0
BBX 9 14 1 0
BITMAP
1800
0800
0000
1800
1C00
3400
3400
2600
6200
4300
7F00
C100
8180
8080
ENDCHAR
STARTCHAR 00C1
ENCODING 193
SWIDTH 785 0
DWIDTH 11 0
BBX 9 14 1 0
BITMAP
0800
1000
0000
1800
1C00
3400
3400
2600
6200
4300
7F00
C100
8180
8080
ENDCHAR
STARTCHAR 00C2
ENCODING 194
SWIDTH 785 0
DWIDTH 11 0
BBX 9 14 1 0
BITMAP
1800
3400
0000
1800
1C00
3400
3400
2600
6200
4300
7F00
C100
8180
8080
ENDCHAR
STARTCHAR 00C3
ENCODING 195
SWIDTH 785 0
DWIDTH 11 0
BBX 9 14 1 0
BITMAP
3000
2C00
0000
1800
1C00
3400
3400
2600
6200
4300
7F00
C100
8180
8080
ENDCHAR
STARTCHAR 00C4
ENCODING 196
SWIDTH 785 0
DWIDTH 11 0
BBX 9 13 1 0
BITMAP
3400
0000
1800
1C00
3400
3400
2600
6200
4300
7F00
C100
8180
8080
ENDCHAR
STARTCHAR 00C5
ENCODING 197
SWIDTH 785 0
DWIDTH 11 0
BBX 9 15 1 0
BITMAP
0800
1400
1800
0000
1800
1C00
3400
3400
2600
6200
4300
7F00
C100
8180
8080
ENDCHAR
STARTCHAR 00C6
ENCODING 198
SWIDTH 1000 0
DWIDTH 14 0
BBX 13 11 0 0
BITMAP
07F8
0500
0D00
0900
1900
11F8
3100
3F00
6100
4100
C1F8
ENDCHAR
STARTCHAR 00C7
ENCODING 199
SWIDTH 785 0
DWIDTH 11 0
BBX 9 14 1 -3
BITMAP
3E00
6300
C180
8180
8000
8000
8000
8180
C180
6300
3E00
1000
0800
1800
ENDCHAR
STARTCHAR 00C8
ENCODING 200
SWIDTH 714 0
DWIDTH 10 0
BBX 8 14 1 0
BITMAP
10
08
00
FF
80
80
80
80
FF
80
80
80
80
FF
ENDCHAR
STARTCHAR 00C9
ENCODING 201
SWIDTH 714 0
DWIDTH 10 0
BBX 8 14 1 0
BITMAP
08
10
00
FF
80
80
80
80
FF
80
80
80
80
FF
ENDCHAR
STARTCHAR 00CA
ENCODING 202
SWIDTH 714 0
DWIDTH 10 0
BBX 8 14 1 0
BITMAP
18
2C
00
FF
80
80
80
80
FF
80
80
80
80
FF
ENDCHAR
STARTCHAR 00CB
ENCODING 203
SWIDTH 714 0
DWIDTH 10 0
BBX 8 13 1 0
BITMAP
2C
00
FF
80
80
80
80
FF
80
80
80
80
FF
ENDCHAR
STARTCHAR 00CC
ENCODING 204
SWIDTH 285 0
DWIDTH 4 0
BBX 2 14 1 0
BITMAP
80
40
00
80
80
80
80
80
80
80
80
80
80
80
ENDCHAR
STARTCHAR 00CD
ENCODING 205
SWIDTH 285 0
DWIDTH 4 0
BBX 2 14 1 0
BITMAP
40
80
00
80
80
80
80
80
80
80
80
80
80
80
ENDCHAR
STARTCHAR 00CE
ENCODING 206
SWIDTH 285 0
DWIDTH 4 0
BBX 4 14 0 0
BITMAP
60
90
00
40
40
40
40
40
40
40
40
40
40
40
ENDCHAR
STARTCHAR 00CF
ENCODING 207
SWIDTH 285 0
DWIDTH 4 0
BBX 4 13 0 0
BITMAP
B0
00
40
40
40
40
40
40
40
40
40
40
40
ENDCHAR
STARTCHAR 00D0
ENCODING 208
SWIDTH 785 0
DWIDTH 11 0
BBX 10 11 0 0
BITMAP
7F80
40C0
4040
4040
4040
F840
4040
4040
4040
40C0
7F80
ENDCHAR
STARTCHAR 00D1
ENCODING 209
SWIDTH 785 0
DWIDTH 11 0
BBX 9 14 1 0
BITMAP
1800
2600
0000
C080
A080
B080
9080
9880
8880
8480
8680
8280
8380
8180
ENDCHAR
STARTCHAR 00D2
ENCODING 210
SWIDTH 785 0
DWIDTH 11 0
BBX 10 14 1 0
BITMAP
0800
0400
0000
3F00
6180
C080
8080
8080
80C0
8080
8080
C080
6180
3F00
ENDCHAR
STARTCHAR 00D3
ENCODING 211
SWIDTH 785 0
DWIDTH 11 0
BBX 10 14 1 0
BITMAP
0C00
0800
0000
3F00
6180
C080
8080
8080
80C0
8080
8080
C080
6180
3F00
ENDCHAR
STARTCHAR 00D4
ENCODING 212
SWIDTH 785 0
DWIDTH 11 0
BBX 10 14 1 0
BITMAP
0C00
1600
0000
3F00
6180
C080
8080
8080
80C0
8080
8080
C080
6180
3F00
ENDCHAR
STARTCHAR 00D5
ENCODING 213
SWIDTH 785 0
DWIDTH 11 0
BBX 10 13 1 0
BITMAP
1E00
0000
3F00
6180
C080
8080
8080
80C0
8080
8080
C080
6180
3F00
ENDCHAR
STARTCHAR 00D6
ENCODING 214
SWIDTH 785 0
DWIDTH 11 0
BBX 10 13 1 0
BITMAP
1600
0000
3F00
6180
C080
8080
8080
80C0
8080
8080
C080
6180
3F00
ENDCHAR
STARTCHAR 00D7
ENCODING 215
SWIDTH 1000 0
DWIDTH 14 0
BBX 8 9 3 1
BITMAP
81
C3
66
3C
18
3C
66
C3
81
ENDCHAR
STARTCHAR 00D8
ENCODING 216
SWIDTH 785 0
DWIDTH 11 0
BBX 10 11 1 0
BITMAP
3F40
6180
C180
8280
8480
88C0
9880
B080
E080
6180
BF00
ENDCHAR
STARTCHAR 00D9
ENCODING 217
SWIDTH 785 0
DWIDTH 11 0
BBX 9 14 1 0
BITMAP
0800
0400
0000
8080
8080
8080
8080
8080
8080
8080
8080
C080
6180
3E00
ENDCHAR
STARTCHAR 00DA
ENCODING 218
SWIDTH 785 0
DWIDTH 11 0
BBX 9 14 1 0
BITMAP
0C00
0800
0000
8080
8080
8080
8080
8080
8080
8080
8080
C080
6180
3E00
ENDCHAR
STARTCHAR 00DB
ENCODING 219
SWIDTH 785 0
DWIDTH 11 0
BBX 9 14 1 0
BITMAP
0C00
1600
0000
8080
8080
8080
8080
8080
8080
8080
8080
C080
6180
3E00
ENDCHAR
STARTCHAR 00DC
ENCODING 220
SWIDTH 785 0
DWIDTH 11 0
BBX 9 13 1 0
BITMAP
1600
0000
8080
8080
8080
8080
8080
8080
8080
8080
C080
6180
3E00
ENDCHAR
STARTCHAR 00DD
ENCODING 221
SWIDTH 785 0
DWIDTH 11 0
BBX 9 14 1 0
BITMAP
0800
1000
0000
8180
C100
6300
2600
3400
1C00
0800
0800
0800
0800
0800
ENDCHAR
STARTCHAR 00DE
ENCODING 222
SWIDTH 785 0
DWIDTH 11 0
BBX 9 11 1 0
BITMAP
C000
C000
FF00
C180
C080
C080
C080
C180
FF00
C000
C000
ENDCHAR
STARTCHAR 00DF
ENCODING 223
SWIDTH 642 0
DWIDTH 9 0
BBX 7 11 1 0
BITMAP
7C
C6
86
86
84
BC
82
82
82
86
BC
ENDCHAR
STARTCHAR 00E0
ENCODING 224
SWIDTH 642 0
DWIDTH 9 0
BBX 7 11 1 0
BITMAP
30
10
7C
C6
82
02
7E
82
82
86
FA
ENDCHAR
STARTCHAR 00E1
ENCODING 225
SWIDTH 642 0
DWIDTH 9 0
BBX 7 11 1 0
BITMAP
18
20
7C
C6
82
02
7E
82
82
86
FA
ENDCHAR
STARTCHAR 00E2
ENCODING 226
SWIDTH 642 0
DWIDTH 9 0
BBX 7 11 1 0
BITMAP
30
28
7C
C6
82
02
7E
82
82
86
FA
ENDCHAR
STARTCHAR 00E3
ENCODING 227
SWIDTH 642 0
DWIDTH 9 0
BBX 7 11 1 0
BITMAP
78
00
7C
C6
82
02
7E
82
82
86
FA
ENDCHAR
STARTCHAR 00E4
ENCODING 228
SWIDTH 642 0
DWIDTH 9 0
BBX 7 11 1 0
BITMAP
6C
00
7C
C6
82
02
7E
82
82
86
FA
ENDCHAR
STARTCHAR 00E5
ENCODING 229
SWIDTH 642 0
DWIDTH 9 0
BBX 7 13 1 0
BITMAP
10
28
38
00
7C
C6
82
02
7E
82
82
86
FA
ENDCHAR
STARTCHAR 00E6
ENCODING 230
SWIDTH 1000 0
DWIDTH 14 0
BBX 12 9 1 0
BITMAP
7DE0
C630
8610
0610
FFF0
8600
8610
8E10
79E0
ENDCHAR
STARTCHAR 00E7
ENCODING 231
SWIDTH 642 0
DWIDTH 9 0
BBX 7 12 1 -3
BITMAP
7C
C6
82
80
80
80
82
C6
7C
20
18
30
ENDCHAR
STARTCHAR 00E8
ENCODING 232
SWIDTH 642 0
DWIDTH 9 0
BBX 7 11 1 0
BITMAP
30
10
7C
C6
82
82
FE
80
82
C6
7C
ENDCHAR
STARTCHAR 00E9
ENCODING 233
SWIDTH 642 0
DWIDTH 9 0
BBX 7 11 1 0
BITMAP
18
20
7C
C6
82
82
FE
80
82
C6
7C
ENDCHAR
STARTCHAR 00EA
ENCODING 234
SWIDTH 642 0
DWIDTH 9 0
BBX 7 11 1 0
BITMAP
30
28
7C
C6
82
82
FE
80
82
C6
7C
ENDCHAR
STARTCHAR 00EB
ENCODING 235
SWIDTH 642 0
DWIDTH 9 0
BBX 7 11 1 0
BITMAP
6C
00
7C
C6
82
82
FE
80
82
C6
7C
ENDCHAR
STARTCHAR 00EC
ENCODING 236
SWIDTH 285 0
DWIDTH 4 0
BBX 2 11 1 0
BITMAP
80
40
80
80
80
80
80
80
80
80
80
ENDCHAR
STARTCHAR 00ED
ENCODING 237
SWIDTH 285 0
DWIDTH 4 0
BBX 2 11 1 0
BITMAP
40
80
80
80
80
80
80
80
80
80
80
ENDCHAR
STARTCHAR 00EE
ENCODING 238
SWIDTH 285 0
DWIDTH 4 0
BBX 4 11 0 0
BITMAP
60
90
40
40
40
40
40
40
40
40
40
ENDCHAR
STARTCHAR 00EF
ENCODING 239
SWIDTH 285 0
DWIDTH 4 0
BBX 4 11 0 0
BITMAP
B0
00
40
40
40
40
40
40
40
40
40
ENDCHAR
STARTCHAR 00F0
ENCODING 240
SWIDTH 642 0
DWIDTH 9 0
BBX 7 11 1 0
BITMAP
76
7C
7C
C6
82
82
82
82
82
C6
7C
ENDCHAR
STARTCHAR 00F1
ENCODING 241
SWIDTH 642 0
DWIDTH 9 0
BBX 7 11 1 0
BITMAP
78
00
BC
C6
82
82
82
82
82
82
82
ENDCHAR
STARTCHAR 00F2
ENCODING 242
SWIDTH 642 0
DWIDTH 9 0
BBX 7 11 1 0
BITMAP
30
10
7C
C6
82
82
82
82
82
C6
7C
ENDCHAR
STARTCHAR 00F3
ENCODING 243
SWIDTH 642 0
DWIDTH 9 0
BBX 7 11 1 0
BITMAP
18
20
7C
C6
82
82
82
82
82
C6
7C
ENDCHAR
STARTCHAR 00F4
ENCODING 244
SWIDTH 642 0
DWIDTH 9 0
BBX 7 11 1 0
BITMAP
30
28
7C
C6
82
82
82
82
82
C6
7C
ENDCHAR
STARTCHAR 00F5
ENCODING 245
SWIDTH 642 0
DWIDTH 9 0
BBX 7 11 1 0
BITMAP
78
00
7C
C6
82
82
82
82
82
C6
7C
ENDCHAR
STARTCHAR 00F6
ENCODING 246
SWIDTH 642 0
DWIDTH 9 0
BBX 7 11 1 0
BITMAP
6C
00
7C
C6
82
82
82
82
82
C6
7C
ENDCHAR
STARTCHAR 00F7
ENCODING 247
SWIDTH 1000 0
DWIDTH 14 0
BBX 10 10 2 0
BITMAP
0C00
0C00
0000
0000
FFC0
0000
0000
0000
0C00
0C00
ENDCHAR
STARTCHAR 00F8
ENCODING 248
SWIDTH 642 0
DWIDTH 9 0
BBX 7 9 1 0
BITMAP
7E
C6
8E
8A
92
A2
E2
C6
FC
ENDCHAR
STARTCHAR 00F9
ENCODING 249
SWIDTH 642 0
DWIDTH 9 0
BBX 7 11 1 0
BITMAP
30
10
82
82
82
82
82
82
86
C6
7A
ENDCHAR
STARTCHAR 00FA
ENCODING 250
SWIDTH 642 0
DWIDTH 9 0
BBX 7 11 1 0
BITMAP
18
20
82
82
82
82
82
82
86
C6
7A
ENDCHAR
STARTCHAR 00FB
ENCODING 251
SWIDTH 642 0
DWIDTH 9 0
BBX 7 11 1 0
BITMAP
30
28
82
82
82
82
82
82
86
C6
7A
ENDCHAR
STARTCHAR 00FC
ENCODING 252
SWIDTH 642 0
DWIDTH 9 0
BBX 7 11 1 0
BITMAP
6C
00
82
82
82
82
82
82
86
C6
7A
ENDCHAR
STARTCHAR 00FD
ENCODING 253
SWIDTH 571 0
DWIDTH 8 0
BBX 7 13 0 -2
BITMAP
08
10
C2
42
46
24
24
2C
18
18
18
10
70
ENDCHAR
STARTCHAR 00FE
ENCODING 254
SWIDTH 642 0
DWIDTH 9 0
BBX 7 13 1 -2
BITMAP
80
80
BC
C6
82
82
82
82
82
C6
BC
80
80
ENDCHAR
STARTCHAR 00FF
ENCODING 255
SWIDTH 571 0
DWIDTH 8 0
BBX 7 13 0 -2
BITMAP
24
00
C2
42
46
24
24
2C
18
18
18
10
70
ENDCHAR
STARTCHAR 0100
ENCODING 256
SWIDTH 785 0
DWIDTH 11 0
BBX 9 13 1 0
BITMAP
3E00
0000
1800
1C00
3400
3400
2600
6200
4300
7F00
C100
8180
8080
ENDCHAR
STARTCHAR 0101
ENCODING 257
SWIDTH 642 0
DWIDTH 9 0
BBX 7 11 1 0
BITMAP
7C
00
7C
C6
82
02
7E
82
82
86
FA
ENDCHAR
STARTCHAR 0112
ENCODING 274
SWIDTH 714 0
DWIDTH 10 0
BBX 8 13 1 0
BITMAP
3C
00
FF
80
80
80
80
FF
80
80
80
80
FF
ENDCHAR
STARTCHAR 0113
ENCODING 275
SWIDTH 642 0
DWIDTH 9 0
BBX 7 11 1 0
BITMAP
7C
00
7C
C6
82
82
FE
80
82
C6
7C
ENDCHAR
STARTCHAR 011A
ENCODING 282
SWIDTH 714 0
DWIDTH 10 0
BBX 8 14 1 0
BITMAP
24
18
00
FF
80
80
80
80
FF
80
80
80
80
FF
ENDCHAR
STARTCHAR 011B
ENCODING 283
SWIDTH 642 0
DWIDTH 9 0
BBX 7 11 1 0
BITMAP
28
30
7C
C6
82
82
FE
80
82
C6
7C
ENDCHAR
STARTCHAR 0127
ENCODING 295
SWIDTH 1000 0
DWIDTH 14 0
BBX 8 12 3 -1
BITMAP
30
30
60
FE
63
41
43
C2
C2
82
82
86
ENDCHAR
STARTCHAR 0128
ENCODING 296
SWIDTH 285 0
DWIDTH 4 0
BBX 5 14 -1 0
BITMAP
60
98
00
20
20
20
20
20
20
20
20
20
20
20
ENDCHAR
STARTCHAR 0129
ENCODING 297
SWIDTH 285 0
DWIDTH 4 0
BBX 5 12 -1 0
BITMAP
60
98
00
20
20
20
20
20
20
20
20
20
ENDCHAR
STARTCHAR 012A
ENCODING 298
SWIDTH 285 0
DWIDTH 4 0
BBX 4 13 0 0
BITMAP
F0
00
40
40
40
40
40
40
40
40
40
40
40
ENDCHAR
STARTCHAR 012B
ENCODING 299
SWIDTH 285 0
DWIDTH 4 0
BBX 4 11 0 0
BITMAP
F0
00
40
40
40
40
40
40
40
40
40
ENDCHAR
STARTCHAR 0131
ENCODING 305
SWIDTH 285 0
DWIDTH 4 0
BBX 1 9 1 0
BITMAP
80
80
80
80
80
80
80
80
80
ENDCHAR
STARTCHAR 0141
ENCODING 321
SWIDTH 642 0
DWIDTH 9 0
BBX 8 11 0 0
BITMAP
40
40
40
48
50
60
C0
40
40
40
7F
ENDCHAR
STARTCHAR 0142
ENCODING 322
SWIDTH 285 0
DWIDTH 4 0
BBX 3 11 0 0
BITMAP
40
40
40
40
60
40
C0
40
40
40
40
ENDCHAR
STARTCHAR 014B
ENCODING 331
SWIDTH 642 0
DWIDTH 9 0
BBX 7 11 1 -2
BITMAP
BC
C6
82
82
82
82
82
82
82
06
1C
ENDCHAR
STARTCHAR 014C
ENCODING 332
SWIDTH 785 0
DWIDTH 11 0
BBX 10 13 1 0
BITMAP
3E00
0000
3F00
6180
C080
8080
8080
80C0
8080
8080
C080
6180
3F00
ENDCHAR
STARTCHAR 014D
ENCODING 333
SWIDTH 642 0
DWIDTH 9 0
BBX 7 11 1 0
BITMAP
7C
00
7C
C6
82
82
82
82
82
C6
7C
ENDCHAR
STARTCHAR 0152
ENCODING 338
SWIDTH 1000 0
DWIDTH 14 0
BBX 12 11 1 0
BITMAP
3FF0
6300
C300
8300
8300
83F0
8300
8300
C300
6300
3FF0
ENDCHAR
STARTCHAR 0153
ENCODING 339
SWIDTH 1000 0
DWIDTH 14 0
BBX 12 9 1 0
BITMAP
79E0
C630
8610
8610
83F0
8600
8610
C610
79E0
ENDCHAR
STARTCHAR 0160
ENCODING 352
SWIDTH 785 0
DWIDTH 11 0
BBX 9 14 1 0
BITMAP
3400
1800
0000
7E00
C300
8100
8000
C000
7F00
0180
8180
8180
C100
7E00
ENDCHAR
STARTCHAR 0161
ENCODING 353
SWIDTH 642 0
DWIDTH 9 0
BBX 7 11 1 0
BITMAP
28
30
7C
C6
82
C0
7C
02
82
C6
7C
ENDCHAR
STARTCHAR 0168
ENCODING 360
SWIDTH 785 0
DWIDTH 11 0
BBX 9 14 1 0
BITMAP
1800
2600
0000
8080
8080
8080
8080
8080
8080
8080
8080
C080
6180
3E00
ENDCHAR
STARTCHAR 0169
ENCODING 361
SWIDTH 642 0
DWIDTH 9 0
BBX 7 12 1 0
BITMAP
20
58
00
82
82
82
82
82
82
86
C6
7A
ENDCHAR
STARTCHAR 016A
ENCODING 362
SWIDTH 785 0
DWIDTH 11 0
BBX 9 13 1 0
BITMAP
3E00
0000
8080
8080
8080
8080
8080
8080
8080
8080
C080
6180
3E00
ENDCHAR
STARTCHAR 016B
ENCODING 363
SWIDTH 642 0
DWIDTH 9 0
BBX 7 11 1 0
BITMAP
7C
00
82
82
82
82
82
82
86
C6
7A
ENDCHAR
STARTCHAR 016E
ENCODING 366
SWIDTH 785 0
DWIDTH 11 0
BBX 9 15 1 0
BITMAP
0800
1400
0C00
0000
8080
8080
8080
8080
8080
8080
8080
8080
C080
6180
3E00
ENDCHAR
STARTCHAR 016F
ENCODING 367
SWIDTH 642 0
DWIDTH 9 0
BBX 7 13 1 0
BITMAP
10
28
30
00
82
82
82
82
82
82
86
C6
7A
ENDCHAR
STARTCHAR 0178
ENCODING 376
SWIDTH 785 0
DWIDTH 11 0
BBX 9 13 1 0
BITMAP
3400
0000
8180
C100
6300
2600
3400
1C00
0800
0800
0800
0800
0800
ENDCHAR
STARTCHAR 017D
ENCODING 381
SWIDTH 785 0
DWIDTH 11 0
BBX 9 14 1 0
BITMAP
3400
1800
0000
FF80
0100
0300
0600
0C00
1800
3000
2000
6000
C000
FF80
ENDCHAR
STARTCHAR 017E
ENCODING 382
SWIDTH 500 0
DWIDTH 7 0
BBX 5 11 1 0
BITMAP
50
20
F8
08
18
30
20
60
C0
80
F8
ENDCHAR
STARTCHAR 01C0
ENCODING 448
SWIDTH 285 0
DWIDTH 4 0
BBX 1 13 1 -2
BITMAP
80
80
80
80
80
80
80
80
80
80
80
80
80
ENDCHAR
STARTCHAR 01CD
ENCODING 461
SWIDTH 785 0
DWIDTH 11 0
BBX 9 14 1 0
BITMAP
3400
1800
0000
1800
1C00
3400
3400
2600
6200
4300
7F00
C100
8180
8080
ENDCHAR
STARTCHAR 01CE
ENCODING 462
SWIDTH 642 0
DWIDTH 9 0
BBX 7 11 1 0
BITMAP
28
30
7C
C6
82
02
7E
82
82
86
FA
ENDCHAR
STARTCHAR 01CF
ENCODING 463
SWIDTH 285 0
DWIDTH 4 0
BBX 4 14 0 0
BITMAP
90
60
00
40
40
40
40
40
40
40
40
40
40
40
ENDCHAR
STARTCHAR 01D0
ENCODING 464
SWIDTH 285 0
DWIDTH 4 0
BBX 4 11 0 0
BITMAP
90
60
40
40
40
40
40
40
40
40
40
ENDCHAR
STARTCHAR 01D1
ENCODING 465
SWIDTH 785 0
DWIDTH 11 0
BBX 10 14 1 0
BITMAP
1600
0C00
0000
3F00
6180
C080
8080
8080
80C0
8080
8080
C080
6180
3F00
ENDCHAR
STARTCHAR 01D2
ENCODING 466
SWIDTH 642 0
DWIDTH 9 0
BBX 7 11 1 0
BITMAP
28
30
7C
C6
82
82
82
82
82
C6
7C
ENDCHAR
STARTCHAR 01D3
ENCODING 467
SWIDTH 785 0
DWIDTH 11 0
BBX 9 14 1 0
BITMAP
1600
0C00
0000
8080
8080
8080
8080
8080
8080
8080
8080
C080
6180
3E00
ENDCHAR
STARTCHAR 01D4
ENCODING 468
SWIDTH 642 0
DWIDTH 9 0
BBX 7 11 1 0
BITMAP
28
30
82
82
82
82
82
82
86
C6
7A
ENDCHAR
STARTCHAR 01FD
ENCODING 509
SWIDTH 1000 0
DWIDTH 14 0
BBX 12 11 1 0
BITMAP
0200
0400
7DE0
C630
8610
0610
FFF0
8600
8610
8E10
79E0
ENDCHAR
STARTCHAR 0251
ENCODING 593
SWIDTH 642 0
DWIDTH 9 0
BBX 7 9 1 0
BITMAP
7A
C6
86
82
82
82
86
C6
7A
ENDCHAR
STARTCHAR 0254
ENCODING 596
SWIDTH 642 0
DWIDTH 9 0
BBX 7 9 1 0
BITMAP
7C
C6
82
02
02
02
82
C6
7C
ENDCHAR
STARTCHAR 0259
ENCODING 601
SWIDTH 642 0
DWIDTH 9 0
BBX 7 9 1 0
BITMAP
7C
86
82
02
FE
82
82
C6
7C
ENDCHAR
STARTCHAR 025A
ENCODING 602
SWIDTH 928 0
DWIDTH 13 0
BBX 11 9 1 0
BITMAP
7C00
8400
8200
0200
FF80
8380
8780
C5A0
7CE0
ENDCHAR
STARTCHAR 025B
ENCODING 603
SWIDTH 642 0
DWIDTH 9 0
BBX 7 9 1 0
BITMAP
7C
C6
82
80
70
80
82
86
7C
ENDCHAR
STARTCHAR 0275
ENCODING 629
SWIDTH 642 0
DWIDTH 9 0
BBX 7 11 1 0
BITMAP
7C
C6
82
82
82
FE
82
82
82
C6
7C
ENDCHAR
STARTCHAR 0283
ENCODING 643
SWIDTH 428 0
DWIDTH 6 0
BBX 6 13 0 -2
BITMAP
1C
10
30
30
30
30
30
30
30
30
30
30
E0
ENDCHAR
STARTCHAR 028C
ENCODING 652
SWIDTH 571 0
DWIDTH 8 0
BBX 7 9 0 0
BITMAP
18
18
38
24
24
64
46
42
C2
ENDCHAR
STARTCHAR 0292
ENCODING 658
SWIDTH 642 0
DWIDTH 9 0
BBX 7 11 1 -2
BITMAP
FC
0C
18
30
7C
46
02
02
82
C6
7C
ENDCHAR
STARTCHAR 02D0
ENCODING 720
SWIDTH 285 0
DWIDTH 4 0
BBX 2 9 1 0
BITMAP
C0
80
00
00
00
00
00
80
C0
ENDCHAR
STARTCHAR 0300
ENCODING 768
SWIDTH 285 0
DWIDTH 4 0
BBX 2 2 1 9
BITMAP
80
40
ENDCHAR
STARTCHAR 0301
ENCODING 769
SWIDTH 285 0
DWIDTH 4 0
BBX 2 2 1 9
BITMAP
40
80
ENDCHAR
STARTCHAR 0302
ENCODING 770
SWIDTH 285 0
DWIDTH 4 0
BBX 4 2 0 9
BITMAP
60
90
ENDCHAR
STARTCHAR 0303
ENCODING 771
SWIDTH 285 0
DWIDTH 4 0
BBX 4 2 0 9
BITMAP
C0
30
ENDCHAR
STARTCHAR 0304
ENCODING 772
SWIDTH 285 0
DWIDTH 4 0
BBX 4 1 0 10
BITMAP
F0
ENDCHAR
STARTCHAR 0305
ENCODING 773
SWIDTH 500 0
DWIDTH 7 0
BBX 7 1 0 12
BITMAP
FE
ENDCHAR
STARTCHAR 0306
ENCODING 774
SWIDTH 285 0
DWIDTH 4 0
BBX 4 2 0 9
BITMAP
80
70
ENDCHAR
STARTCHAR 0307
ENCODING 775
SWIDTH 285 0
DWIDTH 4 0
BBX 2 1 1 10
BITMAP
C0
ENDCHAR
STARTCHAR 0308
ENCODING 776
SWIDTH 285 0
DWIDTH 4 0
BBX 4 1 0 10
BITMAP
D0
ENDCHAR
STARTCHAR 030A
ENCODING 778
SWIDTH 285 0
DWIDTH 4 0
BBX 3 3 1 9
BITMAP
C0
A0
C0
ENDCHAR
STARTCHAR 030B
ENCODING 779
SWIDTH 428 0
DWIDTH 6 0
BBX 5 2 1 9
BITMAP
58
A0
ENDCHAR
STARTCHAR 030C
ENCODING 780
SWIDTH 285 0
DWIDTH 4 0
BBX 4 2 0 9
BITMAP
90
60
ENDCHAR
STARTCHAR 0327
ENCODING 807
SWIDTH 214 0
DWIDTH 3 0
BBX 2 3 0 -3
BITMAP
40
40
C0
ENDCHAR
STARTCHAR 0328
ENCODING 808
SWIDTH 285 0
DWIDTH 4 0
BBX 2 3 1 -3
BITMAP
80
80
C0
ENDCHAR
STARTCHAR 0332
ENCODING 818
SWIDTH 500 0
DWIDTH 7 0
BBX 7 1 0 -2
BITMAP
FE
ENDCHAR
STARTCHAR 0336
ENCODING 822
SWIDTH 1000 0
DWIDTH 14 0
BBX 14 1 0 4
BITMAP
FFFC
ENDCHAR
STARTCHAR 0361
ENCODING 865
SWIDTH 1000 0
DWIDTH 14 0
BBX 14 4 0 8
BITMAP
0FC0
3030
4008
8004
ENDCHAR
STARTCHAR 0391
ENCODING 913
SWIDTH 1000 0
DWIDTH 14 0
BBX 10 11 2 0
BITMAP
0C00
0C00
1E00
1200
3300
2100
2100
7F80
4080
4080
C0C0
ENDCHAR
STARTCHAR 0392
ENCODING 914
SWIDTH 1000 0
DWIDTH 14 0
BBX 8 11 3 0
BITMAP
FE
83
81
81
83
FE
81
81
81
83
FE
ENDCHAR
STARTCHAR 0393
ENCODING 915
SWIDTH 1000 0
DWIDTH 14 0
BBX 7 11 4 0
BITMAP
FE
80
80
80
80
80
80
80
80
80
80
ENDCHAR
STARTCHAR 0394
ENCODING 916
SWIDTH 1000 0
DWIDTH 14 0
BBX 10 11 2 0
BITMAP
0C00
0C00
1E00
1200
3300
2100
2100
6180
4080
4080
FFC0
ENDCHAR
STARTCHAR 0395
ENCODING 917
SWIDTH 1000 0
DWIDTH 14 0
BBX 8 11 3 0
BITMAP
FF
C0
C0
C0
C0
FF
C0
C0
C0
C0
FF
ENDCHAR
STARTCHAR 0396
ENCODING 918
SWIDTH 1000 0
DWIDTH 14 0
BBX 10 11 2 0
BITMAP
7F80
0180
0100
0200
0600
0C00
1800
3000
6000
4000
FFC0
ENDCHAR
STARTCHAR 0397
ENCODING 919
SWIDTH 1000 0
DWIDTH 14 0
BBX 10 11 2 0
BITMAP
C0C0
C0C0
C0C0
C0C0
C0C0
FFC0
C0C0
C0C0
C0C0
C0C0
C0C0
ENDCHAR
STARTCHAR 0398
ENCODING 920
SWIDTH 1000 0
DWIDTH 14 0
BBX 10 11 2 0
BITMAP
3F00
6180
C0C0
C0C0
C0C0
FFC0
C0C0
C0C0
C0C0
6180
3F00
ENDCHAR
STARTCHAR 0399
ENCODING 921
SWIDTH 1000 0
DWIDTH 14 0
BBX 2 11 6 0
BITMAP
C0
C0
C0
C0
C0
C0
C0
C0
C0
C0
C0
ENDCHAR
STARTCHAR 039A
ENCODING 922
SWIDTH 1000 0
DWIDTH 14 0
BBX 8 11 3 0
BITMAP
83
86
8C
98
B0
E0
B0
98
8C
82
81
ENDCHAR
STARTCHAR 039B
ENCODING 923
SWIDTH 1000 0
DWIDTH 14 0
BBX 10 11 2 0
BITMAP
0C00
0C00
1E00
1200
3300
3300
2100
6180
4080
4080
C0C0
ENDCHAR
STARTCHAR 039C
ENCODING 924
SWIDTH 1000 0
DWIDTH 14 0
BBX 10 11 2 0
BITMAP
C0C0
C0C0
C0C0
A140
A140
B340
9240
9240
9E40
8C40
8C40
ENDCHAR
STARTCHAR 039D
ENCODING 925
SWIDTH 1000 0
DWIDTH 14 0
BBX 10 11 2 0
BITMAP
E0C0
E0C0
F0C0
D8C0
C8C0
CCC0
C4C0
C6C0
C3C0
C1C0
C1C0
ENDCHAR
STARTCHAR 039E
ENCODING 926
SWIDTH 1000 0
DWIDTH 14 0
BBX 8 11 3 0
BITMAP
FF
00
00
00
00
FF
00
00
00
00
FF
ENDCHAR
STARTCHAR 039F
ENCODING 927
SWIDTH 1000 0
DWIDTH 14 0
BBX 10 11 2 0
BITMAP
3F00
6180
C0C0
C0C0
C0C0
C0C0
C0C0
C0C0
C0C0
6180
3F00
ENDCHAR
STARTCHAR 03A0
ENCODING 928
SWIDTH 1000 0
DWIDTH 14 0
BBX 10 11 2 0
BITMAP
FFC0
C0C0
C0C0
C0C0
C0C0
C0C0
C0C0
C0C0
C0C0
C0C0
C0C0
ENDCHAR
STARTCHAR 03A1
ENCODING 929
SWIDTH 1000 0
DWIDTH 14 0
BBX 9 11 3 0
BITMAP
FF00
8180
8180
8080
8180
8180
FF00
8000
8000
8000
8000
ENDCHAR
STARTCHAR 03A3
ENCODING 931
SWIDTH 1000 0
DWIDTH 14 0
BBX 10 11 2 0
BITMAP
7F80
6000
3000
1800
0C00
0600
0C00
1800
3000
6000
FFC0
ENDCHAR
STARTCHAR 03A4
ENCODING 932
SWIDTH 1000 0
DWIDTH 14 0
BBX 10 11 2 0
BITMAP
FFC0
0C00
0C00
0C00
0C00
0C00
0C00
0C00
0C00
0C00
0C00
ENDCHAR
STARTCHAR 03A5
ENCODING 933
SWIDTH 1000 0
DWIDTH 14 0
BBX 10 11 2 0
BITMAP
C0C0
6180
2100
3300
1200
0C00
0C00
0C00
0C00
0C00
0C00
ENDCHAR
STARTCHAR 03A6
ENCODING 934
SWIDTH 1000 0
DWIDTH 14 0
BBX 10 11 2 0
BITMAP
0C00
1E00
7F80
CCC0
CCC0
8C40
CCC0
CCC0
6D80
3F00
0C00
ENDCHAR
STARTCHAR 03A7
ENCODING 935
SWIDTH 1000 0
DWIDTH 14 0
BBX 10 11 2 0
BITMAP
4080
6180
3300
1200
1E00
0C00
1E00
3300
2100
6180
C0C0
ENDCHAR
STARTCHAR 03A8
ENCODING 936
SWIDTH 1000 0
DWIDTH 14 0
BBX 10 11 2 0
BITMAP
8C40
8C40
8C40
8C40
8C40
8C40
CCC0
6D80
3F00
0C00
0C00
ENDCHAR
STARTCHAR 03A9
ENCODING 937
SWIDTH 1000 0
DWIDTH 14 0
BBX 10 11 2 0
BITMAP
3F00
6180
C0C0
C0C0
C0C0
C0C0
C0C0
C0C0
4080
2100
F3C0
ENDCHAR
STARTCHAR 03B1
ENCODING 945
SWIDTH 1000 0
DWIDTH 14 0
BBX 10 8 2 0
BITMAP
3E40
21C0
4180
4180
C100
C300
4700
7D80
ENDCHAR
STARTCHAR 03B2
ENCODING 946
SWIDTH 1000 0
DWIDTH 14 0
BBX 9 13 2 -2
BITMAP
0F80
1880
1080
1080
3180
2600
2100
2100
6100
6300
5E00
4000
C000
ENDCHAR
STARTCHAR 03B3
ENCODING 947
SWIDTH 1000 0
DWIDTH 14 0
BBX 8 10 3 -2
BITMAP
C1
63
26
24
28
38
10
30
20
20
ENDCHAR
STARTCHAR 03B4
ENCODING 948
SWIDTH 1000 0
DWIDTH 14 0
BBX 9 11 3 0
BITMAP
1F80
1000
0800
3E00
6200
4300
C200
8200
8200
C600
7C00
ENDCHAR
STARTCHAR 03B5
ENCODING 949
SWIDTH 1000 0
DWIDTH 14 0
BBX 8 8 3 0
BITMAP
3E
63
60
78
40
C2
C6
7C
ENDCHAR
STARTCHAR 03B6
ENCODING 950
SWIDTH 1000 0
DWIDTH 14 0
BBX 8 13 3 -2
BITMAP
3F
06
18
30
60
40
C0
C0
C0
78
0C
0C
08
ENDCHAR
STARTCHAR 03B7
ENCODING 951
SWIDTH 1000 0
DWIDTH 14 0
BBX 8 10 3 -2
BITMAP
DE
63
41
43
C2
82
82
86
04
04
ENDCHAR
STARTCHAR 03B8
ENCODING 952
SWIDTH 1000 0
DWIDTH 14 0
BBX 8 11 3 0
BITMAP
1F
21
61
41
41
FF
82
82
86
84
F8
ENDCHAR
STARTCHAR 03B9
ENCODING 953
SWIDTH 1000 0
DWIDTH 14 0
BBX 3 8 5 0
BITMAP
20
20
20
60
40
40
C0
E0
ENDCHAR
STARTCHAR 03BA
ENCODING 954
SWIDTH 1000 0
DWIDTH 14 0
BBX 8 8 3 0
BITMAP
23
26
28
70
58
48
44
C6
ENDCHAR
STARTCHAR 03BB
ENCODING 955
SWIDTH 1000 0
DWIDTH 14 0
BBX 8 11 3 0
BITMAP
18
08
0C
0C
0C
14
34
24
64
C6
83
ENDCHAR
STARTCHAR 03BC
ENCODING 956
SWIDTH 1000 0
DWIDTH 14 0
BBX 10 10 2 -2
BITMAP
10C0
3080
2080
2080
2180
6100
6300
7F80
C000
8000
ENDCHAR
STARTCHAR 03BD
ENCODING 957
SWIDTH 1000 0
DWIDTH 14 0
BBX 7 8 4 0
BITMAP
82
86
8C
88
98
D0
E0
60
ENDCHAR
STARTCHAR 03BE
ENCODING 958
SWIDTH 1000 0
DWIDTH 14 0
BBX 8 13 3 -2
BITMAP
3F
10
20
20
3E
40
C0
80
C0
7C
04
04
08
ENDCHAR
STARTCHAR 03BF
ENCODING 959
SWIDTH 1000 0
DWIDTH 14 0
BBX 8 8 3 0
BITMAP
3E
63
41
C1
83
82
C6
7C
ENDCHAR
STARTCHAR 03C0
ENCODING 960
SWIDTH 1000 0
DWIDTH 14 0
BBX 9 8 3 0
BITMAP
FF80
6200
4200
4600
4400
C400
8C00
8600
ENDCHAR
STARTCHAR 03C1
ENCODING 961
SWIDTH 1000 0
DWIDTH 14 0
BBX 9 10 2 -2
BITMAP
0F80
1080
3080
2080
2080
6180
6100
5E00
4000
C000
ENDCHAR
STARTCHAR 03C3
ENCODING 963
SWIDTH 1000 0
DWIDTH 14 0
BBX 9 8 3 0
BITMAP
3F80
4300
4100
8300
8200
8200
8600
7C00
ENDCHAR
STARTCHAR 03C4
ENCODING 964
SWIDTH 1000 0
DWIDTH 14 0
BBX 6 8 4 0
BITMAP
FC
20
20
20
60
40
40
70
ENDCHAR
STARTCHAR 03C5
ENCODING 965
SWIDTH 1000 0
DWIDTH 14 0
BBX 8 8 3 0
BITMAP
61
41
43
C3
82
82
86
7C
ENDCHAR
STARTCHAR 03C6
ENCODING 966
SWIDTH 1000 0
DWIDTH 14 0
BBX 10 12 2 -2
BITMAP
0200
0200
3F80
6480
44C0
4C80
CC80
C880
4980
7F00
1000
1000
ENDCHAR
STARTCHAR 03C7
ENCODING 967
SWIDTH 1000 0
DWIDTH 14 0
BBX 9 10 2 -2
BITMAP
3180
1100
0A00
0E00
0C00
0C00
1400
3600
6200
C380
ENDCHAR
STARTCHAR 03C8
ENCODING 968
SWIDTH 1000 0
DWIDTH 14 0
BBX 10 12 2 -2
BITMAP
0200
0600
2440
64C0
4480
4C80
4880
C980
C900
7E00
1000
1000
ENDCHAR
STARTCHAR 03C9
ENCODING 969
SWIDTH 1000 0
DWIDTH 14 0
BBX 10 8 2 0
BITMAP
3080
20C0
4440
4440
CCC0
88C0
8880
F700
ENDCHAR
STARTCHAR 03D0
ENCODING 976
SWIDTH 1000 0
DWIDTH 14 0
BBX 8 12 3 -1
BITMAP
1F
21
61
7E
40
7C
C2
82
82
86
C4
78
ENDCHAR
STARTCHAR 03D1
ENCODING 977
SWIDTH 1000 0
DWIDTH 14 0
BBX 8 12 3 -1
BITMAP
1F
31
21
21
21
3B
CE
C3
82
86
CC
78
ENDCHAR
STARTCHAR 03DB
ENCODING 987
SWIDTH 1000 0
DWIDTH 14 0
BBX 8 11 3 -3
BITMAP
3E
62
43
C0
C0
C0
60
1C
04
04
04
ENDCHAR
STARTCHAR 0401
ENCODING 1025
SWIDTH 1000 0
DWIDTH 14 0
BBX 8 13 3 0
BITMAP
24
00
FF
C0
C0
C0
C0
FF
C0
C0
C0
C0
FF
ENDCHAR
STARTCHAR 0410
ENCODING 1040
SWIDTH 1000 0
DWIDTH 14 0
BBX 10 11 2 0
BITMAP
0C00
0C00
1E00
1200
3300
2100
2100
7F80
4080
4080
C0C0
ENDCHAR
STARTCHAR 0411
ENCODING 1041
SWIDTH 1000 0
DWIDTH 14 0
BBX 8 11 3 0
BITMAP
FF
80
80
80
80
FF
81
81
81
81
FE
ENDCHAR
STARTCHAR 0412
ENCODING 1042
SWIDTH 1000 0
DWIDTH 14 0
BBX 8 11 3 0
BITMAP
FE
83
81
81
83
FE
81
81
81
83
FE
ENDCHAR
STARTCHAR 0413
ENCODING 1043
SWIDTH 1000 0
DWIDTH 14 0
BBX 7 11 4 0
BITMAP
FE
80
80
80
80
80
80
80
80
80
80
ENDCHAR
STARTCHAR 0414
ENCODING 1044
SWIDTH 1000 0
DWIDTH 14 0
BBX 10 13 2 -2
BITMAP
3F80
2080
2080
2080
2080
2080
2080
2080
6080
4080
FFC0
8040
8040
ENDCHAR
STARTCHAR 0415
ENCODING 1045
SWIDTH 1000 0
DWIDTH 14 0
BBX 8 11 3 0
BITMAP
FF
C0
C0
C0
C0
FF
C0
C0
C0
C0
FF
ENDCHAR
STARTCHAR 0416
ENCODING 1046
SWIDTH 1000 0
DWIDTH 14 0
BBX 12 11 1 0
BITMAP
8630
4620
2640
36C0
1F80
0F00
1F80
36C0
6660
4620
8610
ENDCHAR
STARTCHAR 0417
ENCODING 1047
SWIDTH 1000 0
DWIDTH 14 0
BBX 8 11 3 0
BITMAP
7E
C3
81
01
03
1E
01
81
81
C3
7E
ENDCHAR
STARTCHAR 0418
ENCODING 1048
SWIDTH 1000 0
DWIDTH 14 0
BBX 10 11 2 0
BITMAP
C1C0
C1C0
C3C0
C6C0
C4C0
CCC0
C8C0
D8C0
F0C0
E0C0
E0C0
ENDCHAR
STARTCHAR 0419
ENCODING 1049
SWIDTH 1000 0
DWIDTH 14 0
BBX 10 14 2 0
BITMAP
1200
0C00
0000
C1C0
C1C0
C3C0
C6C0
C4C0
CCC0
C8C0
D8C0
F0C0
E0C0
E0C0
ENDCHAR
STARTCHAR 041A
ENCODING 1050
SWIDTH 1000 0
DWIDTH 14 0
BBX 8 11 3 0
BITMAP
83
86
8C
98
B0
E0
B0
98
8C
82
81
ENDCHAR
STARTCHAR 041B
ENCODING 1051
SWIDTH 1000 0
DWIDTH 14 0
BBX 11 11 1 0
BITMAP
1FE0
1060
1060
1060
1060
1060
1060
1060
1060
1060
F060
ENDCHAR
STARTCHAR 041C
ENCODING 1052
SWIDTH 1000 0
DWIDTH 14 0
BBX 10 11 2 0
BITMAP
C0C0
C0C0
C0C0
A140
A140
B340
9240
9240
9E40
8C40
8C40
ENDCHAR
STARTCHAR 041D
ENCODING 1053
SWIDTH 1000 0
DWIDTH 14 0
BBX 10 11 2 0
BITMAP
C0C0
C0C0
C0C0
C0C0
C0C0
FFC0
C0C0
C0C0
C0C0
C0C0
C0C0
ENDCHAR
STARTCHAR 041E
ENCODING 1054
SWIDTH 1000 0
DWIDTH 14 0
BBX 10 11 2 0
BITMAP
3F00
6180
C0C0
C0C0
C0C0
C0C0
C0C0
C0C0
C0C0
6180
3F00
ENDCHAR
STARTCHAR 041F
ENCODING 1055
SWIDTH 1000 0
DWIDTH 14 0
BBX 10 11 2 0
BITMAP
FFC0
C0C0
C0C0
C0C0
C0C0
C0C0
C0C0
C0C0
C0C0
C0C0
C0C0
ENDCHAR
STARTCHAR 0420
ENCODING 1056
SWIDTH 1000 0
DWIDTH 14 0
BBX 9 11 3 0
BITMAP
FF00
8180
8180
8080
8180
8180
FF00
8000
8000
8000
8000
ENDCHAR
STARTCHAR 0421
ENCODING 1057
SWIDTH 1000 0
DWIDTH 14 0
BBX 8 11 3 0
BITMAP
7E
C3
81
81
80
80
80
81
81
C3
7E
ENDCHAR
STARTCHAR 0422
ENCODING 1058
SWIDTH 1000 0
DWIDTH 14 0
BBX 10 11 2 0
BITMAP
FFC0
0C00
0C00
0C00
0C00
0C00
0C00
0C00
0C00
0C00
0C00
ENDCHAR
STARTCHAR 0423
ENCODING 1059
SWIDTH 1000 0
DWIDTH 14 0
BBX 7 11 4 0
BITMAP
82
86
C4
44
4C
68
38
30
10
30
E0
ENDCHAR
STARTCHAR 0424
ENCODING 1060
SWIDTH 1000 0
DWIDTH 14 0
BBX 10 11 2 0
BITMAP
0C00
1E00
7F80
CCC0
CCC0
8C40
CCC0
CCC0
6D80
3F00
0C00
ENDCHAR
STARTCHAR 0425
ENCODING 1061
SWIDTH 1000 0
DWIDTH 14 0
BBX 10 11 2 0
BITMAP
4080
6180
3300
1200
1E00
0C00
1E00
3300
2100
6180
C0C0
ENDCHAR
STARTCHAR 0426
ENCODING 1062
SWIDTH 1000 0
DWIDTH 14 0
BBX 10 13 3 -2
BITMAP
8100
8100
8100
8100
8100
8100
8100
8100
8100
8100
FFC0
00C0
00C0
ENDCHAR
STARTCHAR 0427
ENCODING 1063
SWIDTH 1000 0
DWIDTH 14 0
BBX 8 11 3 0
BITMAP
81
81
81
81
81
C7
7D
01
01
01
01
ENDCHAR
STARTCHAR 0428
ENCODING 1064
SWIDTH 1000 0
DWIDTH 14 0
BBX 12 11 1 0
BITMAP
8610
8610
8610
8610
8610
8610
8610
8610
8610
8610
FFF0
ENDCHAR
STARTCHAR 0429
ENCODING 1065
SWIDTH 1000 0
DWIDTH 14 0
BBX 13 13 1 -2
BITMAP
8420
8420
8420
8420
8420
8420
8420
8420
8420
8420
FFF8
0018
0018
ENDCHAR
STARTCHAR 042A
ENCODING 1066
SWIDTH 1000 0
DWIDTH 14 0
BBX 10 11 2 0
BITMAP
F000
1000
1000
1000
1F80
10C0
1040
1040
1040
10C0
1F80
ENDCHAR
STARTCHAR 042B
ENCODING 1067
SWIDTH 1000 0
DWIDTH 14 0
BBX 10 11 2 0
BITMAP
8040
8040
8040
8040
FC40
8640
8240
8240
8240
8640
FC40
ENDCHAR
STARTCHAR 042C
ENCODING 1068
SWIDTH 1000 0
DWIDTH 14 0
BBX 8 11 3 0
BITMAP
C0
C0
C0
C0
FE
C3
C1
C1
C1
C3
FE
ENDCHAR
STARTCHAR 042D
ENCODING 1069
SWIDTH 1000 0
DWIDTH 14 0
BBX 10 11 2 0
BITMAP
3F00
6180
4080
C0C0
00C0
0FC0
00C0
C0C0
4080
4180
3F00
ENDCHAR
STARTCHAR 042E
ENCODING 1070
SWIDTH 1000 0
DWIDTH 14 0
BBX 11 11 2 0
BITMAP
8FC0
8840
9860
9060
9020
F020
9020
9060
9860
8840
8FC0
ENDCHAR
STARTCHAR 042F
ENCODING 1071
SWIDTH 1000 0
DWIDTH 14 0
BBX 8 11 3 0
BITMAP
7F
C1
81
81
81
7F
C1
81
81
81
81
ENDCHAR
STARTCHAR 0430
ENCODING 1072
SWIDTH 1000 0
DWIDTH 14 0
BBX 8 8 3 0
BITMAP
7E
42
02
7E
C2
C2
C2
7F
ENDCHAR
STARTCHAR 0431
ENCODING 1073
SWIDTH 1000 0
DWIDTH 14 0
BBX 8 11 3 0
BITMAP
0E
7C
40
FE
C2
C3
83
83
C3
42
7E
ENDCHAR
STARTCHAR 0432
ENCODING 1074
SWIDTH 1000 0
DWIDTH 14 0
BBX 7 8 4 0
BITMAP
FC
84
84
F8
86
86
86
FC
ENDCHAR
STARTCHAR 0433
ENCODING 1075
SWIDTH 1000 0
DWIDTH 14 0
BBX 6 8 4 0
BITMAP
FC
C0
C0
C0
C0
C0
C0
C0
ENDCHAR
STARTCHAR 0434
ENCODING 1076
SWIDTH 1000 0
DWIDTH 14 0
BBX 8 10 3 -2
BITMAP
3E
22
22
22
22
62
42
FF
81
81
ENDCHAR
STARTCHAR 0435
ENCODING 1077
SWIDTH 1000 0
DWIDTH 14 0
BBX 8 8 3 0
BITMAP
7E
42
C3
FF
80
C3
43
7E
ENDCHAR
STARTCHAR 0436
ENCODING 1078
SWIDTH 1000 0
DWIDTH 14 0
BBX 10 8 2 0
BITMAP
4C80
2D00
3F00
1E00
1E00
2D00
4C80
CCC0
ENDCHAR
STARTCHAR 0437
ENCODING 1079
SWIDTH 1000 0
DWIDTH 14 0
BBX 8 8 3 0
BITMAP
7E
42
02
1C
02
C3
42
7E
ENDCHAR
STARTCHAR 0438
ENCODING 1080
SWIDTH 1000 0
DWIDTH 14 0
BBX 6 8 4 0
BITMAP
8C
9C
94
94
A4
A4
C4
C4
ENDCHAR
STARTCHAR 0439
ENCODING 1081
SWIDTH 1000 0
DWIDTH 14 0
BBX 6 11 4 0
BITMAP
48
30
00
8C
8C
94
94
A4
A4
C4
C4
ENDCHAR
STARTCHAR 043A
ENCODING 1082
SWIDTH 1000 0
DWIDTH 14 0
BBX 6 8 4 0
BITMAP
8C
98
B0
E0
A0
90
88
84
ENDCHAR
STARTCHAR 043B
ENCODING 1083
SWIDTH 1000 0
DWIDTH 14 0
BBX 7 8 3 0
BITMAP
7E
62
62
62
62
62
62
C2
ENDCHAR
STARTCHAR 043C
ENCODING 1084
SWIDTH 1000 0
DWIDTH 14 0
BBX 8 8 3 0
BITMAP
C3
C3
E7
A5
A5
99
99
99
ENDCHAR
STARTCHAR 043D
ENCODING 1085
SWIDTH 1000 0
DWIDTH 14 0
BBX 6 8 4 0
BITMAP
84
84
84
FC
84
84
84
84
ENDCHAR
STARTCHAR 043E
ENCODING 1086
SWIDTH 1000 0
DWIDTH 14 0
BBX 8 8 3 0
BITMAP
7E
42
C3
83
83
C3
42
7E
ENDCHAR
STARTCHAR 043F
ENCODING 1087
SWIDTH 1000 0
DWIDTH 14 0
BBX 6 8 4 0
BITMAP
FC
84
84
84
84
84
84
84
ENDCHAR
STARTCHAR 0440
ENCODING 1088
SWIDTH 1000 0
DWIDTH 14 0
BBX 7 10 4 -2
BITMAP
FC
84
86
86
86
86
84
FC
80
80
ENDCHAR
STARTCHAR 0441
ENCODING 1089
SWIDTH 1000 0
DWIDTH 14 0
BBX 8 8 3 0
BITMAP
7E
42
C3
80
80
C3
43
7E
ENDCHAR
STARTCHAR 0442
ENCODING 1090
SWIDTH 1000 0
DWIDTH 14 0
BBX 6 8 4 0
BITMAP
FC
30
30
30
30
30
30
30
ENDCHAR
STARTCHAR 0443
ENCODING 1091
SWIDTH 1000 0
DWIDTH 14 0
BBX 6 10 4 -2
BITMAP
84
84
CC
48
48
38
30
30
20
E0
ENDCHAR
STARTCHAR 0444
ENCODING 1092
SWIDTH 1000 0
DWIDTH 14 0
BBX 10 13 2 -2
BITMAP
0C00
0C00
0C00
7F80
CCC0
8C40
8C40
8C40
8C40
CCC0
7F80
0C00
0C00
ENDCHAR
STARTCHAR 0445
ENCODING 1093
SWIDTH 1000 0
DWIDTH 14 0
BBX 6 8 4 0
BITMAP
CC
48
78
30
30
48
CC
84
ENDCHAR
STARTCHAR 0446
ENCODING 1094
SWIDTH 1000 0
DWIDTH 14 0
BBX 7 10 4 -2
BITMAP
84
84
84
84
84
84
84
FE
02
02
ENDCHAR
STARTCHAR 0447
ENCODING 1095
SWIDTH 1000 0
DWIDTH 14 0
BBX 6 8 4 0
BITMAP
84
84
84
8C
FC
04
04
04
ENDCHAR
STARTCHAR 0448
ENCODING 1096
SWIDTH 1000 0
DWIDTH 14 0
BBX 9 8 3 0
BITMAP
9980
9980
9980
9980
9980
9980
9980
FF80
ENDCHAR
STARTCHAR 0449
ENCODING 1097
SWIDTH 1000 0
DWIDTH 14 0
BBX 11 10 2 -2
BITMAP
8880
8880
8880
8880
8880
8880
8880
FFE0
0060
0060
ENDCHAR
STARTCHAR 044A
ENCODING 1098
SWIDTH 1000 0
DWIDTH 14 0
BBX 8 8 3 0
BITMAP
E0
20
20
3E
21
21
21
3E
ENDCHAR
STARTCHAR 044B
ENCODING 1099
SWIDTH 1000 0
DWIDTH 14 0
BBX 8 8 3 0
BITMAP
81
81
81
F9
8D
8D
8D
F9
ENDCHAR
STARTCHAR 044C
ENCODING 1100
SWIDTH 1000 0
DWIDTH 14 0
BBX 7 8 4 0
BITMAP
80
80
80
FC
86
82
86
FC
ENDCHAR
STARTCHAR 044D
ENCODING 1101
SWIDTH 1000 0
DWIDTH 14 0
BBX 8 8 3 0
BITMAP
7E
C2
03
1F
03
C3
42
7E
ENDCHAR
STARTCHAR 044E
ENCODING 1102
SWIDTH 1000 0
DWIDTH 14 0
BBX 9 8 3 0
BITMAP
9F00
9100
9180
F180
9180
9180
9100
9F00
ENDCHAR
STARTCHAR 044F
ENCODING 1103
SWIDTH 1000 0
DWIDTH 14 0
BBX 7 8 3 0
BITMAP
7E
42
42
7E
42
42
42
C2
ENDCHAR
STARTCHAR 0451
ENCODING 1105
SWIDTH 1000 0
DWIDTH 14 0
BBX 8 11 3 0
BITMAP
24
00
00
7E
42
C3
FF
80
C3
43
7E
ENDCHAR
STARTCHAR 045B
ENCODING 1115
SWIDTH 1000 0
DWIDTH 14 0
BBX 8 12 3 -1
BITMAP
30
30
60
FE
63
41
43
C2
C2
82
82
86
ENDCHAR
STARTCHAR 1EBC
ENCODING 7868
SWIDTH 714 0
DWIDTH 10 0
BBX 8 14 1 0
BITMAP
30
4C
00
FF
80
80
80
80
FF
80
80
80
80
FF
ENDCHAR
STARTCHAR 1EBD
ENCODING 7869
SWIDTH 642 0
DWIDTH 9 0
BBX 7 11 1 0
BITMAP
78
00
7C
C6
82
82
FE
80
82
C6
7C
ENDCHAR
STARTCHAR 2002
ENCODING 8194
SWIDTH 500 0
DWIDTH 7 0
BBX 0 0 0 0
BITMAP
ENDCHAR
STARTCHAR 2003
ENCODING 8195
SWIDTH 1000 0
DWIDTH 14 0
BBX 0 0 0 0
BITMAP
ENDCHAR
STARTCHAR 2010
ENCODING 8208
SWIDTH 1000 0
DWIDTH 14 0
BBX 4 1 5 4
BITMAP
F0
ENDCHAR
STARTCHAR 2011
ENCODING 8209
SWIDTH 285 0
DWIDTH 4 0
BBX 4 1 0 4
BITMAP
F0
ENDCHAR
STARTCHAR 2012
ENCODING 8210
SWIDTH 500 0
DWIDTH 7 0
BBX 7 1 0 4
BITMAP
FE
ENDCHAR
STARTCHAR 2013
ENCODING 8211
SWIDTH 500 0
DWIDTH 7 0
BBX 7 1 0 4
BITMAP
FE
ENDCHAR
STARTCHAR 2014
ENCODING 8212
SWIDTH 1000 0
DWIDTH 14 0
BBX 14 1 0 4
BITMAP
FFFC
ENDCHAR
STARTCHAR 2015
ENCODING 8213
SWIDTH 1000 0
DWIDTH 14 0
BBX 14 1 0 4
BITMAP
FFFC
ENDCHAR
STARTCHAR 2016
ENCODING 8214
SWIDTH 1000 0
DWIDTH 14 0
BBX 4 14 5 -2
BITMAP
90
90
90
90
90
90
90
90
90
90
90
90
90
90
ENDCHAR
STARTCHAR 2018
ENCODING 8216
SWIDTH 1000 0
DWIDTH 14 0
BBX 1 3 12 9
BITMAP
80
80
80
ENDCHAR
STARTCHAR 2019
ENCODING 8217
SWIDTH 1000 0
DWIDTH 14 0
BBX 1 3 1 9
BITMAP
80
80
80
ENDCHAR
STARTCHAR 201A
ENCODING 8218
SWIDTH 285 0
DWIDTH 4 0
BBX 2 4 1 -2
BITMAP
C0
C0
40
80
ENDCHAR
STARTCHAR 201C
ENCODING 8220
SWIDTH 1000 0
DWIDTH 14 0
BBX 4 3 9 9
BITMAP
50
D0
D0
ENDCHAR
STARTCHAR 201D
ENCODING 8221
SWIDTH 1000 0
DWIDTH 14 0
BBX 4 3 1 9
BITMAP
B0
B0
A0
ENDCHAR
STARTCHAR 201E
ENCODING 8222
SWIDTH 357 0
DWIDTH 5 0
BBX 3 4 1 -2
BITMAP
A0
A0
A0
A0
ENDCHAR
STARTCHAR 2020
ENCODING 8224
SWIDTH 1000 0
DWIDTH 14 0
BBX 8 14 3 -2
BITMAP
18
18
18
FF
18
18
18
18
18
18
18
18
18
18
ENDCHAR
STARTCHAR 2021
ENCODING 8225
SWIDTH 1000 0
DWIDTH 14 0
BBX 8 14 3 -2
BITMAP
18
18
18
FF
18
18
18
18
18
18
FF
18
18
18
ENDCHAR
STARTCHAR 2022
ENCODING 8226
SWIDTH 428 0
DWIDTH 6 0
BBX 4 4 1 4
BITMAP
60
F0
F0
60
ENDCHAR
STARTCHAR 2025
ENCODING 8229
SWIDTH 1000 0
DWIDTH 14 0
BBX 8 2 3 4
BITMAP
81
81
ENDCHAR
STARTCHAR 2026
ENCODING 8230
SWIDTH 1000 0
DWIDTH 14 0
BBX 10 2 2 4
BITMAP
8C40
8C40
ENDCHAR
STARTCHAR 2030
ENCODING 8240
SWIDTH 1000 0
DWIDTH 14 0
BBX 12 12 1 -1
BITMAP
E200
A200
A400
A400
A800
E800
1770
1550
2550
2550
4550
4770
ENDCHAR
STARTCHAR 2032
ENCODING 8242
SWIDTH 1000 0
DWIDTH 14 0
BBX 2 3 1 8
BITMAP
40
40
80
ENDCHAR
STARTCHAR 2033
ENCODING 8243
SWIDTH 1000 0
DWIDTH 14 0
BBX 4 3 1 8
BITMAP
50
D0
A0
ENDCHAR
STARTCHAR 2039
ENCODING 8249
SWIDTH 285 0
DWIDTH 4 0
BBX 2 6 1 1
BITMAP
40
40
80
80
40
40
ENDCHAR
STARTCHAR 203A
ENCODING 8250
SWIDTH 285 0
DWIDTH 4 0
BBX 2 6 1 1
BITMAP
80
40
40
40
80
80
ENDCHAR
STARTCHAR 203B
ENCODING 8251
SWIDTH 1000 0
DWIDTH 14 0
BBX 10 10 2 0
BITMAP
8C40
4C80
2100
1200
CCC0
CCC0
1200
2100
4C80
8C40
ENDCHAR
STARTCHAR 203C
ENCODING 8252
SWIDTH 1000 0
DWIDTH 14 0
BBX 4 12 5 -1
BITMAP
90
90
90
90
90
90
90
90
90
00
90
90
ENDCHAR
STARTCHAR 203E
ENCODING 8254
SWIDTH 500 0
DWIDTH 7 0
BBX 7 1 0 12
BITMAP
FE
ENDCHAR
STARTCHAR 2044
ENCODING 8260
SWIDTH 71 0
DWIDTH 1 0
BBX 8 11 -4 0
BITMAP
01
01
02
04
08
08
10
20
20
40
80
ENDCHAR
STARTCHAR 2049
ENCODING 8265
SWIDTH 1000 0
DWIDTH 14 0
BBX 9 12 3 -1
BITMAP
9F00
B180
A080
A080
8080
8180
8600
8400
8C00
0000
8C00
8C00
ENDCHAR
STARTCHAR 2070
ENCODING 8304
SWIDTH 428 0
DWIDTH 6 0
BBX 4 6 1 5
BITMAP
F0
90
90
90
90
F0
ENDCHAR
STARTCHAR 2074
ENCODING 8308
SWIDTH 428 0
DWIDTH 6 0
BBX 5 6 1 5
BITMAP
30
50
50
90
F8
10
ENDCHAR
STARTCHAR 2075
ENCODING 8309
SWIDTH 428 0
DWIDTH 6 0
BBX 4 6 1 5
BITMAP
F0
80
F0
10
90
F0
ENDCHAR
STARTCHAR 2076
ENCODING 8310
SWIDTH 428 0
DWIDTH 6 0
BBX 4 6 1 5
BITMAP
F0
80
F0
90
90
70
ENDCHAR
STARTCHAR 2077
ENCODING 8311
SWIDTH 428 0
DWIDTH 6 0
BBX 4 6 1 5
BITMAP
F0
10
30
20
40
40
ENDCHAR
STARTCHAR 2078
ENCODING 8312
SWIDTH 428 0
DWIDTH 6 0
BBX 4 6 1 5
BITMAP
F0
90
70
90
90
F0
ENDCHAR
STARTCHAR 2079
ENCODING 8313
SWIDTH 428 0
DWIDTH 6 0
BBX 4 6 1 5
BITMAP
F0
90
90
F0
90
F0
ENDCHAR
STARTCHAR 2080
ENCODING 8320
SWIDTH 428 0
DWIDTH 6 0
BBX 4 6 1 0
BITMAP
F0
90
90
90
90
F0
ENDCHAR
STARTCHAR 2081
ENCODING 8321
SWIDTH 428 0
DWIDTH 6 0
BBX 2 6 2 0
BITMAP
C0
40
40
40
40
40
ENDCHAR
STARTCHAR 2082
ENCODING 8322
SWIDTH 428 0
DWIDTH 6 0
BBX 4 6 1 0
BITMAP
F0
90
10
E0
80
F0
ENDCHAR
STARTCHAR 2083
ENCODING 8323
SWIDTH 428 0
DWIDTH 6 0
BBX 4 6 1 0
BITMAP
F0
90
30
10
90
F0
ENDCHAR
STARTCHAR 2084
ENCODING 8324
SWIDTH 428 0
DWIDTH 6 0
BBX 5 6 1 0
BITMAP
30
50
50
90
F8
10
ENDCHAR
STARTCHAR 2085
ENCODING 8325
SWIDTH 428 0
DWIDTH 6 0
BBX 4 6 1 0
BITMAP
F0
80
F0
10
90
F0
ENDCHAR
STARTCHAR 2086
ENCODING 8326
SWIDTH 428 0
DWIDTH 6 0
BBX 4 6 1 0
BITMAP
F0
90
F0
90
90
F0
ENDCHAR
STARTCHAR 2087
ENCODING 8327
SWIDTH 428 0
DWIDTH 6 0
BBX 4 6 1 0
BITMAP
F0
10
30
20
60
40
ENDCHAR
STARTCHAR 2088
ENCODING 8328
SWIDTH 428 0
DWIDTH 6 0
BBX 4 6 1 0
BITMAP
F0
90
70
90
90
F0
ENDCHAR
STARTCHAR 2089
ENCODING 8329
SWIDTH 428 0
DWIDTH 6 0
BBX 4 6 1 0
BITMAP
F0
90
90
F0
90
F0
ENDCHAR
STARTCHAR 20AC
ENCODING 8364
SWIDTH 785 0
DWIDTH 11 0
BBX 10 11 0 0
BITMAP
1F80
30C0
2040
2040
FF00
6000
FF00
2040
2040
30C0
1F80
ENDCHAR
STARTCHAR 20DD
ENCODING 8413
SWIDTH 1000 0
DWIDTH 14 0
BBX 14 14 0 -2
BITMAP
0780
1860
2010
4008
8008
8008
8004
8004
8008
8008
4008
2010
1020
0FC0
ENDCHAR
STARTCHAR 2100
ENCODING 8448
SWIDTH 1000 0
DWIDTH 14 0
BBX 12 13 1 -1
BITMAP
7010
8820
0840
F880
8900
8A00
FC00
09E0
0910
1200
2200
4110
81E0
ENDCHAR
STARTCHAR 2103
ENCODING 8451
SWIDTH 1000 0
DWIDTH 14 0
BBX 12 13 0 -1
BITMAP
E000
A7E0
6C30
0830
1810
1800
1800
1800
1800
1810
0830
0C20
07C0
ENDCHAR
STARTCHAR 2105
ENCODING 8453
SWIDTH 1000 0
DWIDTH 14 0
BBX 12 13 1 -1
BITMAP
7810
4820
8440
8080
8500
4A00
7C00
09E0
0A10
1210
2210
4210
81E0
ENDCHAR
STARTCHAR 2109
ENCODING 8457
SWIDTH 1000 0
DWIDTH 14 0
BBX 11 13 0 -1
BITMAP
E000
AFE0
6800
0800
0800
0800
0FE0
0800
0800
0800
0800
0800
0800
ENDCHAR
STARTCHAR 210A
ENCODING 8458
SWIDTH 1000 0
DWIDTH 14 0
BBX 8 11 3 -3
BITMAP
7D
42
43
42
FE
80
FE
81
81
E7
3C
ENDCHAR
STARTCHAR 210F
ENCODING 8463
SWIDTH 1000 0
DWIDTH 14 0
BBX 8 12 3 -1
BITMAP
30
30
60
FE
63
41
43
C2
C2
82
82
86
ENDCHAR
STARTCHAR 2113
ENCODING 8467
SWIDTH 1000 0
DWIDTH 14 0
BBX 7 12 3 -1
BITMAP
3C
26
66
66
66
64
6C
78
70
E2
26
3C
ENDCHAR
STARTCHAR 2116
ENCODING 8470
SWIDTH 1000 0
DWIDTH 14 0
BBX 13 12 1 -1
BITMAP
C800
C800
C800
A9E0
AB20
AA30
AA30
9A30
9A30
9A20
9B28
89E0
ENDCHAR
STARTCHAR 2121
ENCODING 8481
SWIDTH 1000 0
DWIDTH 14 0
BBX 14 12 0 -1
BITMAP
F800
2000
2000
27A0
2420
2420
2420
27A0
2420
2420
2420
27BC
ENDCHAR
STARTCHAR 2122
ENCODING 8482
SWIDTH 857 0
DWIDTH 12 0
BBX 12 6 0 5
BITMAP
FB30
2350
2350
2350
22D0
2290
ENDCHAR
STARTCHAR 2126
ENCODING 8486
SWIDTH 785 0
DWIDTH 11 0
BBX 10 11 1 0
BITMAP
3F00
6180
C080
8080
8080
8080
8080
8080
C080
6300
F3C0
ENDCHAR
STARTCHAR 212B
ENCODING 8491
SWIDTH 1000 0
DWIDTH 14 0
BBX 10 16 2 -1
BITMAP
0C00
1400
0C00
0000
0C00
0C00
1E00
1200
1200
3300
2100
2100
7F80
4080
4080
C0C0
ENDCHAR
STARTCHAR 2135
ENCODING 8501
SWIDTH 1000 0
DWIDTH 14 0
BBX 10 12 2 -1
BITMAP
4380
6300
3200
1200
7E00
4E00
4600
4300
4100
6180
20C0
E040
ENDCHAR
STARTCHAR 2153
ENCODING 8531
SWIDTH 928 0
DWIDTH 13 0
BBX 11 11 1 0
BITMAP
C080
4100
4100
4200
4400
49C0
0A20
10C0
2020
2220
41E0
ENDCHAR
STARTCHAR 2154
ENCODING 8532
SWIDTH 928 0
DWIDTH 13 0
BBX 11 11 1 0
BITMAP
F080
9080
1100
E200
8200
F5E0
0920
1060
1020
2120
41E0
ENDCHAR
STARTCHAR 215B
ENCODING 8539
SWIDTH 928 0
DWIDTH 13 0
BBX 10 11 2 0
BITMAP
C100
4100
4200
4400
4400
4BC0
1240
21C0
2240
4240
83C0
ENDCHAR
STARTCHAR 215C
ENCODING 8540
SWIDTH 928 0
DWIDTH 13 0
BBX 11 11 1 0
BITMAP
F080
9080
3100
1200
9200
F5E0
0920
10E0
1120
2120
41E0
ENDCHAR
STARTCHAR 215D
ENCODING 8541
SWIDTH 928 0
DWIDTH 13 0
BBX 11 11 1 0
BITMAP
F080
8080
F100
1200
9200
F5E0
0920
10E0
1120
2120
41E0
ENDCHAR
STARTCHAR 215E
ENCODING 8542
SWIDTH 928 0
DWIDTH 13 0
BBX 11 11 1 0
BITMAP
F080
1080
2100
2200
4200
45E0
0920
10E0
1120
2120
41E0
ENDCHAR
STARTCHAR 2160
ENCODING 8544
SWIDTH 1000 0
DWIDTH 14 0
BBX 4 12 5 -1
BITMAP
F0
60
60
60
60
60
60
60
60
60
60
F0
ENDCHAR
STARTCHAR 2161
ENCODING 8545
SWIDTH 1000 0
DWIDTH 14 0
BBX 8 12 3 -1
BITMAP
FF
66
66
66
66
66
66
66
66
66
66
FF
ENDCHAR
STARTCHAR 2162
ENCODING 8546
SWIDTH 1000 0
DWIDTH 14 0
BBX 10 12 2 -1
BITMAP
FFC0
6D80
6D80
6D80
6D80
6D80
6D80
6D80
6D80
6D80
6D80
FFC0
ENDCHAR
STARTCHAR 2163
ENCODING 8547
SWIDTH 1000 0
DWIDTH 14 0
BBX 12 12 1 -1
BITMAP
FCF0
5860
4860
4840
4C40
4CC0
4480
4480
4680
4380
4300
E300
ENDCHAR
STARTCHAR 2164
ENCODING 8548
SWIDTH 1000 0
DWIDTH 14 0
BBX 12 12 1 -1
BITMAP
F0F0
2040
2040
30C0
1080
1080
1980
0900
0900
0F00
0600
0600
ENDCHAR
STARTCHAR 2165
ENCODING 8549
SWIDTH 1000 0
DWIDTH 14 0
BBX 12 12 1 -1
BITMAP
F3F0
61A0
6120
2120
2320
3320
1220
1220
1620
1C20
0C20
0C70
ENDCHAR
STARTCHAR 2166
ENCODING 8550
SWIDTH 1000 0
DWIDTH 14 0
BBX 14 12 0 -1
BITMAP
F3FC
6158
2358
2358
2258
3258
1258
1658
1458
1458
1C58
0CFC
ENDCHAR
STARTCHAR 2167
ENCODING 8551
SWIDTH 1000 0
DWIDTH 14 0
BBX 14 12 0 -1
BITMAP
E7FC
42A8
42A8
66A8
24A8
24A8
24A8
24A8
3CA8
18A8
18A8
19FC
ENDCHAR
STARTCHAR 2168
ENCODING 8552
SWIDTH 1000 0
DWIDTH 14 0
BBX 12 12 1 -1
BITMAP
FCF0
6C40
64C0
6680
6380
6300
6300
6680
64C0
6C40
6860
FCF0
ENDCHAR
STARTCHAR 2169
ENCODING 8553
SWIDTH 1000 0
DWIDTH 14 0
BBX 10 12 2 -1
BITMAP
F3C0
2100
3300
1200
1E00
0C00
0C00
1200
3300
2100
6180
F3C0
ENDCHAR
STARTCHAR 216A
ENCODING 8554
SWIDTH 1000 0
DWIDTH 14 0
BBX 12 12 1 -1
BITMAP
F3F0
2360
3260
1660
1C60
0C60
0C60
1660
3260
2360
6160
F3F0
ENDCHAR
STARTCHAR 216B
ENCODING 8555
SWIDTH 1000 0
DWIDTH 14 0
BBX 14 12 0 -1
BITMAP
73FC
2358
3258
1658
1C58
0C58
0C58
1458
1658
2258
2158
F3FC
ENDCHAR
STARTCHAR 2170
ENCODING 8560
SWIDTH 1000 0
DWIDTH 14 0
BBX 2 12 6 -1
BITMAP
C0
00
00
C0
C0
C0
C0
C0
C0
C0
C0
C0
ENDCHAR
STARTCHAR 2171
ENCODING 8561
SWIDTH 1000 0
DWIDTH 14 0
BBX 6 12 4 -1
BITMAP
CC
00
00
48
48
48
48
48
48
48
48
48
ENDCHAR
STARTCHAR 2172
ENCODING 8562
SWIDTH 1000 0
DWIDTH 14 0
BBX 8 12 3 -1
BITMAP
DB
00
00
5A
5A
5A
5A
5A
5A
5A
5A
5A
ENDCHAR
STARTCHAR 2173
ENCODING 8563
SWIDTH 1000 0
DWIDTH 14 0
BBX 9 12 3 -1
BITMAP
8000
0000
0000
B180
9100
9100
9100
9B00
8A00
8A00
8A00
8600
ENDCHAR
STARTCHAR 2174
ENCODING 8564
SWIDTH 1000 0
DWIDTH 14 0
BBX 8 8 3 0
BITMAP
C3
42
66
24
24
24
18
18
ENDCHAR
STARTCHAR 2175
ENCODING 8565
SWIDTH 1000 0
DWIDTH 14 0
BBX 9 12 2 -1
BITMAP
0080
0000
0000
C680
4480
4480
4480
6C80
2880
2880
2880
3080
ENDCHAR
STARTCHAR 2176
ENCODING 8566
SWIDTH 1000 0
DWIDTH 14 0
BBX 10 12 2 -1
BITMAP
03C0
0000
0000
8AC0
8AC0
8AC0
DAC0
52C0
52C0
52C0
52C0
22C0
ENDCHAR
STARTCHAR 2177
ENCODING 8567
SWIDTH 1000 0
DWIDTH 14 0
BBX 11 12 1 -1
BITMAP
02A0
0000
0000
CEA0
4AA0
4AA0
4AA0
6AA0
3AA0
32A0
32A0
32A0
ENDCHAR
STARTCHAR 2178
ENCODING 8568
SWIDTH 1000 0
DWIDTH 14 0
BBX 9 12 3 -1
BITMAP
8000
0000
0000
9100
9300
8A00
8E00
8E00
8A00
9B00
9100
B180
ENDCHAR
STARTCHAR 2179
ENCODING 8569
SWIDTH 1000 0
DWIDTH 14 0
BBX 6 8 4 0
BITMAP
84
48
78
30
30
48
CC
84
ENDCHAR
STARTCHAR 217A
ENCODING 8570
SWIDTH 1000 0
DWIDTH 14 0
BBX 9 12 2 -1
BITMAP
0080
0000
0000
4480
6480
2880
3880
3880
2880
6C80
4480
C680
ENDCHAR
STARTCHAR 217B
ENCODING 8571
SWIDTH 1000 0
DWIDTH 14 0
BBX 11 12 1 -1
BITMAP
01E0
0000
0000
45A0
6DA0
29A0
39A0
39A0
29A0
6DA0
45A0
C7A0
ENDCHAR
STARTCHAR 217F
ENCODING 8575
SWIDTH 1000 0
DWIDTH 14 0
BBX 12 9 1 -1
BITMAP
FDE0
C630
C630
C630
C630
C630
C630
C630
C630
ENDCHAR
STARTCHAR 2190
ENCODING 8592
SWIDTH 1000 0
DWIDTH 14 0
BBX 12 5 1 2
BITMAP
3000
7000
FFF0
7000
1000
ENDCHAR
STARTCHAR 2191
ENCODING 8593
SWIDTH 1000 0
DWIDTH 14 0
BBX 4 12 5 0
BITMAP
60
60
F0
40
40
40
40
40
40
40
40
40
ENDCHAR
STARTCHAR 2192
ENCODING 8594
SWIDTH 1000 0
DWIDTH 14 0
BBX 12 5 1 2
BITMAP
00C0
00E0
FFF0
00E0
0080
ENDCHAR
STARTCHAR 2193
ENCODING 8595
SWIDTH 1000 0
DWIDTH 14 0
BBX 4 12 5 -2
BITMAP
40
40
40
40
40
40
40
40
40
F0
60
60
ENDCHAR
STARTCHAR 2194
ENCODING 8596
SWIDTH 1000 0
DWIDTH 14 0
BBX 12 4 1 3
BITMAP
2040
C030
7FE0
30C0
ENDCHAR
STARTCHAR 2195
ENCODING 8597
SWIDTH 1000 0
DWIDTH 14 0
BBX 4 12 5 -2
BITMAP
40
60
60
F0
40
40
40
40
40
F0
60
60
ENDCHAR
STARTCHAR 2196
ENCODING 8598
SWIDTH 1000 0
DWIDTH 14 0
BBX 8 9 3 0
BITMAP
80
F0
C0
20
10
08
04
02
01
ENDCHAR
STARTCHAR 2197
ENCODING 8599
SWIDTH 1000 0
DWIDTH 14 0
BBX 9 9 2 0
BITMAP
0080
0780
0380
0400
0800
1000
2000
4000
8000
ENDCHAR
STARTCHAR 2198
ENCODING 8600
SWIDTH 1000 0
DWIDTH 14 0
BBX 9 9 2 1
BITMAP
8000
4000
2000
1000
0800
0400
0280
0580
0380
ENDCHAR
STARTCHAR 2199
ENCODING 8601
SWIDTH 1000 0
DWIDTH 14 0
BBX 8 9 3 1
BITMAP
01
02
04
08
10
20
C0
90
E0
ENDCHAR
STARTCHAR 21C4
ENCODING 8644
SWIDTH 1000 0
DWIDTH 14 0
BBX 12 10 1 0
BITMAP
0080
0060
7FD0
0060
0000
0000
2000
C000
7FE0
3000
ENDCHAR
STARTCHAR 21C5
ENCODING 8645
SWIDTH 1000 0
DWIDTH 14 0
BBX 9 13 2 -2
BITMAP
2100
2100
7100
B100
2100
2100
2100
2100
2100
2580
2380
2100
2100
ENDCHAR
STARTCHAR 21C6
ENCODING 8646
SWIDTH 1000 0
DWIDTH 14 0
BBX 12 10 1 0
BITMAP
1000
6000
BFE0
6000
1000
0000
0040
0030
7FE0
00C0
ENDCHAR
STARTCHAR 21CC
ENCODING 8652
SWIDTH 1000 0
DWIDTH 14 0
BBX 10 9 2 0
BITMAP
0100
0080
FF40
0000
0000
0000
0000
FFC0
6000
ENDCHAR
STARTCHAR 21D0
ENCODING 8656
SWIDTH 1000 0
DWIDTH 14 0
BBX 13 9 1 1
BITMAP
1000
1000
2000
7FF8
8000
8000
7FF8
2000
1000
ENDCHAR
STARTCHAR 21D2
ENCODING 8658
SWIDTH 1000 0
DWIDTH 14 0
BBX 13 8 0 2
BITMAP
0040
0020
FFF0
0008
0008
FFF0
0020
0040
ENDCHAR
STARTCHAR 21D4
ENCODING 8660
SWIDTH 1000 0
DWIDTH 14 0
BBX 12 9 1 1
BITMAP
1080
30C0
6060
7FE0
8010
8010
7FE0
2040
1080
ENDCHAR
STARTCHAR 21E6
ENCODING 8678
SWIDTH 1000 0
DWIDTH 14 0
BBX 12 12 1 -1
BITMAP
0800
1800
1800
2FF0
4010
8010
8010
4010
27F0
2800
1800
0800
ENDCHAR
STARTCHAR 21E7
ENCODING 8679
SWIDTH 1000 0
DWIDTH 14 0
BBX 11 13 1 -1
BITMAP
0E00
1100
2080
4040
F0E0
1100
1100
1100
1100
1100
1100
1100
0F00
ENDCHAR
STARTCHAR 21E8
ENCODING 8680
SWIDTH 1000 0
DWIDTH 14 0
BBX 12 12 1 -1
BITMAP
0200
0300
0280
FE40
8020
8010
8010
8020
FE40
0280
0300
0200
ENDCHAR
STARTCHAR 21E9
ENCODING 8681
SWIDTH 1000 0
DWIDTH 14 0
BBX 10 14 2 -2
BITMAP
1E00
2200
2200
2200
2200
2200
2200
2200
E1C0
8080
4100
2200
1400
0800
ENDCHAR
STARTCHAR 2200
ENCODING 8704
SWIDTH 1000 0
DWIDTH 14 0
BBX 8 10 3 0
BITMAP
81
81
42
7E
66
24
24
18
18
18
ENDCHAR
STARTCHAR 2202
ENCODING 8706
SWIDTH 1000 0
DWIDTH 14 0
BBX 8 12 3 -1
BITMAP
3E
61
41
01
3D
47
C3
82
82
86
8C
78
ENDCHAR
STARTCHAR 2203
ENCODING 8707
SWIDTH 1000 0
DWIDTH 14 0
BBX 6 10 4 0
BITMAP
FC
04
04
04
FC
04
04
04
04
FC
ENDCHAR
STARTCHAR 2205
ENCODING 8709
SWIDTH 1000 0
DWIDTH 14 0
BBX 8 8 3 1
BITMAP
3D
42
C7
89
91
E3
42
BC
ENDCHAR
STARTCHAR 2207
ENCODING 8711
SWIDTH 1000 0
DWIDTH 14 0
BBX 10 12 2 -1
BITMAP
FFC0
C080
4080
6180
2100
2100
3300
1200
1200
1E00
0C00
0C00
ENDCHAR
STARTCHAR 2208
ENCODING 8712
SWIDTH 1000 0
DWIDTH 14 0
BBX 10 8 2 1
BITMAP
3FC0
4000
8000
FFC0
8000
8000
4000
3FC0
ENDCHAR
STARTCHAR 220A
ENCODING 8714
SWIDTH 1000 0
DWIDTH 14 0
BBX 8 9 3 -1
BITMAP
3F
20
60
40
7C
40
C0
40
7C
ENDCHAR
STARTCHAR 220B
ENCODING 8715
SWIDTH 1000 0
DWIDTH 14 0
BBX 10 8 2 1
BITMAP
FF00
0080
0040
FFC0
0040
0040
0080
FF00
ENDCHAR
STARTCHAR 2211
ENCODING 8721
SWIDTH 1000 0
DWIDTH 14 0
BBX 10 12 2 -1
BITMAP
7F80
6000
3000
1800
0C00
0600
0C00
0800
1000
3000
6000
FFC0
ENDCHAR
STARTCHAR 2212
ENCODING 8722
SWIDTH 1000 0
DWIDTH 14 0
BBX 10 1 2 5
BITMAP
FFC0
ENDCHAR
STARTCHAR 2213
ENCODING 8723
SWIDTH 1000 0
DWIDTH 14 0
BBX 10 11 2 -1
BITMAP
FFC0
0000
0C00
0C00
0C00
0C00
FFC0
0C00
0C00
0C00
0C00
ENDCHAR
STARTCHAR 221A
ENCODING 8730
SWIDTH 1000 0
DWIDTH 14 0
BBX 14 15 0 -2
BITMAP
007C
0080
0080
0080
0100
0100
0200
0200
2200
6400
B400
3800
1800
1800
1000
ENDCHAR
STARTCHAR 221D
ENCODING 8733
SWIDTH 1000 0
DWIDTH 14 0
BBX 10 6 2 2
BITMAP
71C0
8A00
8600
8E00
8A00
71C0
ENDCHAR
STARTCHAR 221E
ENCODING 8734
SWIDTH 1000 0
DWIDTH 14 0
BBX 12 6 1 2
BITMAP
79E0
CF30
8610
8610
C930
70E0
ENDCHAR
STARTCHAR 221F
ENCODING 8735
SWIDTH 1000 0
DWIDTH 14 0
BBX 10 10 2 0
BITMAP
8000
8000
8000
8000
8000
8000
8000
8000
8000
FFC0
ENDCHAR
STARTCHAR 2220
ENCODING 8736
SWIDTH 1000 0
DWIDTH 14 0
BBX 10 11 2 1
BITMAP
0080
0100
0300
0600
0400
0800
1000
3000
6000
4000
FFC0
ENDCHAR
STARTCHAR 2225
ENCODING 8741
SWIDTH 1000 0
DWIDTH 14 0
BBX 4 14 5 -2
BITMAP
90
90
90
90
90
90
90
90
90
90
90
90
90
90
ENDCHAR
STARTCHAR 2227
ENCODING 8743
SWIDTH 1000 0
DWIDTH 14 0
BBX 10 11 2 0
BITMAP
0800
0C00
0C00
1200
1200
2100
2100
4080
4080
8040
8040
ENDCHAR
STARTCHAR 2228
ENCODING 8744
SWIDTH 1000 0
DWIDTH 14 0
BBX 10 10 2 -1
BITMAP
8040
8040
4080
4080
2100
2100
1200
1200
0C00
0C00
ENDCHAR
STARTCHAR 2229
ENCODING 8745
SWIDTH 1000 0
DWIDTH 14 0
BBX 8 10 3 0
BITMAP
3C
42
81
81
81
81
81
81
81
81
ENDCHAR
STARTCHAR 222A
ENCODING 8746
SWIDTH 1000 0
DWIDTH 14 0
BBX 8 10 3 0
BITMAP
81
81
81
81
81
81
81
81
42
3C
ENDCHAR
STARTCHAR 222B
ENCODING 8747
SWIDTH 1000 0
DWIDTH 14 0
BBX 6 14 4 -2
BITMAP
1C
30
30
30
30
30
30
30
30
30
30
30
30
E0
ENDCHAR
STARTCHAR 222C
ENCODING 8748
SWIDTH 1000 0
DWIDTH 14 0
BBX 10 14 2 -2
BITMAP
1DC0
3100
2100
2100
2100
2100
2100
2100
2100
2100
2100
2100
2300
EE00
ENDCHAR
STARTCHAR 222D
ENCODING 8749
SWIDTH 1000 0
DWIDTH 14 0
BBX 12 14 1 -2
BITMAP
3BB0
2660
2640
2640
2640
2640
2640
2640
2640
2640
2640
2640
6640
DDC0
ENDCHAR
STARTCHAR 222E
ENCODING 8750
SWIDTH 1000 0
DWIDTH 14 0
BBX 6 14 4 -2
BITMAP
1C
30
30
30
30
78
B8
B8
78
30
30
30
30
E0
ENDCHAR
STARTCHAR 2234
ENCODING 8756
SWIDTH 1000 0
DWIDTH 14 0
BBX 10 10 2 0
BITMAP
0C00
0C00
0000
0000
0000
0000
0000
0000
C0C0
C0C0
ENDCHAR
STARTCHAR 2235
ENCODING 8757
SWIDTH 1000 0
DWIDTH 14 0
BBX 10 10 2 0
BITMAP
C0C0
C0C0
0000
0000
0000
0000
0000
0000
0C00
0C00
ENDCHAR
STARTCHAR 223C
ENCODING 8764
SWIDTH 1000 0
DWIDTH 14 0
BBX 12 4 1 3
BITMAP
7800
CE10
8730
01E0
ENDCHAR
STARTCHAR 223D
ENCODING 8765
SWIDTH 1000 0
DWIDTH 14 0
BBX 12 6 1 2
BITMAP
71E0
C330
8210
8410
C830
70E0
ENDCHAR
STARTCHAR 2243
ENCODING 8771
SWIDTH 1000 0
DWIDTH 14 0
BBX 10 6 2 3
BITMAP
7800
CCC0
0780
0000
0000
FFC0
ENDCHAR
STARTCHAR 2252
ENCODING 8786
SWIDTH 1000 0
DWIDTH 14 0
BBX 10 11 2 0
BITMAP
3000
3000
0000
FFC0
0000
0000
0000
FFC0
0000
0300
0300
ENDCHAR
STARTCHAR 2260
ENCODING 8800
SWIDTH 1000 0
DWIDTH 14 0
BBX 10 11 2 0
BITMAP
0300
0200
0200
FFC0
0400
0C00
0800
FFC0
1000
1000
1000
ENDCHAR
STARTCHAR 2261
ENCODING 8801
SWIDTH 1000 0
DWIDTH 14 0
BBX 10 6 2 2
BITMAP
FFC0
0000
FFC0
0000
0000
FFC0
ENDCHAR
STARTCHAR 2266
ENCODING 8806
SWIDTH 1000 0
DWIDTH 14 0
BBX 10 12 2 -1
BITMAP
00C0
0380
1C00
6000
3800
0600
01C0
0000
FFC0
0000
0000
FFC0
ENDCHAR
STARTCHAR 2267
ENCODING 8807
SWIDTH 1000 0
DWIDTH 14 0
BBX 10 12 2 -1
BITMAP
C000
7000
0E00
0180
0700
1800
E000
0000
FFC0
0000
0000
FFC0
ENDCHAR
STARTCHAR 226A
ENCODING 8810
SWIDTH 1000 0
DWIDTH 14 0
BBX 10 11 2 0
BITMAP
0040
06C0
0980
3200
6400
D800
4C00
3600
1900
0CC0
0240
ENDCHAR
STARTCHAR 226B
ENCODING 8811
SWIDTH 1000 0
DWIDTH 14 0
BBX 10 11 2 0
BITMAP
8000
D800
6400
3300
0980
06C0
0C80
1B00
2600
CC00
9000
ENDCHAR
STARTCHAR 2272
ENCODING 8818
SWIDTH 1000 0
DWIDTH 14 0
BBX 10 11 2 0
BITMAP
00C0
0300
1C00
6000
3800
0700
01C0
0000
7800
CCC0
0780
ENDCHAR
STARTCHAR 2273
ENCODING 8819
SWIDTH 1000 0
DWIDTH 14 0
BBX 10 11 2 0
BITMAP
C000
3000
0E00
0180
0700
3800
E000
0000
7800
CCC0
0780
ENDCHAR
STARTCHAR 2282
ENCODING 8834
SWIDTH 1000 0
DWIDTH 14 0
BBX 10 8 2 1
BITMAP
3FC0
4000
8000
8000
8000
8000
4000
3FC0
ENDCHAR
STARTCHAR 2283
ENCODING 8835
SWIDTH 1000 0
DWIDTH 14 0
BBX 10 8 2 1
BITMAP
FF00
0080
0040
0040
0040
0040
0080
FF00
ENDCHAR
STARTCHAR 2286
ENCODING 8838
SWIDTH 1000 0
DWIDTH 14 0
BBX 10 10 2 0
BITMAP
7FC0
C000
8000
8000
8000
C000
7FC0
0000
0000
FFC0
ENDCHAR
STARTCHAR 2287
ENCODING 8839
SWIDTH 1000 0
DWIDTH 14 0
BBX 10 10 2 0
BITMAP
FF80
00C0
0040
0040
0040
00C0
FF80
0000
0000
FFC0
ENDCHAR
STARTCHAR 2295
ENCODING 8853
SWIDTH 1000 0
DWIDTH 14 0
BBX 12 12 1 -1
BITMAP
0F00
30C0
4440
4420
8420
8410
BFD0
8410
8420
4420
2040
1F80
ENDCHAR
STARTCHAR 2296
ENCODING 8854
SWIDTH 1000 0
DWIDTH 14 0
BBX 12 12 1 -1
BITMAP
0F00
30C0
4040
4020
8020
8010
BFD0
8010
8020
4020
2040
1F80
ENDCHAR
STARTCHAR 2297
ENCODING 8855
SWIDTH 1000 0
DWIDTH 14 0
BBX 12 12 1 -1
BITMAP
0F00
30C0
4020
90A0
8920
8610
8610
8920
90A0
4020
2040
1F80
ENDCHAR
STARTCHAR 2298
ENCODING 8856
SWIDTH 1000 0
DWIDTH 14 0
BBX 12 12 1 -1
BITMAP
0F00
30C0
4020
80A0
8120
8210
8410
8820
9020
4020
2040
1F80
ENDCHAR
STARTCHAR 229D
ENCODING 8861
SWIDTH 1000 0
DWIDTH 14 0
BBX 12 12 1 -1
BITMAP
0F00
30C0
4040
4020
8020
8010
BFD0
8010
8020
4020
2040
1F80
ENDCHAR
STARTCHAR 229E
ENCODING 8862
SWIDTH 1000 0
DWIDTH 14 0
BBX 12 14 1 -2
BITMAP
FFF0
8410
8410
8410
8410
8410
8410
FFF0
8410
8410
8410
8410
8410
FFF0
ENDCHAR
STARTCHAR 22A0
ENCODING 8864
SWIDTH 1000 0
DWIDTH 14 0
BBX 12 14 1 -2
BITMAP
FFF0
8010
A050
A050
9090
8910
8610
8610
8910
9090
A050
A050
8010
FFF0
ENDCHAR
STARTCHAR 22A5
ENCODING 8869
SWIDTH 1000 0
DWIDTH 14 0
BBX 10 11 2 0
BITMAP
0C00
0C00
0C00
0C00
0C00
0C00
0C00
0C00
0C00
0C00
FFC0
ENDCHAR
STARTCHAR 22BF
ENCODING 8895
SWIDTH 1000 0
DWIDTH 14 0
BBX 10 11 2 0
BITMAP
0040
00C0
01C0
0340
0240
0440
0840
1040
2040
4040
FFC0
ENDCHAR
STARTCHAR 22EE
ENCODING 8942
SWIDTH 1000 0
DWIDTH 14 0
BBX 2 12 6 -1
BITMAP
C0
C0
00
00
00
C0
C0
00
00
00
C0
C0
ENDCHAR
STARTCHAR 22EF
ENCODING 8943
SWIDTH 1000 0
DWIDTH 14 0
BBX 10 2 2 4
BITMAP
8C40
8C40
ENDCHAR
STARTCHAR 2300
ENCODING 8960
SWIDTH 1000 0
DWIDTH 14 0
BBX 8 8 3 1
BITMAP
3D
42
C7
89
91
E3
42
BC
ENDCHAR
STARTCHAR 2307
ENCODING 8967
SWIDTH 1000 0
DWIDTH 14 0
BBX 4 14 5 -2
BITMAP
80
40
20
10
20
40
80
80
40
20
10
20
40
80
ENDCHAR
STARTCHAR 2312
ENCODING 8978
SWIDTH 1000 0
DWIDTH 14 0
BBX 14 4 0 8
BITMAP
0FC0
3030
4008
8004
ENDCHAR
STARTCHAR 244A
ENCODING 9290
SWIDTH 1000 0
DWIDTH 14 0
BBX 12 12 1 0
BITMAP
0080
0100
0210
0420
0840
1080
2100
4200
8400
0800
1000
2000
ENDCHAR
STARTCHAR 2460
ENCODING 9312
SWIDTH 1000 0
DWIDTH 14 0
BBX 14 14 0 -2
BITMAP
0780
1860
2010
4708
8108
8108
8104
8104
8104
8108
4108
2010
1020
0FC0
ENDCHAR
STARTCHAR 2461
ENCODING 9313
SWIDTH 1000 0
DWIDTH 14 0
BBX 14 14 0 -2
BITMAP
0780
1860
2010
4788
8488
8488
8084
8304
8408
8408
4788
2010
1020
0FC0
ENDCHAR
STARTCHAR 2462
ENCODING 9314
SWIDTH 1000 0
DWIDTH 14 0
BBX 14 14 0 -2
BITMAP
0780
1860
2010
4788
8488
8084
8304
8084
8488
8488
4788
2010
1020
0FC0
ENDCHAR
STARTCHAR 2463
ENCODING 9315
SWIDTH 1000 0
DWIDTH 14 0
BBX 14 14 0 -2
BITMAP
0780
1860
2010
4108
8308
8308
8504
8504
8F88
8108
4108
2010
1020
0FC0
ENDCHAR
STARTCHAR 2464
ENCODING 9316
SWIDTH 1000 0
DWIDTH 14 0
BBX 14 14 0 -2
BITMAP
0780
1860
2010
4788
8408
8408
8784
8484
8084
8488
4788
2010
1020
0FC0
ENDCHAR
STARTCHAR 2465
ENCODING 9317
SWIDTH 1000 0
DWIDTH 14 0
BBX 14 14 0 -2
BITMAP
0FC0
1020
6310
4488
8488
8404
8784
8484
8484
8488
4488
4310
3020
0FC0
ENDCHAR
STARTCHAR 2466
ENCODING 9318
SWIDTH 1000 0
DWIDTH 14 0
BBX 14 14 0 -2
BITMAP
0780
1860
2010
4788
8088
8088
8104
8104
8104
8208
4208
2010
1020
0FC0
ENDCHAR
STARTCHAR 2467
ENCODING 9319
SWIDTH 1000 0
DWIDTH 14 0
BBX 14 14 0 -2
BITMAP
0780
1860
2010
4788
8488
8484
8304
8484
8488
8488
4788
2010
1020
0FC0
ENDCHAR
STARTCHAR 2468
ENCODING 9320
SWIDTH 1000 0
DWIDTH 14 0
BBX 14 14 0 -2
BITMAP
0FC0
1020
6310
4488
8488
8484
8484
8784
8084
8488
4488
4310
3020
0FC0
ENDCHAR
STARTCHAR 2469
ENCODING 9321
SWIDTH 1000 0
DWIDTH 14 0
BBX 14 14 0 -2
BITMAP
0780
1860
2010
59E8
8928
8928
8924
8924
8928
8928
49E8
2010
1020
0FC0
ENDCHAR
STARTCHAR 246A
ENCODING 9322
SWIDTH 1000 0
DWIDTH 14 0
BBX 14 14 0 -2
BITMAP
0780
1860
2010
58C8
8848
8848
8844
8844
8844
8848
4848
2010
1020
0FC0
ENDCHAR
STARTCHAR 246B
ENCODING 9323
SWIDTH 1000 0
DWIDTH 14 0
BBX 14 14 0 -2
BITMAP
0780
1860
2010
59E8
8928
8928
8824
88C4
8908
8908
49E8
2010
1020
0FC0
ENDCHAR
STARTCHAR 246C
ENCODING 9324
SWIDTH 1000 0
DWIDTH 14 0
BBX 14 14 0 -2
BITMAP
0780
1860
2010
59E8
8928
8824
88C4
8824
8928
8928
49E8
2010
1020
0FC0
ENDCHAR
STARTCHAR 246D
ENCODING 9325
SWIDTH 1000 0
DWIDTH 14 0
BBX 14 14 0 -2
BITMAP
0780
1860
2010
5868
88A8
88A8
8924
8924
89E8
8828
4828
2010
1020
0FC0
ENDCHAR
STARTCHAR 246E
ENCODING 9326
SWIDTH 1000 0
DWIDTH 14 0
BBX 14 14 0 -2
BITMAP
0780
1860
2010
59E8
8908
8908
89E4
8924
8824
8928
49E8
2010
1020
0FC0
ENDCHAR
STARTCHAR 246F
ENCODING 9327
SWIDTH 1000 0
DWIDTH 14 0
BBX 14 14 0 -2
BITMAP
0780
1860
2010
59E8
8928
8908
89E4
8924
8928
8928
49E8
2010
1020
0FC0
ENDCHAR
STARTCHAR 2470
ENCODING 9328
SWIDTH 1000 0
DWIDTH 14 0
BBX 14 14 0 -2
BITMAP
0780
1860
2010
59E8
8828
8828
8844
8844
8844
8888
4888
2010
1020
0FC0
ENDCHAR
STARTCHAR 2471
ENCODING 9329
SWIDTH 1000 0
DWIDTH 14 0
BBX 14 14 0 -2
BITMAP
0780
1860
2010
59E8
8928
8924
88C4
8924
8928
8928
49E8
2010
1020
0FC0
ENDCHAR
STARTCHAR 2472
ENCODING 9330
SWIDTH 1000 0
DWIDTH 14 0
BBX 14 14 0 -2
BITMAP
0780
1860
2010
59E8
8928
8928
8924
89E4
8828
8928
49E8
2010
1020
0FC0
ENDCHAR
STARTCHAR 2473
ENCODING 9331
SWIDTH 1000 0
DWIDTH 14 0
BBX 14 14 0 -2
BITMAP
0780
1860
2010
5CE8
A318
A318
8314
8D14
9118
A118
7EE8
2010
1020
0FC0
ENDCHAR
STARTCHAR 2474
ENCODING 9332
SWIDTH 1000 0
DWIDTH 14 0
BBX 14 14 0 -2
BITMAP
2010
4010
4708
8108
8108
8104
8104
8104
8104
8108
8108
4008
4010
2010
ENDCHAR
STARTCHAR 2475
ENCODING 9333
SWIDTH 1000 0
DWIDTH 14 0
BBX 14 14 0 -2
BITMAP
2010
4010
4788
8488
8488
8084
8084
8304
8404
8408
8408
4788
4010
2010
ENDCHAR
STARTCHAR 2476
ENCODING 9334
SWIDTH 1000 0
DWIDTH 14 0
BBX 14 14 0 -2
BITMAP
2010
4010
4788
8488
8488
8084
8304
8084
8084
8488
8488
4788
4010
2010
ENDCHAR
STARTCHAR 2477
ENCODING 9335
SWIDTH 1000 0
DWIDTH 14 0
BBX 14 14 0 -2
BITMAP
2010
4010
4008
4108
8308
8504
8504
8904
8F84
8108
4108
4008
4010
2010
ENDCHAR
STARTCHAR 2478
ENCODING 9336
SWIDTH 1000 0
DWIDTH 14 0
BBX 14 14 0 -2
BITMAP
2010
4010
4788
8408
8408
8784
8484
8084
8084
8488
8488
4788
4010
2010
ENDCHAR
STARTCHAR 2479
ENCODING 9337
SWIDTH 1000 0
DWIDTH 14 0
BBX 14 14 0 -2
BITMAP
2010
4010
4308
8488
8488
8404
8784
8484
8484
8488
8488
4788
4010
2010
ENDCHAR
STARTCHAR 247A
ENCODING 9338
SWIDTH 1000 0
DWIDTH 14 0
BBX 14 14 0 -2
BITMAP
2010
4010
4788
8088
8088
8084
8104
8104
8104
8208
8208
4008
4010
2010
ENDCHAR
STARTCHAR 247B
ENCODING 9339
SWIDTH 1000 0
DWIDTH 14 0
BBX 14 14 0 -2
BITMAP
2010
4010
4788
8488
8488
8484
8304
8484
8484
8488
8488
4788
4010
2010
ENDCHAR
STARTCHAR 247C
ENCODING 9340
SWIDTH 1000 0
DWIDTH 14 0
BBX 14 14 0 -2
BITMAP
2010
4010
4708
8488
8488
8484
8484
8784
8084
8488
8488
4708
4010
2010
ENDCHAR
STARTCHAR 247D
ENCODING 9341
SWIDTH 1000 0
DWIDTH 14 0
BBX 14 14 0 -2
BITMAP
2010
4010
40C8
9928
8928
8924
8924
8924
8924
8928
8928
48E8
4010
2010
ENDCHAR
STARTCHAR 247E
ENCODING 9342
SWIDTH 1000 0
DWIDTH 14 0
BBX 14 14 0 -2
BITMAP
2010
4010
4008
58C8
8848
8844
8844
8844
8844
8848
8848
4848
4010
2010
ENDCHAR
STARTCHAR 247F
ENCODING 9343
SWIDTH 1000 0
DWIDTH 14 0
BBX 14 14 0 -2
BITMAP
2010
4010
40E8
7928
8928
8824
8864
88C4
8904
8908
49E8
4008
4010
2010
ENDCHAR
STARTCHAR 2480
ENCODING 9344
SWIDTH 1000 0
DWIDTH 14 0
BBX 14 14 0 -2
BITMAP
2010
4010
40E8
B928
8928
8824
88C4
8824
8824
8928
8928
48E8
4010
2010
ENDCHAR
STARTCHAR 2481
ENCODING 9345
SWIDTH 1000 0
DWIDTH 14 0
BBX 14 14 0 -2
BITMAP
2010
4010
4008
B868
8868
88A4
8924
8924
89F4
8828
8828
4008
4010
2010
ENDCHAR
STARTCHAR 2482
ENCODING 9346
SWIDTH 1000 0
DWIDTH 14 0
BBX 14 14 0 -2
BITMAP
2010
4010
4008
79E8
8908
8904
89E4
8924
8824
8928
8928
48E8
4010
2010
ENDCHAR
STARTCHAR 2483
ENCODING 9347
SWIDTH 1000 0
DWIDTH 14 0
BBX 14 14 0 -2
BITMAP
2010
4010
40E8
7928
8928
8904
89E4
8924
8924
8928
8928
48E8
4010
2010
ENDCHAR
STARTCHAR 2484
ENCODING 9348
SWIDTH 1000 0
DWIDTH 14 0
BBX 14 14 0 -2
BITMAP
2010
4010
4008
79F8
8828
8824
8824
8844
8844
88C8
8888
4888
4010
2010
ENDCHAR
STARTCHAR 2485
ENCODING 9349
SWIDTH 1000 0
DWIDTH 14 0
BBX 14 14 0 -2
BITMAP
2010
4010
40E8
B928
8928
8924
88C4
8924
8924
8928
8928
48E8
4010
2010
ENDCHAR
STARTCHAR 2486
ENCODING 9350
SWIDTH 1000 0
DWIDTH 14 0
BBX 14 14 0 -2
BITMAP
2010
4010
40E8
B928
8928
8924
8924
89E4
8824
8928
8928
48E8
4010
2010
ENDCHAR
STARTCHAR 2487
ENCODING 9351
SWIDTH 1000 0
DWIDTH 14 0
BBX 14 14 0 -2
BITMAP
2010
4010
5CE8
A298
A318
8314
8514
9914
A114
A118
7E98
40E8
4010
2010
ENDCHAR
STARTCHAR 2488
ENCODING 9352
SWIDTH 1000 0
DWIDTH 14 0
BBX 8 12 5 -1
BITMAP
E0
20
20
20
20
20
20
20
20
20
21
21
ENDCHAR
STARTCHAR 2489
ENCODING 9353
SWIDTH 1000 0
DWIDTH 14 0
BBX 10 12 3 -1
BITMAP
7E00
C300
8100
8100
0100
0300
3E00
F000
8000
8000
8040
FF40
ENDCHAR
STARTCHAR 248A
ENCODING 9354
SWIDTH 1000 0
DWIDTH 14 0
BBX 10 12 3 -1
BITMAP
7E00
C300
8100
0100
0300
1E00
0300
0100
8100
8100
C340
7E40
ENDCHAR
STARTCHAR 248B
ENCODING 9355
SWIDTH 1000 0
DWIDTH 14 0
BBX 11 12 2 -1
BITMAP
0300
0500
0900
1900
3100
2100
4100
C100
FFC0
0100
0120
0120
ENDCHAR
STARTCHAR 248C
ENCODING 9356
SWIDTH 1000 0
DWIDTH 14 0
BBX 10 12 3 -1
BITMAP
FF00
8000
8000
8000
FE00
C300
0100
0100
8100
8100
C340
7E40
ENDCHAR
STARTCHAR 248D
ENCODING 9357
SWIDTH 1000 0
DWIDTH 14 0
BBX 10 12 3 -1
BITMAP
7E00
C300
8100
8000
BE00
C300
8100
8100
8100
8100
C340
7E40
ENDCHAR
STARTCHAR 248E
ENCODING 9358
SWIDTH 1000 0
DWIDTH 14 0
BBX 10 12 3 -1
BITMAP
FF80
0100
0300
0200
0600
0400
0C00
0800
1800
3000
3040
6040
ENDCHAR
STARTCHAR 248F
ENCODING 9359
SWIDTH 1000 0
DWIDTH 14 0
BBX 10 12 3 -1
BITMAP
7E00
C300
8100
8100
C300
7E00
C300
8100
8100
8100
C340
7E40
ENDCHAR
STARTCHAR 2490
ENCODING 9360
SWIDTH 1000 0
DWIDTH 14 0
BBX 10 12 3 -1
BITMAP
7E00
C300
8100
8100
8100
C300
7D00
0100
8100
8100
C340
7E40
ENDCHAR
STARTCHAR 249C
ENCODING 9372
SWIDTH 1000 0
DWIDTH 14 0
BBX 14 14 0 -2
BITMAP
2010
4010
4008
87C8
8848
8044
8FC4
8844
8844
88C8
8FC8
4008
4010
2010
ENDCHAR
STARTCHAR 249D
ENCODING 9373
SWIDTH 1000 0
DWIDTH 14 0
BBX 14 14 0 -2
BITMAP
2010
4010
4808
8808
8F88
8C44
8844
8864
8864
8868
8C48
4FC8
4010
2010
ENDCHAR
STARTCHAR 249E
ENCODING 9374
SWIDTH 1000 0
DWIDTH 14 0
BBX 14 14 0 -2
BITMAP
2010
4010
4008
8788
8848
8844
9804
9804
8844
8848
8788
4008
4010
2010
ENDCHAR
STARTCHAR 249F
ENCODING 9375
SWIDTH 1000 0
DWIDTH 14 0
BBX 14 14 0 -2
BITMAP
2010
4010
4048
8048
87C8
88C4
9844
9844
9844
9848
88C8
4FC8
4010
2010
ENDCHAR
STARTCHAR 24A0
ENCODING 9376
SWIDTH 1000 0
DWIDTH 14 0
BBX 14 14 0 -2
BITMAP
2010
4010
4008
8788
8848
8844
9FC4
9804
8844
8848
8788
4008
4010
2010
ENDCHAR
STARTCHAR 24A1
ENCODING 9377
SWIDTH 1000 0
DWIDTH 14 0
BBX 14 14 0 -2
BITMAP
2010
4010
4188
8308
8208
8784
8204
8204
8204
8208
8208
4208
4010
2010
ENDCHAR
STARTCHAR 24A2
ENCODING 9378
SWIDTH 1000 0
DWIDTH 14 0
BBX 14 14 0 -2
BITMAP
2010
4010
4FA8
8848
8848
8844
9FC4
9004
8FC4
9028
9068
4FC8
4010
2010
ENDCHAR
STARTCHAR 24A3
ENCODING 9379
SWIDTH 1000 0
DWIDTH 14 0
BBX 14 14 0 -2
BITMAP
2010
4010
4808
8808
8F88
8C44
8844
8844
8844
8848
8848
4848
4010
2010
ENDCHAR
STARTCHAR 24A4
ENCODING 9380
SWIDTH 1000 0
DWIDTH 14 0
BBX 14 14 0 -2
BITMAP
2010
4010
4308
8008
8008
8304
8304
8304
8304
8308
8308
4308
4010
2010
ENDCHAR
STARTCHAR 24A5
ENCODING 9381
SWIDTH 1000 0
DWIDTH 14 0
BBX 14 14 0 -2
BITMAP
2010
4010
4108
8008
8108
8104
8104
8104
8104
8108
8108
4108
4710
2010
ENDCHAR
STARTCHAR 24A6
ENCODING 9382
SWIDTH 1000 0
DWIDTH 14 0
BBX 14 13 0 -2
BITMAP
2010
4808
4808
8808
88C4
8984
8B04
8E04
8908
8988
48C8
4010
2010
ENDCHAR
STARTCHAR 24A7
ENCODING 9383
SWIDTH 1000 0
DWIDTH 14 0
BBX 14 13 0 -2
BITMAP
2010
4308
4308
8308
8304
8304
8304
8304
8308
8308
4308
4010
2010
ENDCHAR
STARTCHAR 24A8
ENCODING 9384
SWIDTH 1000 0
DWIDTH 14 0
BBX 14 14 0 -2
BITMAP
2010
4010
4008
AEE8
B338
A314
A314
A314
A314
A318
A318
4008
4010
2010
ENDCHAR
STARTCHAR 24A9
ENCODING 9385
SWIDTH 1000 0
DWIDTH 14 0
BBX 14 14 0 -2
BITMAP
2010
4010
4008
8BC8
8C48
8844
8844
8844
8844
8848
8848
4008
4010
2010
ENDCHAR
STARTCHAR 24AA
ENCODING 9386
SWIDTH 1000 0
DWIDTH 14 0
BBX 14 14 0 -2
BITMAP
2010
4010
4008
8788
8848
8844
8844
8844
8844
8848
8788
4008
4010
2010
ENDCHAR
STARTCHAR 24AB
ENCODING 9387
SWIDTH 1000 0
DWIDTH 14 0
BBX 14 14 0 -2
BITMAP
2010
4010
4BC8
8C48
8868
8864
8864
8864
8C44
8BC8
8808
4808
4010
2010
ENDCHAR
STARTCHAR 24AC
ENCODING 9388
SWIDTH 1000 0
DWIDTH 14 0
BBX 14 14 0 -2
BITMAP
2010
4010
4F48
88C8
9848
9844
9844
9844
88C4
8F48
8048
4048
4010
2010
ENDCHAR
STARTCHAR 24AD
ENCODING 9389
SWIDTH 1000 0
DWIDTH 14 0
BBX 14 14 0 -2
BITMAP
2010
4010
4008
83C8
8308
8204
8204
8204
8204
8208
8208
4008
4010
2010
ENDCHAR
STARTCHAR 24AE
ENCODING 9390
SWIDTH 1000 0
DWIDTH 14 0
BBX 14 14 0 -2
BITMAP
2010
4010
4008
8788
8848
8804
8F04
81C4
8844
8848
8FC8
4008
4010
2010
ENDCHAR
STARTCHAR 24AF
ENCODING 9391
SWIDTH 1000 0
DWIDTH 14 0
BBX 14 14 0 -2
BITMAP
2010
4010
4208
8208
8F88
8204
8204
8204
8204
8208
8208
4388
4010
2010
ENDCHAR
STARTCHAR 24B0
ENCODING 9392
SWIDTH 1000 0
DWIDTH 14 0
BBX 14 14 0 -2
BITMAP
2010
4010
4008
8848
8848
8844
8844
8844
8844
88C8
87C8
4008
4010
2010
ENDCHAR
STARTCHAR 24B1
ENCODING 9393
SWIDTH 1000 0
DWIDTH 14 0
BBX 14 14 0 -2
BITMAP
2010
4010
4008
8848
8848
8CC4
8484
8484
8784
8308
8308
4008
4010
2010
ENDCHAR
STARTCHAR 24B2
ENCODING 9394
SWIDTH 1000 0
DWIDTH 14 0
BBX 14 14 0 -2
BITMAP
2010
4010
4008
A318
A318
9324
94A4
94A4
94A4
9CE8
8CC8
4008
4010
2010
ENDCHAR
STARTCHAR 24B3
ENCODING 9395
SWIDTH 1000 0
DWIDTH 14 0
BBX 14 13 0 -2
BITMAP
2010
4008
4008
8CC8
8484
8304
8304
8784
8488
8848
4008
4010
2010
ENDCHAR
STARTCHAR 24B4
ENCODING 9396
SWIDTH 1000 0
DWIDTH 14 0
BBX 14 14 0 -2
BITMAP
2010
4010
4848
8848
8CC8
8484
8484
8384
8304
8308
8308
4E08
4010
2010
ENDCHAR
STARTCHAR 24B5
ENCODING 9397
SWIDTH 1000 0
DWIDTH 14 0
BBX 14 14 0 -2
BITMAP
2010
4010
4008
8FC8
80C8
8184
8104
8204
8604
8C08
8FC8
4008
4010
2010
ENDCHAR
STARTCHAR 24B6
ENCODING 9398
SWIDTH 1000 0
DWIDTH 14 0
BBX 14 14 0 -2
BITMAP
0FC0
1020
6310
4308
8788
8488
8484
8CC4
8FC4
9868
5028
4010
3020
0FC0
ENDCHAR
STARTCHAR 24B7
ENCODING 9399
SWIDTH 1000 0
DWIDTH 14 0
BBX 14 14 0 -2
BITMAP
0780
1860
2010
4FC8
8868
8844
8FC4
8864
8828
8828
4FC8
2010
1020
0FC0
ENDCHAR
STARTCHAR 24B8
ENCODING 9400
SWIDTH 1000 0
DWIDTH 14 0
BBX 14 14 0 -2
BITMAP
0780
1860
2010
47C8
8868
9828
9004
9004
9828
8868
47C8
2010
1020
0FC0
ENDCHAR
STARTCHAR 24B9
ENCODING 9401
SWIDTH 1000 0
DWIDTH 14 0
BBX 14 14 0 -2
BITMAP
0780
1860
2010
4FC8
8868
8828
8824
8824
8828
8828
4FC8
2010
1020
0FC0
ENDCHAR
STARTCHAR 24BA
ENCODING 9402
SWIDTH 1000 0
DWIDTH 14 0
BBX 14 14 0 -2
BITMAP
0780
1860
2010
4FC8
8808
8804
8FC4
8804
8808
8808
4FC8
2010
1020
0FC0
ENDCHAR
STARTCHAR 24BB
ENCODING 9403
SWIDTH 1000 0
DWIDTH 14 0
BBX 14 14 0 -2
BITMAP
0780
1860
2010
4FC8
8C08
8C08
8C04
8FC4
8C04
8C08
4C08
2C10
1020
0FC0
ENDCHAR
STARTCHAR 24BC
ENCODING 9404
SWIDTH 1000 0
DWIDTH 14 0
BBX 14 14 0 -2
BITMAP
0780
1860
2010
4FC8
8848
9028
9004
91E4
9028
9868
4FC8
2010
1020
0FC0
ENDCHAR
STARTCHAR 24BD
ENCODING 9405
SWIDTH 1000 0
DWIDTH 14 0
BBX 14 14 0 -2
BITMAP
0FC0
1020
6010
5028
9028
9024
9FE4
9024
9028
9028
5028
2010
1020
0FC0
ENDCHAR
STARTCHAR 24BE
ENCODING 9406
SWIDTH 1000 0
DWIDTH 14 0
BBX 14 14 0 -2
BITMAP
0780
1860
2010
4308
8308
8308
8304
8304
8308
8308
4308
2010
1020
0FC0
ENDCHAR
STARTCHAR 24BF
ENCODING 9407
SWIDTH 1000 0
DWIDTH 14 0
BBX 14 14 0 -2
BITMAP
0780
1860
2090
4088
8088
8084
8084
8084
9088
9888
4F88
2010
1020
0FC0
ENDCHAR
STARTCHAR 24C0
ENCODING 9408
SWIDTH 1000 0
DWIDTH 14 0
BBX 14 14 0 -2
BITMAP
0780
1860
2010
4C48
8C88
8D08
8E04
8E04
8D08
8C88
4C48
2030
1020
0FC0
ENDCHAR
STARTCHAR 24C1
ENCODING 9409
SWIDTH 1000 0
DWIDTH 14 0
BBX 14 14 0 -2
BITMAP
0780
1860
2410
4408
8408
8408
8404
8404
8404
8408
47C8
4010
3020
0FC0
ENDCHAR
STARTCHAR 24C2
ENCODING 9410
SWIDTH 1000 0
DWIDTH 14 0
BBX 14 14 0 -2
BITMAP
0FC0
1020
2010
5868
9868
9CE4
94A4
94A4
97A8
9328
5328
2010
1020
0FC0
ENDCHAR
STARTCHAR 24C3
ENCODING 9411
SWIDTH 1000 0
DWIDTH 14 0
BBX 14 14 0 -2
BITMAP
0780
1860
2010
4C48
8C48
8A48
8A44
8944
8948
88C8
48C8
2010
1020
0FC0
ENDCHAR
STARTCHAR 24C4
ENCODING 9412
SWIDTH 1000 0
DWIDTH 14 0
BBX 14 14 0 -2
BITMAP
0780
1860
2010
4788
8848
8848
9864
9864
8848
8848
4788
2010
1020
0FC0
ENDCHAR
STARTCHAR 24C5
ENCODING 9413
SWIDTH 1000 0
DWIDTH 14 0
BBX 14 14 0 -2
BITMAP
0780
1860
2010
4FC8
8828
8824
8824
8FC4
8808
8808
4808
2810
1020
0FC0
ENDCHAR
STARTCHAR 24C6
ENCODING 9414
SWIDTH 1000 0
DWIDTH 14 0
BBX 14 14 0 -2
BITMAP
0780
1860
2010
4788
8848
8848
9864
9864
8948
88C8
47E8
2010
1020
0FC0
ENDCHAR
STARTCHAR 24C7
ENCODING 9415
SWIDTH 1000 0
DWIDTH 14 0
BBX 14 14 0 -2
BITMAP
0780
1860
2010
4FC8
8848
8848
8844
8F84
8844
8848
4848
4050
3020
0FC0
ENDCHAR
STARTCHAR 24C8
ENCODING 9416
SWIDTH 1000 0
DWIDTH 14 0
BBX 14 14 0 -2
BITMAP
0780
1860
2010
4788
8848
8808
8F04
80C4
8848
8848
47C8
2010
1020
0FC0
ENDCHAR
STARTCHAR 24C9
ENCODING 9417
SWIDTH 1000 0
DWIDTH 14 0
BBX 14 14 0 -2
BITMAP
0FC0
1020
6010
4FC8
8308
8304
8304
8304
8308
8308
4308
2310
1020
0FC0
ENDCHAR
STARTCHAR 24CA
ENCODING 9418
SWIDTH 1000 0
DWIDTH 14 0
BBX 14 14 0 -2
BITMAP
0FC0
1020
6010
4848
8848
8844
8844
8844
8848
8848
4788
2010
1020
0FC0
ENDCHAR
STARTCHAR 24CB
ENCODING 9419
SWIDTH 1000 0
DWIDTH 14 0
BBX 14 14 0 -2
BITMAP
0780
1860
2010
5868
8848
8848
8CC4
8484
8488
8308
4308
2310
1020
0FC0
ENDCHAR
STARTCHAR 24CC
ENCODING 9420
SWIDTH 1000 0
DWIDTH 14 0
BBX 14 14 0 -2
BITMAP
0780
1860
2010
6318
B338
9328
9324
94A4
94A8
9CE8
4CC8
2CD0
1020
0FC0
ENDCHAR
STARTCHAR 24CD
ENCODING 9421
SWIDTH 1000 0
DWIDTH 14 0
BBX 14 14 0 -2
BITMAP
0780
1860
2010
4848
8488
8788
8304
8304
8488
8CC8
4848
2010
1020
0FC0
ENDCHAR
STARTCHAR 24CE
ENCODING 9422
SWIDTH 1000 0
DWIDTH 14 0
BBX 14 14 0 -2
BITMAP
0780
1860
2010
5868
8848
8488
8784
8304
8308
8308
4308
2310
1020
0FC0
ENDCHAR
STARTCHAR 24CF
ENCODING 9423
SWIDTH 1000 0
DWIDTH 14 0
BBX 14 14 0 -2
BITMAP
0780
1860
2010
4FC8
80C8
8188
8104
8204
8408
8808
4FC8
2010
1020
0FC0
ENDCHAR
STARTCHAR 24D0
ENCODING 9424
SWIDTH 1000 0
DWIDTH 14 0
BBX 14 14 0 -2
BITMAP
0780
1860
2010
4008
8788
8844
87C4
8844
8848
87C8
4008
2010
1020
0FC0
ENDCHAR
STARTCHAR 24D1
ENCODING 9425
SWIDTH 1000 0
DWIDTH 14 0
BBX 14 14 0 -2
BITMAP
0FC0
1020
6C10
4C08
8F88
8C44
8C44
8C44
8C48
8C48
4B88
2010
1020
0FC0
ENDCHAR
STARTCHAR 24D2
ENCODING 9426
SWIDTH 1000 0
DWIDTH 14 0
BBX 14 14 0 -2
BITMAP
0780
1860
2010
4008
8788
8848
8804
8804
8848
8788
4008
2010
1020
0FC0
ENDCHAR
STARTCHAR 24D3
ENCODING 9427
SWIDTH 1000 0
DWIDTH 14 0
BBX 14 14 0 -2
BITMAP
0FC0
1020
6090
4088
8788
8884
8884
8884
8888
8888
4788
2010
1020
0FC0
ENDCHAR
STARTCHAR 24D4
ENCODING 9428
SWIDTH 1000 0
DWIDTH 14 0
BBX 14 14 0 -2
BITMAP
0780
1860
2010
4008
8788
8844
8FC4
8804
8848
8788
4008
2010
1020
0FC0
ENDCHAR
STARTCHAR 24D5
ENCODING 9429
SWIDTH 1000 0
DWIDTH 14 0
BBX 14 14 0 -2
BITMAP
0780
1860
2010
4188
8208
8788
8204
8204
8208
8208
4208
2210
1020
0FC0
ENDCHAR
STARTCHAR 24D6
ENCODING 9430
SWIDTH 1000 0
DWIDTH 14 0
BBX 14 14 0 -2
BITMAP
0780
1860
2010
47E8
8848
8848
8F84
8804
8FC8
8848
4FC8
2010
1020
0FC0
ENDCHAR
STARTCHAR 24D7
ENCODING 9431
SWIDTH 1000 0
DWIDTH 14 0
BBX 14 14 0 -2
BITMAP
0780
1860
2010
4808
8808
8B88
8C44
8844
8844
8848
4848
4010
3020
0FC0
ENDCHAR
STARTCHAR 24D8
ENCODING 9432
SWIDTH 1000 0
DWIDTH 14 0
BBX 14 14 0 -2
BITMAP
0780
1860
2010
4308
8008
8308
8304
8304
8308
8308
4308
2010
1020
0FC0
ENDCHAR
STARTCHAR 24D9
ENCODING 9433
SWIDTH 1000 0
DWIDTH 14 0
BBX 14 14 0 -2
BITMAP
0FC0
1020
6110
4008
8108
8104
8104
8104
8108
8108
4108
2310
1020
0FC0
ENDCHAR
STARTCHAR 24DA
ENCODING 9434
SWIDTH 1000 0
DWIDTH 14 0
BBX 14 14 0 -2
BITMAP
0780
1860
2410
4408
8408
8488
8504
8604
8508
8588
44C8
2010
1020
0FC0
ENDCHAR
STARTCHAR 24DB
ENCODING 9435
SWIDTH 1000 0
DWIDTH 14 0
BBX 14 14 0 -2
BITMAP
0780
1860
2010
4308
8308
8308
8304
8304
8308
8308
4308
2010
1020
0FC0
ENDCHAR
STARTCHAR 24DC
ENCODING 9436
SWIDTH 1000 0
DWIDTH 14 0
BBX 14 14 0 -2
BITMAP
0780
1860
2010
4008
9EE8
9328
9324
9324
9324
9328
4008
4010
3020
0FC0
ENDCHAR
STARTCHAR 24DD
ENCODING 9437
SWIDTH 1000 0
DWIDTH 14 0
BBX 14 14 0 -2
BITMAP
0780
1860
2010
4008
8B88
8CC8
8CC4
8CC4
8CC4
8CC8
4008
4010
3020
0FC0
ENDCHAR
STARTCHAR 24DE
ENCODING 9438
SWIDTH 1000 0
DWIDTH 14 0
BBX 14 14 0 -2
BITMAP
0780
1860
2010
4008
8788
8848
8844
8844
8848
8788
4008
2010
1020
0FC0
ENDCHAR
STARTCHAR 24DF
ENCODING 9439
SWIDTH 1000 0
DWIDTH 14 0
BBX 14 14 0 -2
BITMAP
0FC0
1020
6010
4B88
8CC8
8C44
8844
8C44
8CC8
8B88
4808
2010
1020
0FC0
ENDCHAR
STARTCHAR 24E0
ENCODING 9440
SWIDTH 1000 0
DWIDTH 14 0
BBX 14 14 0 -2
BITMAP
0FC0
1020
6010
4748
8CC8
88C4
8844
88C4
8CC8
8748
4048
2010
1020
0FC0
ENDCHAR
STARTCHAR 24E1
ENCODING 9441
SWIDTH 1000 0
DWIDTH 14 0
BBX 14 14 0 -2
BITMAP
0780
1860
2010
4008
8388
8208
8204
8204
8208
8208
4008
2010
1020
0FC0
ENDCHAR
STARTCHAR 24E2
ENCODING 9442
SWIDTH 1000 0
DWIDTH 14 0
BBX 14 14 0 -2
BITMAP
0780
1860
2010
4008
8788
8888
8604
81C4
8848
8788
4008
2010
1020
0FC0
ENDCHAR
STARTCHAR 24E3
ENCODING 9443
SWIDTH 1000 0
DWIDTH 14 0
BBX 14 14 0 -2
BITMAP
0780
1860
2010
4208
8208
8788
8204
8204
8204
8208
4388
2010
1020
0FC0
ENDCHAR
STARTCHAR 24E4
ENCODING 9444
SWIDTH 1000 0
DWIDTH 14 0
BBX 14 14 0 -2
BITMAP
0FC0
1020
2010
4008
8CC8
8CC4
8CC4
8CC4
8CC8
8748
4008
2010
1020
0FC0
ENDCHAR
STARTCHAR 24E5
ENCODING 9445
SWIDTH 1000 0
DWIDTH 14 0
BBX 14 14 0 -2
BITMAP
0780
1860
2010
4008
8CC8
8488
8484
8484
8308
8308
4308
2010
1020
0FC0
ENDCHAR
STARTCHAR 24E6
ENCODING 9446
SWIDTH 1000 0
DWIDTH 14 0
BBX 14 14 0 -2
BITMAP
0780
1860
2010
4008
9328
9328
9B64
8B44
8CC8
8CC8
4CC8
2010
1020
0FC0
ENDCHAR
STARTCHAR 24E7
ENCODING 9447
SWIDTH 1000 0
DWIDTH 14 0
BBX 14 14 0 -2
BITMAP
0780
1860
2010
4008
8488
8788
8304
8304
8488
8488
4008
2010
1020
0FC0
ENDCHAR
STARTCHAR 24E8
ENCODING 9448
SWIDTH 1000 0
DWIDTH 14 0
BBX 14 14 0 -2
BITMAP
0FC0
1020
2010
4CC8
8488
8484
8284
8304
8308
8308
4608
2010
1020
0FC0
ENDCHAR
STARTCHAR 24E9
ENCODING 9449
SWIDTH 1000 0
DWIDTH 14 0
BBX 14 14 0 -2
BITMAP
0780
1860
2010
4008
8788
8188
8104
8204
8608
8788
4008
2010
1020
0FC0
ENDCHAR
STARTCHAR 24EA
ENCODING 9450
SWIDTH 1000 0
DWIDTH 14 0
BBX 14 14 0 -2
BITMAP
0780
1860
2010
4788
8488
8488
8484
8484
8488
8488
4788
2010
1020
0FC0
ENDCHAR
STARTCHAR 2500
ENCODING 9472
SWIDTH 1000 0
DWIDTH 14 0
BBX 14 1 0 4
BITMAP
FFFC
ENDCHAR
STARTCHAR 2501
ENCODING 9473
SWIDTH 1000 0
DWIDTH 14 0
BBX 14 2 0 4
BITMAP
FFFC
FFFC
ENDCHAR
STARTCHAR 2502
ENCODING 9474
SWIDTH 1000 0
DWIDTH 14 0
BBX 1 14 6 -2
BITMAP
80
80
80
80
80
80
80
80
80
80
80
80
80
80
ENDCHAR
STARTCHAR 2503
ENCODING 9475
SWIDTH 1000 0
DWIDTH 14 0
BBX 2 14 6 -2
BITMAP
C0
C0
C0
C0
C0
C0
C0
C0
C0
C0
C0
C0
C0
C0
ENDCHAR
STARTCHAR 2504
ENCODING 9476
SWIDTH 1000 0
DWIDTH 14 0
BBX 13 1 0 4
BITMAP
F5E8
ENDCHAR
STARTCHAR 2505
ENCODING 9477
SWIDTH 1000 0
DWIDTH 14 0
BBX 13 2 0 4
BITMAP
F5E8
F5E8
ENDCHAR
STARTCHAR 2506
ENCODING 9478
SWIDTH 1000 0
DWIDTH 14 0
BBX 1 13 6 -2
BITMAP
80
00
80
00
00
80
00
80
00
00
80
00
80
ENDCHAR
STARTCHAR 2507
ENCODING 9479
SWIDTH 1000 0
DWIDTH 14 0
BBX 2 14 6 -2
BITMAP
C0
00
C0
C0
C0
C0
00
C0
C0
C0
C0
00
C0
C0
ENDCHAR
STARTCHAR 2508
ENCODING 9480
SWIDTH 1000 0
DWIDTH 14 0
BBX 13 1 0 4
BITMAP
B548
ENDCHAR
STARTCHAR 2509
ENCODING 9481
SWIDTH 1000 0
DWIDTH 14 0
BBX 13 2 0 4
BITMAP
B548
B548
ENDCHAR
STARTCHAR 250A
ENCODING 9482
SWIDTH 1000 0
DWIDTH 14 0
BBX 1 13 6 -1
BITMAP
80
00
80
00
00
80
00
80
00
00
80
00
80
ENDCHAR
STARTCHAR 250B
ENCODING 9483
SWIDTH 1000 0
DWIDTH 14 0
BBX 2 13 6 -1
BITMAP
C0
00
C0
00
00
C0
00
C0
00
00
C0
00
C0
ENDCHAR
STARTCHAR 250C
ENCODING 9484
SWIDTH 1000 0
DWIDTH 14 0
BBX 7 6 7 -2
BITMAP
FE
80
80
80
80
80
ENDCHAR
STARTCHAR 250D
ENCODING 9485
SWIDTH 1000 0
DWIDTH 14 0
BBX 7 7 7 -2
BITMAP
FE
FE
80
80
80
80
80
ENDCHAR
STARTCHAR 250E
ENCODING 9486
SWIDTH 1000 0
DWIDTH 14 0
BBX 8 7 6 -2
BITMAP
FF
C0
C0
C0
C0
C0
C0
ENDCHAR
STARTCHAR 250F
ENCODING 9487
SWIDTH 1000 0
DWIDTH 14 0
BBX 8 8 6 -2
BITMAP
FF
FF
C0
C0
C0
C0
C0
C0
ENDCHAR
STARTCHAR 2510
ENCODING 9488
SWIDTH 1000 0
DWIDTH 14 0
BBX 7 6 0 -2
BITMAP
FE
02
02
02
02
02
ENDCHAR
STARTCHAR 2511
ENCODING 9489
SWIDTH 1000 0
DWIDTH 14 0
BBX 7 7 0 -2
BITMAP
FE
FE
02
02
02
02
02
ENDCHAR
STARTCHAR 2512
ENCODING 9490
SWIDTH 1000 0
DWIDTH 14 0
BBX 8 7 0 -2
BITMAP
FF
03
03
03
03
03
03
ENDCHAR
STARTCHAR 2513
ENCODING 9491
SWIDTH 1000 0
DWIDTH 14 0
BBX 8 8 0 -2
BITMAP
FF
FF
03
03
03
03
03
03
ENDCHAR
STARTCHAR 2514
ENCODING 9492
SWIDTH 1000 0
DWIDTH 14 0
BBX 7 8 7 5
BITMAP
80
80
80
80
80
80
80
FE
ENDCHAR
STARTCHAR 2515
ENCODING 9493
SWIDTH 1000 0
DWIDTH 14 0
BBX 7 8 7 5
BITMAP
80
80
80
80
80
80
FE
FE
ENDCHAR
STARTCHAR 2516
ENCODING 9494
SWIDTH 1000 0
DWIDTH 14 0
BBX 8 9 6 4
BITMAP
C0
C0
C0
C0
C0
C0
C0
C0
FF
ENDCHAR
STARTCHAR 2517
ENCODING 9495
SWIDTH 1000 0
DWIDTH 14 0
BBX 8 9 6 4
BITMAP
C0
C0
C0
C0
C0
C0
C0
FF
FF
ENDCHAR
STARTCHAR 2518
ENCODING 9496
SWIDTH 1000 0
DWIDTH 14 0
BBX 7 8 0 5
BITMAP
02
02
02
02
02
02
02
FE
ENDCHAR
STARTCHAR 2519
ENCODING 9497
SWIDTH 1000 0
DWIDTH 14 0
BBX 7 8 0 5
BITMAP
02
02
02
02
02
02
FE
FE
ENDCHAR
STARTCHAR 251A
ENCODING 9498
SWIDTH 1000 0
DWIDTH 14 0
BBX 8 9 0 4
BITMAP
03
03
03
03
03
03
03
03
FF
ENDCHAR
STARTCHAR 251B
ENCODING 9499
SWIDTH 1000 0
DWIDTH 14 0
BBX 8 9 0 4
BITMAP
03
03
03
03
03
03
03
FF
FF
ENDCHAR
STARTCHAR 251C
ENCODING 9500
SWIDTH 1000 0
DWIDTH 14 0
BBX 7 13 7 -1
BITMAP
80
80
80
80
80
80
80
FE
80
80
80
80
80
ENDCHAR
STARTCHAR 251D
ENCODING 9501
SWIDTH 1000 0
DWIDTH 14 0
BBX 7 13 7 -1
BITMAP
80
80
80
80
80
80
FE
FE
80
80
80
80
80
ENDCHAR
STARTCHAR 251E
ENCODING 9502
SWIDTH 1000 0
DWIDTH 14 0
BBX 8 14 6 -2
BITMAP
C0
C0
C0
C0
C0
C0
C0
C0
FF
80
80
80
80
80
ENDCHAR
STARTCHAR 251F
ENCODING 9503
SWIDTH 1000 0
DWIDTH 14 0
BBX 8 14 6 -1
BITMAP
80
80
80
80
80
80
80
FF
C0
C0
C0
C0
C0
C0
ENDCHAR
STARTCHAR 2520
ENCODING 9504
SWIDTH 1000 0
DWIDTH 14 0
BBX 8 15 6 -2
BITMAP
C0
C0
C0
C0
C0
C0
C0
C0
FF
C0
C0
C0
C0
C0
C0
ENDCHAR
STARTCHAR 2521
ENCODING 9505
SWIDTH 1000 0
DWIDTH 14 0
BBX 8 14 6 -2
BITMAP
C0
C0
C0
C0
C0
C0
C0
FF
FF
80
80
80
80
80
ENDCHAR
STARTCHAR 2522
ENCODING 9506
SWIDTH 1000 0
DWIDTH 14 0
BBX 8 14 6 -1
BITMAP
80
80
80
80
80
80
FF
FF
C0
C0
C0
C0
C0
C0
ENDCHAR
STARTCHAR 2523
ENCODING 9507
SWIDTH 1000 0
DWIDTH 14 0
BBX 8 15 6 -2
BITMAP
C0
C0
C0
C0
C0
C0
C0
FF
FF
C0
C0
C0
C0
C0
C0
ENDCHAR
STARTCHAR 2524
ENCODING 9508
SWIDTH 1000 0
DWIDTH 14 0
BBX 7 13 0 -1
BITMAP
02
02
02
02
02
02
02
FE
02
02
02
02
02
ENDCHAR
STARTCHAR 2525
ENCODING 9509
SWIDTH 1000 0
DWIDTH 14 0
BBX 7 13 0 -1
BITMAP
02
02
02
02
02
02
FE
FE
02
02
02
02
02
ENDCHAR
STARTCHAR 2526
ENCODING 9510
SWIDTH 1000 0
DWIDTH 14 0
BBX 8 14 0 -2
BITMAP
03
03
03
03
03
03
03
03
FF
02
02
02
02
02
ENDCHAR
STARTCHAR 2527
ENCODING 9511
SWIDTH 1000 0
DWIDTH 14 0
BBX 8 14 0 -1
BITMAP
02
02
02
02
02
02
02
FF
03
03
03
03
03
03
ENDCHAR
STARTCHAR 2528
ENCODING 9512
SWIDTH 1000 0
DWIDTH 14 0
BBX 8 15 0 -2
BITMAP
03
03
03
03
03
03
03
03
FF
03
03
03
03
03
03
ENDCHAR
STARTCHAR 2529
ENCODING 9513
SWIDTH 1000 0
DWIDTH 14 0
BBX 8 14 0 -2
BITMAP
03
03
03
03
03
03
03
FF
FF
02
02
02
02
02
ENDCHAR
STARTCHAR 252A
ENCODING 9514
SWIDTH 1000 0
DWIDTH 14 0
BBX 8 14 0 -1
BITMAP
02
02
02
02
02
02
FF
FF
03
03
03
03
03
03
ENDCHAR
STARTCHAR 252B
ENCODING 9515
SWIDTH 1000 0
DWIDTH 14 0
BBX 8 15 0 -2
BITMAP
03
03
03
03
03
03
03
FF
FF
03
03
03
03
03
03
ENDCHAR
STARTCHAR 252C
ENCODING 9516
SWIDTH 1000 0
DWIDTH 14 0
BBX 14 6 0 -2
BITMAP
FFFC
0200
0200
0200
0200
0200
ENDCHAR
STARTCHAR 252D
ENCODING 9517
SWIDTH 1000 0
DWIDTH 14 0
BBX 14 7 0 -2
BITMAP
FE00
FFFC
0200
0200
0200
0200
0200
ENDCHAR
STARTCHAR 252E
ENCODING 9518
SWIDTH 1000 0
DWIDTH 14 0
BBX 14 7 0 -2
BITMAP
01FC
FFFC
0200
0200
0200
0200
0200
ENDCHAR
STARTCHAR 252F
ENCODING 9519
SWIDTH 1000 0
DWIDTH 14 0
BBX 14 7 0 -2
BITMAP
FFFC
FFFC
0200
0200
0200
0200
0200
ENDCHAR
STARTCHAR 2530
ENCODING 9520
SWIDTH 1000 0
DWIDTH 14 0
BBX 14 7 0 -2
BITMAP
FFFC
0300
0300
0300
0300
0300
0300
ENDCHAR
STARTCHAR 2531
ENCODING 9521
SWIDTH 1000 0
DWIDTH 14 0
BBX 14 8 0 -2
BITMAP
FF00
FFFC
0300
0300
0300
0300
0300
0300
ENDCHAR
STARTCHAR 2532
ENCODING 9522
SWIDTH 1000 0
DWIDTH 14 0
BBX 14 8 0 -2
BITMAP
03FC
FFFC
0300
0300
0300
0300
0300
0300
ENDCHAR
STARTCHAR 2533
ENCODING 9523
SWIDTH 1000 0
DWIDTH 14 0
BBX 14 8 0 -2
BITMAP
FFFC
FFFC
0300
0300
0300
0300
0300
0300
ENDCHAR
STARTCHAR 2534
ENCODING 9524
SWIDTH 1000 0
DWIDTH 14 0
BBX 14 8 0 5
BITMAP
0200
0200
0200
0200
0200
0200
0200
FFFC
ENDCHAR
STARTCHAR 2535
ENCODING 9525
SWIDTH 1000 0
DWIDTH 14 0
BBX 14 8 0 5
BITMAP
0200
0200
0200
0200
0200
0200
FE00
FFFC
ENDCHAR
STARTCHAR 2536
ENCODING 9526
SWIDTH 1000 0
DWIDTH 14 0
BBX 14 8 0 5
BITMAP
0200
0200
0200
0200
0200
0200
01FC
FFFC
ENDCHAR
STARTCHAR 2537
ENCODING 9527
SWIDTH 1000 0
DWIDTH 14 0
BBX 14 8 0 5
BITMAP
0200
0200
0200
0200
0200
0200
FFFC
FFFC
ENDCHAR
STARTCHAR 2538
ENCODING 9528
SWIDTH 1000 0
DWIDTH 14 0
BBX 14 9 0 4
BITMAP
0300
0300
0300
0300
0300
0300
0300
0300
FFFC
ENDCHAR
STARTCHAR 2539
ENCODING 9529
SWIDTH 1000 0
DWIDTH 14 0
BBX 14 9 0 4
BITMAP
0300
0300
0300
0300
0300
0300
0300
FF00
FFFC
ENDCHAR
STARTCHAR 253A
ENCODING 9530
SWIDTH 1000 0
DWIDTH 14 0
BBX 14 9 0 4
BITMAP
0300
0300
0300
0300
0300
0300
0300
03FC
FFFC
ENDCHAR
STARTCHAR 253B
ENCODING 9531
SWIDTH 1000 0
DWIDTH 14 0
BBX 14 9 0 4
BITMAP
0300
0300
0300
0300
0300
0300
0300
FFFC
FFFC
ENDCHAR
STARTCHAR 253C
ENCODING 9532
SWIDTH 1000 0
DWIDTH 14 0
BBX 14 13 0 -1
BITMAP
0200
0200
0200
0200
0200
0200
0200
FFFC
0200
0200
0200
0200
0200
ENDCHAR
STARTCHAR 253D
ENCODING 9533
SWIDTH 1000 0
DWIDTH 14 0
BBX 14 13 0 -1
BITMAP
0200
0200
0200
0200
0200
0200
FE00
FFFC
0200
0200
0200
0200
0200
ENDCHAR
STARTCHAR 253E
ENCODING 9534
SWIDTH 1000 0
DWIDTH 14 0
BBX 14 13 0 -1
BITMAP
0200
0200
0200
0200
0200
0200
01FC
FFFC
0200
0200
0200
0200
0200
ENDCHAR
STARTCHAR 253F
ENCODING 9535
SWIDTH 1000 0
DWIDTH 14 0
BBX 14 13 0 -1
BITMAP
0200
0200
0200
0200
0200
0200
FFFC
FFFC
0200
0200
0200
0200
0200
ENDCHAR
STARTCHAR 2540
ENCODING 9536
SWIDTH 1000 0
DWIDTH 14 0
BBX 14 14 0 -2
BITMAP
0300
0300
0300
0300
0300
0300
0300
0300
FFFC
0200
0200
0200
0200
0200
ENDCHAR
STARTCHAR 2541
ENCODING 9537
SWIDTH 1000 0
DWIDTH 14 0
BBX 14 14 0 -1
BITMAP
0200
0200
0200
0200
0200
0200
0200
FFFC
0300
0300
0300
0300
0300
0300
ENDCHAR
STARTCHAR 2542
ENCODING 9538
SWIDTH 1000 0
DWIDTH 14 0
BBX 14 15 0 -2
BITMAP
0300
0300
0300
0300
0300
0300
0300
0300
FFFC
0300
0300
0300
0300
0300
0300
ENDCHAR
STARTCHAR 2543
ENCODING 9539
SWIDTH 1000 0
DWIDTH 14 0
BBX 14 14 0 -2
BITMAP
0300
0300
0300
0300
0300
0300
0300
FF00
FFFC
0200
0200
0200
0200
0200
ENDCHAR
STARTCHAR 2544
ENCODING 9540
SWIDTH 1000 0
DWIDTH 14 0
BBX 14 14 0 -2
BITMAP
0300
0300
0300
0300
0300
0300
0300
03FC
FFFC
0200
0200
0200
0200
0200
ENDCHAR
STARTCHAR 2545
ENCODING 9541
SWIDTH 1000 0
DWIDTH 14 0
BBX 14 14 0 -1
BITMAP
0200
0200
0200
0200
0200
0200
FF00
FFFC
0300
0300
0300
0300
0300
0300
ENDCHAR
STARTCHAR 2546
ENCODING 9542
SWIDTH 1000 0
DWIDTH 14 0
BBX 14 14 0 -1
BITMAP
0200
0200
0200
0200
0200
0200
03FC
FFFC
0300
0300
0300
0300
0300
0300
ENDCHAR
STARTCHAR 2547
ENCODING 9543
SWIDTH 1000 0
DWIDTH 14 0
BBX 14 14 0 -2
BITMAP
0300
0300
0300
0300
0300
0300
0300
FFFC
FFFC
0200
0200
0200
0200
0200
ENDCHAR
STARTCHAR 2548
ENCODING 9544
SWIDTH 1000 0
DWIDTH 14 0
BBX 14 14 0 -1
BITMAP
0200
0200
0200
0200
0200
0200
FFFC
FFFC
0300
0300
0300
0300
0300
0300
ENDCHAR
STARTCHAR 2549
ENCODING 9545
SWIDTH 1000 0
DWIDTH 14 0
BBX 14 15 0 -2
BITMAP
0300
0300
0300
0300
0300
0300
0300
FF00
FFFC
0300
0300
0300
0300
0300
0300
ENDCHAR
STARTCHAR 254A
ENCODING 9546
SWIDTH 1000 0
DWIDTH 14 0
BBX 14 15 0 -2
BITMAP
0300
0300
0300
0300
0300
0300
0300
03FC
FFFC
0300
0300
0300
0300
0300
0300
ENDCHAR
STARTCHAR 254B
ENCODING 9547
SWIDTH 1000 0
DWIDTH 14 0
BBX 14 15 0 -2
BITMAP
0300
0300
0300
0300
0300
0300
0300
FFFC
FFFC
0300
0300
0300
0300
0300
0300
ENDCHAR
STARTCHAR 2550
ENCODING 9552
SWIDTH 1000 0
DWIDTH 14 0
BBX 14 8 0 1
BITMAP
FFFC
FFFC
0000
0000
0000
0000
FFFC
FFFC
ENDCHAR
STARTCHAR 255E
ENCODING 9566
SWIDTH 1000 0
DWIDTH 14 0
BBX 8 14 6 -2
BITMAP
C0
C0
C0
FF
FF
C0
C0
C0
C0
FF
FF
C0
C0
C0
ENDCHAR
STARTCHAR 2561
ENCODING 9569
SWIDTH 1000 0
DWIDTH 14 0
BBX 8 14 0 -2
BITMAP
03
03
03
FF
FF
03
03
03
03
FF
FF
03
03
03
ENDCHAR
STARTCHAR 256A
ENCODING 9578
SWIDTH 1000 0
DWIDTH 14 0
BBX 14 14 0 -2
BITMAP
0300
0300
0300
FFFC
FFFC
0300
0300
0300
0300
FFFC
FFFC
0300
0300
0300
ENDCHAR
STARTCHAR 256D
ENCODING 9581
SWIDTH 1000 0
DWIDTH 14 0
BBX 8 8 6 -2
BITMAP
03
0F
1C
30
60
60
C0
C0
ENDCHAR
STARTCHAR 256E
ENCODING 9582
SWIDTH 1000 0
DWIDTH 14 0
BBX 8 8 0 -2
BITMAP
C0
F0
38
0C
06
06
03
03
ENDCHAR
STARTCHAR 256F
ENCODING 9583
SWIDTH 1000 0
DWIDTH 14 0
BBX 8 9 0 4
BITMAP
03
03
03
06
06
0C
1C
F0
E0
ENDCHAR
STARTCHAR 2570
ENCODING 9584
SWIDTH 1000 0
DWIDTH 14 0
BBX 8 9 6 4
BITMAP
C0
C0
C0
40
60
30
38
1F
07
ENDCHAR
STARTCHAR 2571
ENCODING 9585
SWIDTH 1000 0
DWIDTH 14 0
BBX 12 12 1 -1
BITMAP
0010
0020
0040
0080
0100
0200
0400
0800
1000
2000
4000
8000
ENDCHAR
STARTCHAR 2572
ENCODING 9586
SWIDTH 1000 0
DWIDTH 14 0
BBX 12 12 1 -1
BITMAP
8000
4000
2000
1000
0800
0400
0200
0100
0080
0040
0020
0010
ENDCHAR
STARTCHAR 2573
ENCODING 9587
SWIDTH 1000 0
DWIDTH 14 0
BBX 8 8 3 0
BITMAP
81
42
24
18
18
24
42
81
ENDCHAR
STARTCHAR 2581
ENCODING 9601
SWIDTH 1000 0
DWIDTH 14 0
BBX 14 2 0 -2
BITMAP
FFFC
FFFC
ENDCHAR
STARTCHAR 2582
ENCODING 9602
SWIDTH 1000 0
DWIDTH 14 0
BBX 14 4 0 -2
BITMAP
FFFC
FFFC
FFFC
FFFC
ENDCHAR
STARTCHAR 2583
ENCODING 9603
SWIDTH 1000 0
DWIDTH 14 0
BBX 14 5 0 -2
BITMAP
FFFC
FFFC
FFFC
FFFC
FFFC
ENDCHAR
STARTCHAR 2584
ENCODING 9604
SWIDTH 1000 0
DWIDTH 14 0
BBX 14 7 0 -2
BITMAP
FFFC
FFFC
FFFC
FFFC
FFFC
FFFC
FFFC
ENDCHAR
STARTCHAR 2585
ENCODING 9605
SWIDTH 1000 0
DWIDTH 14 0
BBX 14 9 0 -2
BITMAP
FFFC
FFFC
FFFC
FFFC
FFFC
FFFC
FFFC
FFFC
FFFC
ENDCHAR
STARTCHAR 2586
ENCODING 9606
SWIDTH 1000 0
DWIDTH 14 0
BBX 14 11 0 -2
BITMAP
FFFC
FFFC
FFFC
FFFC
FFFC
FFFC
FFFC
FFFC
FFFC
FFFC
FFFC
ENDCHAR
STARTCHAR 2587
ENCODING 9607
SWIDTH 1000 0
DWIDTH 14 0
BBX 14 12 0 -2
BITMAP
FFFC
FFFC
FFFC
FFFC
FFFC
FFFC
FFFC
FFFC
FFFC
FFFC
FFFC
FFFC
ENDCHAR
STARTCHAR 2588
ENCODING 9608
SWIDTH 1000 0
DWIDTH 14 0
BBX 14 14 0 -2
BITMAP
FFFC
FFFC
FFFC
FFFC
FFFC
FFFC
FFFC
FFFC
FFFC
FFFC
FFFC
FFFC
FFFC
FFFC
ENDCHAR
STARTCHAR 2589
ENCODING 9609
SWIDTH 1000 0
DWIDTH 14 0
BBX 12 14 0 -2
BITMAP
FFF0
FFF0
FFF0
FFF0
FFF0
FFF0
FFF0
FFF0
FFF0
FFF0
FFF0
FFF0
FFF0
FFF0
ENDCHAR
STARTCHAR 258A
ENCODING 9610
SWIDTH 1000 0
DWIDTH 14 0
BBX 11 14 0 -2
BITMAP
FFE0
FFE0
FFE0
FFE0
FFE0
FFE0
FFE0
FFE0
FFE0
FFE0
FFE0
FFE0
FFE0
FFE0
ENDCHAR
STARTCHAR 258B
ENCODING 9611
SWIDTH 1000 0
DWIDTH 14 0
BBX 9 14 0 -2
BITMAP
FF80
FF80
FF80
FF80
FF80
FF80
FF80
FF80
FF80
FF80
FF80
FF80
FF80
FF80
ENDCHAR
STARTCHAR 258C
ENCODING 9612
SWIDTH 1000 0
DWIDTH 14 0
BBX 7 14 0 -2
BITMAP
FE
FE
FE
FE
FE
FE
FE
FE
FE
FE
FE
FE
FE
FE
ENDCHAR
STARTCHAR 258D
ENCODING 9613
SWIDTH 1000 0
DWIDTH 14 0
BBX 5 14 0 -2
BITMAP
F8
F8
F8
F8
F8
F8
F8
F8
F8
F8
F8
F8
F8
F8
ENDCHAR
STARTCHAR 258E
ENCODING 9614
SWIDTH 1000 0
DWIDTH 14 0
BBX 4 14 0 -2
BITMAP
F0
F0
F0
F0
F0
F0
F0
F0
F0
F0
F0
F0
F0
F0
ENDCHAR
STARTCHAR 258F
ENCODING 9615
SWIDTH 1000 0
DWIDTH 14 0
BBX 2 14 0 -2
BITMAP
C0
C0
C0
C0
C0
C0
C0
C0
C0
C0
C0
C0
C0
C0
ENDCHAR
STARTCHAR 2594
ENCODING 9620
SWIDTH 1000 0
DWIDTH 14 0
BBX 14 2 0 10
BITMAP
FFFC
FFFC
ENDCHAR
STARTCHAR 2595
ENCODING 9621
SWIDTH 1000 0
DWIDTH 14 0
BBX 2 14 12 -2
BITMAP
C0
C0
C0
C0
C0
C0
C0
C0
C0
C0
C0
C0
C0
C0
ENDCHAR
STARTCHAR 25A0
ENCODING 9632
SWIDTH 1000 0
DWIDTH 14 0
BBX 12 12 1 -1
BITMAP
FFF0
FFF0
FFF0
FFF0
FFF0
FFF0
FFF0
FFF0
FFF0
FFF0
FFF0
FFF0
ENDCHAR
STARTCHAR 25A1
ENCODING 9633
SWIDTH 1000 0
DWIDTH 14 0
BBX 12 14 1 -2
BITMAP
FFF0
8010
8010
8010
8010
8010
8010
8010
8010
8010
8010
8010
8010
FFF0
ENDCHAR
STARTCHAR 25A2
ENCODING 9634
SWIDTH 1000 0
DWIDTH 14 0
BBX 12 14 1 -2
BITMAP
7FE0
8010
8010
8010
8010
8010
8010
8010
8010
8010
8010
8010
8010
7FE0
ENDCHAR
STARTCHAR 25AA
ENCODING 9642
SWIDTH 1000 0
DWIDTH 14 0
BBX 4 4 5 3
BITMAP
F0
F0
F0
F0
ENDCHAR
STARTCHAR 25AB
ENCODING 9643
SWIDTH 1000 0
DWIDTH 14 0
BBX 4 4 5 3
BITMAP
F0
90
90
F0
ENDCHAR
STARTCHAR 25B2
ENCODING 9650
SWIDTH 1000 0
DWIDTH 14 0
BBX 12 9 1 1
BITMAP
0400
0600
0F00
1F80
1F80
3FC0
7FE0
FFF0
FFF0
ENDCHAR
STARTCHAR 25B3
ENCODING 9651
SWIDTH 1000 0
DWIDTH 14 0
BBX 12 9 1 1
BITMAP
0400
0A00
0900
1080
2080
2040
4020
8020
FFF0
ENDCHAR
STARTCHAR 25B6
ENCODING 9654
SWIDTH 1000 0
DWIDTH 14 0
BBX 9 13 3 -2
BITMAP
8000
C000
F000
F800
FC00
FF00
FF80
FE00
FC00
F800
E000
C000
8000
ENDCHAR
STARTCHAR 25B7
ENCODING 9655
SWIDTH 1000 0
DWIDTH 14 0
BBX 9 13 3 -2
BITMAP
8000
C000
B000
8800
8400
8300
8080
8300
8400
8800
B000
C000
8000
ENDCHAR
STARTCHAR 25BC
ENCODING 9660
SWIDTH 1000 0
DWIDTH 14 0
BBX 12 9 1 0
BITMAP
FFF0
FFF0
7FE0
3FC0
1F80
1F80
0F00
0600
0400
ENDCHAR
STARTCHAR 25BD
ENCODING 9661
SWIDTH 1000 0
DWIDTH 14 0
BBX 12 9 1 0
BITMAP
FFF0
8020
4020
2040
2080
1080
0900
0A00
0400
ENDCHAR
STARTCHAR 25C0
ENCODING 9664
SWIDTH 1000 0
DWIDTH 14 0
BBX 9 13 2 -2
BITMAP
0080
0180
0780
0F80
1F80
7F80
FF80
3F80
1F80
0F80
0380
0180
0080
ENDCHAR
STARTCHAR 25C1
ENCODING 9665
SWIDTH 1000 0
DWIDTH 14 0
BBX 9 13 2 -2
BITMAP
0080
0180
0680
0880
1080
6080
8080
4080
3080
0880
0480
0380
0080
ENDCHAR
STARTCHAR 25C6
ENCODING 9670
SWIDTH 1000 0
DWIDTH 14 0
BBX 14 13 0 -1
BITMAP
0300
0780
0FC0
1FE0
3FF0
7FF8
FFFC
7FF8
3FF0
1FE0
0FC0
0780
0200
ENDCHAR
STARTCHAR 25C7
ENCODING 9671
SWIDTH 1000 0
DWIDTH 14 0
BBX 14 13 0 -1
BITMAP
0700
0880
1040
2020
4010
8008
8004
4008
2010
1020
0840
0480
0300
ENDCHAR
STARTCHAR 25C9
ENCODING 9673
SWIDTH 1000 0
DWIDTH 14 0
BBX 12 14 1 -2
BITMAP
0600
1980
6060
9FA0
9F90
BFD0
BFD0
BFD0
BFD0
BFD0
9FA0
4020
30C0
0F00
ENDCHAR
STARTCHAR 25CB
ENCODING 9675
SWIDTH 1000 0
DWIDTH 14 0
BBX 12 13 1 -1
BITMAP
1F80
6040
8020
8010
8010
8010
8010
8010
8010
8020
4040
3080
0F00
ENDCHAR
STARTCHAR 25CC
ENCODING 9676
SWIDTH 1000 0
DWIDTH 14 0
BBX 14 14 0 -2
BITMAP
0840
0000
0000
0000
0000
8000
0000
8004
8004
0000
0000
0000
0000
0040
ENDCHAR
STARTCHAR 25CE
ENCODING 9678
SWIDTH 1000 0
DWIDTH 14 0
BBX 12 13 1 -1
BITMAP
1F80
6040
9FA0
A050
C050
C050
C050
C050
A050
90A0
4F40
3080
0F00
ENDCHAR
STARTCHAR 25CF
ENCODING 9679
SWIDTH 1000 0
DWIDTH 14 0
BBX 12 12 1 -1
BITMAP
0F00
3FC0
7FE0
FFF0
FFF0
FFF0
FFF0
FFF0
FFF0
7FE0
7FE0
1F80
ENDCHAR
STARTCHAR 25E2
ENCODING 9698
SWIDTH 1000 0
DWIDTH 14 0
BBX 14 13 0 -1
BITMAP
0004
000C
001C
003C
007C
00FC
01FC
03FC
07FC
0FFC
1FFC
3FFC
FFFC
ENDCHAR
STARTCHAR 25E3
ENCODING 9699
SWIDTH 1000 0
DWIDTH 14 0
BBX 14 13 0 -1
BITMAP
8000
C000
E000
F000
F800
FC00
FE00
FF00
FF80
FFC0
FFE0
FFF0
FFFC
ENDCHAR
STARTCHAR 25E4
ENCODING 9700
SWIDTH 1000 0
DWIDTH 14 0
BBX 14 14 0 -2
BITMAP
FFFC
FFF8
FFF0
FFE0
FFC0
FF80
FF00
FE00
FC00
F800
F000
E000
C000
8000
ENDCHAR
STARTCHAR 25E5
ENCODING 9701
SWIDTH 1000 0
DWIDTH 14 0
BBX 14 14 0 -2
BITMAP
FFFC
7FFC
3FFC
1FFC
0FFC
07FC
03FC
01FC
00FC
007C
003C
001C
000C
0004
ENDCHAR
STARTCHAR 25E6
ENCODING 9702
SWIDTH 1000 0
DWIDTH 14 0
BBX 4 4 5 3
BITMAP
60
90
90
60
ENDCHAR
STARTCHAR 25EF
ENCODING 9711
SWIDTH 1000 0
DWIDTH 14 0
BBX 14 14 0 -2
BITMAP
0780
1860
2010
4008
8008
8008
8004
8004
8008
8008
4008
2010
1020
0FC0
ENDCHAR
STARTCHAR 2600
ENCODING 9728
SWIDTH 1000 0
DWIDTH 14 0
BBX 14 14 0 -2
BITMAP
0200
0200
2010
1320
0780
0FC0
0FC0
EFDC
0FC0
0FC0
1320
2020
0200
0200
ENDCHAR
STARTCHAR 2601
ENCODING 9729
SWIDTH 1000 0
DWIDTH 14 0
BBX 12 9 1 0
BITMAP
1F00
1F00
3FF0
3FF0
FFF0
FFE0
FBF0
73F0
01E0
ENDCHAR
STARTCHAR 2602
ENCODING 9730
SWIDTH 1000 0
DWIDTH 14 0
BBX 12 13 1 -1
BITMAP
0600
3FC0
7FE0
FFF0
A650
2400
0400
0400
0400
0400
0400
1400
0C00
ENDCHAR
STARTCHAR 2603
ENCODING 9731
SWIDTH 1000 0
DWIDTH 14 0
BBX 14 14 0 -2
BITMAP
8604
11C0
0220
6620
1938
24E0
E020
1144
1020
A210
4010
4210
4010
3FE0
ENDCHAR
STARTCHAR 2605
ENCODING 9733
SWIDTH 1000 0
DWIDTH 14 0
BBX 12 12 1 -1
BITMAP
0600
0600
0600
0F00
FFF0
7FE0
1F80
1F80
1F80
1980
30C0
4040
ENDCHAR
STARTCHAR 2606
ENCODING 9734
SWIDTH 1000 0
DWIDTH 14 0
BBX 14 12 0 -1
BITMAP
0200
0300
0300
0500
FCFC
2010
1020
0840
0840
1340
14A0
1860
ENDCHAR
STARTCHAR 260E
ENCODING 9742
SWIDTH 1000 0
DWIDTH 14 0
BBX 12 10 1 0
BITMAP
1F80
7FE0
E970
EF70
D9B0
1080
30C0
70E0
79E0
7FE0
ENDCHAR
STARTCHAR 2612
ENCODING 9746
SWIDTH 1000 0
DWIDTH 14 0
BBX 12 14 1 -2
BITMAP
FFF0
8010
A050
A050
9090
8910
8610
8610
8910
9090
A050
A050
8010
FFF0
ENDCHAR
STARTCHAR 261C
ENCODING 9756
SWIDTH 1000 0
DWIDTH 14 0
BBX 12 6 1 2
BITMAP
FF70
88D0
7F50
7CD0
2E50
1FF0
ENDCHAR
STARTCHAR 261D
ENCODING 9757
SWIDTH 1000 0
DWIDTH 14 0
BBX 6 12 4 -1
BITMAP
C0
C0
F0
E8
BC
D4
CC
A4
A8
A8
EC
FC
ENDCHAR
STARTCHAR 261E
ENCODING 9758
SWIDTH 1000 0
DWIDTH 14 0
BBX 12 6 1 2
BITMAP
CFF0
B110
CFE0
F6C0
C780
FF00
ENDCHAR
STARTCHAR 261F
ENCODING 9759
SWIDTH 1000 0
DWIDTH 14 0
BBX 6 12 4 -1
BITMAP
FC
FC
A8
A8
A4
C4
DC
AC
F8
D0
E0
C0
ENDCHAR
STARTCHAR 2640
ENCODING 9792
SWIDTH 1000 0
DWIDTH 14 0
BBX 10 14 2 -2
BITMAP
1E00
1200
2100
2100
3300
1E00
0C00
0C00
FFC0
0C00
0C00
0C00
0C00
0C00
ENDCHAR
STARTCHAR 2642
ENCODING 9794
SWIDTH 1000 0
DWIDTH 14 0
BBX 10 10 2 0
BITMAP
0FC0
01C0
0340
0640
7C40
C840
8400
8400
C800
7000
ENDCHAR
STARTCHAR 2660
ENCODING 9824
SWIDTH 1000 0
DWIDTH 14 0
BBX 10 12 2 -1
BITMAP
0C00
1E00
3F00
3F00
7F80
FF80
FFC0
FFC0
FBC0
6D80
0C00
1E00
ENDCHAR
STARTCHAR 2661
ENCODING 9825
SWIDTH 1000 0
DWIDTH 14 0
BBX 12 13 1 -2
BITMAP
7FE0
8020
8010
8010
8020
8020
4020
4040
2040
1080
0900
0A00
0400
ENDCHAR
STARTCHAR 2662
ENCODING 9826
SWIDTH 1000 0
DWIDTH 14 0
BBX 12 13 1 -2
BITMAP
0600
0900
1100
2080
4040
4020
8010
4020
2040
1080
0900
0A00
0400
ENDCHAR
STARTCHAR 2663
ENCODING 9827
SWIDTH 1000 0
DWIDTH 14 0
BBX 12 13 1 -1
BITMAP
0600
0F00
1F80
1F80
0F00
76E0
FFF0
FFF0
FDF0
FFF0
36C0
0600
0F00
ENDCHAR
STARTCHAR 2664
ENCODING 9828
SWIDTH 1000 0
DWIDTH 14 0
BBX 10 12 2 0
BITMAP
1C00
1200
2100
4080
8080
8040
8040
8040
8C40
9440
7380
3E00
ENDCHAR
STARTCHAR 2665
ENCODING 9829
SWIDTH 1000 0
DWIDTH 14 0
BBX 12 12 1 -1
BITMAP
39C0
7FE0
FFF0
FFF0
7FE0
7FE0
7FE0
3FC0
1F80
1F80
0F00
0600
ENDCHAR
STARTCHAR 2666
ENCODING 9830
SWIDTH 1000 0
DWIDTH 14 0
BBX 12 13 1 -2
BITMAP
0600
0F00
0F00
1F80
3FC0
7FE0
FFF0
7FE0
3FC0
1F80
0F00
0600
0400
ENDCHAR
STARTCHAR 2667
ENCODING 9831
SWIDTH 1000 0
DWIDTH 14 0
BBX 12 12 1 -1
BITMAP
0F00
1080
1080
1080
79E0
8010
8010
8010
8610
8920
7AC0
0F00
ENDCHAR
STARTCHAR 2668
ENCODING 9832
SWIDTH 1000 0
DWIDTH 14 0
BBX 12 12 1 0
BITMAP
0480
1500
1500
1680
1280
1280
92A0
9290
8010
4020
30C0
1F80
ENDCHAR
STARTCHAR 2669
ENCODING 9833
SWIDTH 1000 0
DWIDTH 14 0
BBX 3 12 5 -1
BITMAP
20
20
20
20
20
20
20
20
20
60
C0
C0
ENDCHAR
STARTCHAR 266A
ENCODING 9834
SWIDTH 1000 0
DWIDTH 14 0
BBX 7 12 4 -1
BITMAP
20
30
38
2C
22
22
22
24
20
20
E0
C0
ENDCHAR
STARTCHAR 266C
ENCODING 9836
SWIDTH 1000 0
DWIDTH 14 0
BBX 10 12 1 -1
BITMAP
0040
0FC0
1C40
23C0
1F40
2040
2040
2040
20C0
2180
E000
C000
ENDCHAR
STARTCHAR 266D
ENCODING 9837
SWIDTH 1000 0
DWIDTH 14 0
BBX 7 14 4 -2
BITMAP
80
80
80
80
80
80
BC
C4
C6
84
84
88
B0
C0
ENDCHAR
STARTCHAR 266F
ENCODING 9839
SWIDTH 1000 0
DWIDTH 14 0
BBX 10 13 2 -2
BITMAP
0200
1200
1200
1FC0
FE00
1200
1200
1200
1FC0
FE00
1200
1200
1000
ENDCHAR
STARTCHAR 2702
ENCODING 9986
SWIDTH 1000 0
DWIDTH 14 0
BBX 12 10 1 0
BITMAP
E000
A010
6060
1180
0E00
0600
1980
6060
A010
E000
ENDCHAR
STARTCHAR 271A
ENCODING 10010
SWIDTH 1000 0
DWIDTH 14 0
BBX 12 12 1 -1
BITMAP
0600
0600
0600
0600
0600
FFF0
FFF0
FFF0
0600
0600
0600
0600
ENDCHAR
STARTCHAR 2756
ENCODING 10070
SWIDTH 1000 0
DWIDTH 14 0
BBX 13 13 0 -1
BITMAP
0300
0780
0780
0300
3030
7878
F878
3030
0300
0780
0780
0300
0200
ENDCHAR
STARTCHAR 2776
ENCODING 10102
SWIDTH 1000 0
DWIDTH 14 0
BBX 14 14 0 -2
BITMAP
0FC0
1FE0
38F0
7EF8
7EF8
7EF8
FEFC
FEFC
7EF8
7EF8
7EF8
3EF0
1FE0
0FC0
ENDCHAR
STARTCHAR 2777
ENCODING 10103
SWIDTH 1000 0
DWIDTH 14 0
BBX 14 14 0 -2
BITMAP
0FC0
1FE0
3CF0
7B78
7B78
7F78
FF7C
FCFC
7BF8
7BF8
7BF8
3870
1FE0
0FC0
ENDCHAR
STARTCHAR 2778
ENCODING 10104
SWIDTH 1000 0
DWIDTH 14 0
BBX 14 14 0 -2
BITMAP
0FC0
1FE0
3CF0
7B78
7B78
FF7C
FCFC
FF7C
7B78
7B78
7878
3CF0
1FE0
0780
ENDCHAR
STARTCHAR 2779
ENCODING 10105
SWIDTH 1000 0
DWIDTH 14 0
BBX 14 14 0 -2
BITMAP
0FC0
1FE0
3EF0
7CF8
7CF8
7AF8
FAFC
F6FC
7678
7EF8
7EF8
3EF0
1FE0
0FC0
ENDCHAR
STARTCHAR 277A
ENCODING 10106
SWIDTH 1000 0
DWIDTH 14 0
BBX 14 14 0 -2
BITMAP
0FC0
1FE0
3870
7BF8
7BF8
F87C
FB7C
FB7C
7F78
7B78
7B78
3CF0
1FE0
0FC0
ENDCHAR
STARTCHAR 277B
ENCODING 10107
SWIDTH 1000 0
DWIDTH 14 0
BBX 14 14 0 -2
BITMAP
0780
1FE0
3CF0
7B78
7B78
7BF8
F87C
FB7C
FB7C
7B78
7B78
3CF0
1FE0
0FC0
ENDCHAR
STARTCHAR 277C
ENCODING 10108
SWIDTH 1000 0
DWIDTH 14 0
BBX 14 14 0 -2
BITMAP
0FC0
1FE0
3870
7F78
7F78
7F78
FEFC
FEFC
7EF8
7DF8
7DF8
3DF0
1FE0
0FC0
ENDCHAR
STARTCHAR 277D
ENCODING 10109
SWIDTH 1000 0
DWIDTH 14 0
BBX 14 14 0 -2
BITMAP
0FC0
1FE0
3CF0
7B78
7B78
FB7C
FCFC
FB7C
7B78
7B78
7878
3CF0
1FE0
0780
ENDCHAR
STARTCHAR 277E
ENCODING 10110
SWIDTH 1000 0
DWIDTH 14 0
BBX 14 14 0 -2
BITMAP
0FC0
1FE0
3CF0
7B78
7B78
FB7C
FB7C
F87C
7F78
7B78
7B78
3CF0
1FE0
0780
ENDCHAR
STARTCHAR 27A1
ENCODING 10145
SWIDTH 1000 0
DWIDTH 14 0
BBX 12 11 1 -1
BITMAP
0100
0180
01C0
FFE0
FFF0
FFF0
FFE0
FFC0
0180
0100
0200
ENDCHAR
STARTCHAR 2E83
ENCODING 11907
SWIDTH 1000 0
DWIDTH 14 0
BBX 11 13 2 -1
BITMAP
8000
8000
8000
8000
8000
8000
8000
8000
8000
8060
8060
8040
FFC0
ENDCHAR
STARTCHAR 2E85
ENCODING 11909
SWIDTH 1000 0
DWIDTH 14 0
BBX 7 13 3 -1
BITMAP
06
04
0C
18
38
78
D8
98
18
18
18
18
18
ENDCHAR
STARTCHAR 2E87
ENCODING 11911
SWIDTH 1000 0
DWIDTH 14 0
BBX 13 13 1 -2
BITMAP
7FE0
4020
4020
4020
4020
4020
4020
4020
C020
8020
8028
8030
8010
ENDCHAR
STARTCHAR 2E89
ENCODING 11913
SWIDTH 1000 0
DWIDTH 14 0
BBX 6 14 4 -2
BITMAP
04
84
84
84
84
84
84
84
84
84
84
04
04
3C
ENDCHAR
STARTCHAR 2E8B
ENCODING 11915
SWIDTH 1000 0
DWIDTH 14 0
BBX 13 13 1 -2
BITMAP
FFE0
C020
C020
C020
C020
C020
C3E0
C000
C000
C018
C010
C010
7FF0
ENDCHAR
STARTCHAR 2E8C
ENCODING 11916
SWIDTH 1000 0
DWIDTH 14 0
BBX 10 6 2 2
BITMAP
0C40
8C40
8C40
4CC0
4C80
0C00
ENDCHAR
STARTCHAR 2E8D
ENCODING 11917
SWIDTH 1000 0
DWIDTH 14 0
BBX 12 5 1 3
BITMAP
0C10
C430
4620
6260
2040
ENDCHAR
STARTCHAR 2E8E
ENCODING 11918
SWIDTH 1000 0
DWIDTH 14 0
BBX 13 13 1 -2
BITMAP
FFF0
1980
1980
1980
1980
1180
1180
1180
1180
3198
2190
C190
81F0
ENDCHAR
STARTCHAR 2E8F
ENCODING 11919
SWIDTH 1000 0
DWIDTH 14 0
BBX 13 14 1 -2
BITMAP
1080
1080
2040
6060
C030
8010
1900
1100
1100
1100
1118
2118
E110
81F0
ENDCHAR
STARTCHAR 2E90
ENCODING 11920
SWIDTH 1000 0
DWIDTH 14 0
BBX 12 14 1 -2
BITMAP
0C00
0C00
0C00
FFF0
0A00
0A00
0A00
0A00
1A00
1200
3210
2210
C210
83F0
ENDCHAR
STARTCHAR 2E92
ENCODING 11922
SWIDTH 1000 0
DWIDTH 14 0
BBX 13 13 1 -2
BITMAP
FFE0
C020
C020
C020
C020
FFE0
C000
C000
C000
C018
C010
C010
FFF0
ENDCHAR
STARTCHAR 2E93
ENCODING 11923
SWIDTH 1000 0
DWIDTH 14 0
BBX 12 13 1 -1
BITMAP
0200
0400
0C00
58C0
7180
1100
0A00
0480
08C0
1840
3060
FFB0
0010
ENDCHAR
STARTCHAR 2E94
ENCODING 11924
SWIDTH 1000 0
DWIDTH 14 0
BBX 12 13 1 -1
BITMAP
1000
1000
1000
3FC0
2040
2040
2040
2040
3FC0
0040
0040
0040
FFF0
ENDCHAR
STARTCHAR 2E95
ENCODING 11925
SWIDTH 1000 0
DWIDTH 14 0
BBX 12 13 1 -2
BITMAP
FFC0
0040
0040
0040
0040
FFF0
0040
0040
0040
0040
0040
FFC0
0040
ENDCHAR
STARTCHAR 2E96
ENCODING 11926
SWIDTH 1000 0
DWIDTH 14 0
BBX 6 13 4 -1
BITMAP
30
30
30
78
7C
F4
B0
30
30
30
30
30
30
ENDCHAR
STARTCHAR 2E97
ENCODING 11927
SWIDTH 1000 0
DWIDTH 14 0
BBX 12 14 1 -2
BITMAP
0400
0400
0400
0400
0400
2560
64A0
44B0
C490
8450
0400
0400
0400
1C00
ENDCHAR
STARTCHAR 2E98
ENCODING 11928
SWIDTH 1000 0
DWIDTH 14 0
BBX 6 14 4 -2
BITMAP
30
30
30
FC
30
30
34
3C
F0
B0
30
30
30
60
ENDCHAR
STARTCHAR 2E99
ENCODING 11929
SWIDTH 1000 0
DWIDTH 14 0
BBX 12 14 1 -2
BITMAP
1000
1000
3000
3FF0
6040
6040
B040
1080
1980
0F00
0600
1F80
F0F0
8010
ENDCHAR
STARTCHAR 2E9B
ENCODING 11931
SWIDTH 1000 0
DWIDTH 14 0
BBX 12 13 1 -2
BITMAP
FFF0
0200
4200
4200
4200
FFF0
0600
0600
0E00
0A10
1210
6210
C3F0
ENDCHAR
STARTCHAR 2E9F
ENCODING 11935
SWIDTH 1000 0
DWIDTH 14 0
BBX 12 13 1 -2
BITMAP
7FE0
4420
4620
4320
4020
FFF0
4020
4620
4220
FFF0
8040
0040
03C0
ENDCHAR
STARTCHAR 2EA0
ENCODING 11936
SWIDTH 1000 0
DWIDTH 14 0
BBX 13 13 1 -2
BITMAP
7FF0
4010
4010
7FF0
4200
4200
7FF0
4300
4100
4100
4498
FCD0
8070
ENDCHAR
STARTCHAR 2EA1
ENCODING 11937
SWIDTH 1000 0
DWIDTH 14 0
BBX 4 13 5 -2
BITMAP
40
30
00
00
C0
20
00
00
30
20
60
C0
80
ENDCHAR
STARTCHAR 2EA2
ENCODING 11938
SWIDTH 1000 0
DWIDTH 14 0
BBX 12 14 1 -2
BITMAP
0600
0600
C630
3660
17C0
0600
0600
0F00
1E80
3640
C630
8610
0600
1C00
ENDCHAR
STARTCHAR 2EA3
ENCODING 11939
SWIDTH 1000 0
DWIDTH 14 0
BBX 13 4 1 3
BITMAP
4920
4930
8910
8998
ENDCHAR
STARTCHAR 2EA4
ENCODING 11940
SWIDTH 1000 0
DWIDTH 14 0
BBX 12 6 1 2
BITMAP
01F0
FF00
0430
4420
4660
4040
ENDCHAR
STARTCHAR 2EA6
ENCODING 11942
SWIDTH 1000 0
DWIDTH 14 0
BBX 5 13 3 -2
BITMAP
08
08
48
48
28
08
08
18
68
C8
08
08
08
ENDCHAR
STARTCHAR 2EA8
ENCODING 11944
SWIDTH 1000 0
DWIDTH 14 0
BBX 6 14 4 -2
BITMAP
44
28
38
30
D8
08
18
38
68
C8
08
08
08
70
ENDCHAR
STARTCHAR 2EA9
ENCODING 11945
SWIDTH 1000 0
DWIDTH 14 0
BBX 6 12 4 -1
BITMAP
FC
30
30
30
30
78
30
30
30
34
3C
E0
ENDCHAR
STARTCHAR 2EAA
ENCODING 11946
SWIDTH 1000 0
DWIDTH 14 0
BBX 7 13 3 -2
BITMAP
7E
02
04
08
48
48
4E
48
48
48
4A
7C
C0
ENDCHAR
STARTCHAR 2EAB
ENCODING 11947
SWIDTH 1000 0
DWIDTH 14 0
BBX 12 5 1 3
BITMAP
FFF0
8910
8910
8910
FFF0
ENDCHAR
STARTCHAR 2EAC
ENCODING 11948
SWIDTH 1000 0
DWIDTH 14 0
BBX 12 13 1 -2
BITMAP
FFF0
0000
0000
0000
FFF0
0600
0640
2640
4620
4620
C630
8610
1C00
ENDCHAR
STARTCHAR 2EAD
ENCODING 11949
SWIDTH 1000 0
DWIDTH 14 0
BBX 12 14 1 -2
BITMAP
0600
0600
FFE0
0020
00C0
0180
0300
0F80
7EE0
E630
0600
0600
0600
0600
ENDCHAR
STARTCHAR 2EAE
ENCODING 11950
SWIDTH 1000 0
DWIDTH 14 0
BBX 12 5 1 3
BITMAP
2100
4100
7FF0
B2C0
9440
ENDCHAR
STARTCHAR 2EB1
ENCODING 11953
SWIDTH 1000 0
DWIDTH 14 0
BBX 12 6 1 2
BITMAP
FFF0
8090
BF10
8710
B8D0
8010
ENDCHAR
STARTCHAR 2EB2
ENCODING 11954
SWIDTH 1000 0
DWIDTH 14 0
BBX 12 5 1 3
BITMAP
FFF0
8910
8910
8910
FFF0
ENDCHAR
STARTCHAR 2EB3
ENCODING 11955
SWIDTH 1000 0
DWIDTH 14 0
BBX 12 6 1 2
BITMAP
FFF0
9910
9110
9150
A1D0
8010
ENDCHAR
STARTCHAR 2EB7
ENCODING 11959
SWIDTH 1000 0
DWIDTH 14 0
BBX 12 10 1 0
BITMAP
30C0
1080
FFF0
0600
0600
7FF0
0600
0600
0600
FFF0
ENDCHAR
STARTCHAR 2EB9
ENCODING 11961
SWIDTH 1000 0
DWIDTH 14 0
BBX 13 11 0 0
BITMAP
0600
0618
7FD0
0620
0640
FFF8
0100
0600
0C00
3000
6000
ENDCHAR
STARTCHAR 2EBC
ENCODING 11964
SWIDTH 1000 0
DWIDTH 14 0
BBX 11 13 1 -2
BITMAP
7FE0
6020
6820
6E20
6320
6120
6C20
6620
63A0
4020
4020
C020
81E0
ENDCHAR
STARTCHAR 2EBD
ENCODING 11965
SWIDTH 1000 0
DWIDTH 14 0
BBX 12 14 1 -2
BITMAP
0C00
F1F0
8030
8030
8030
8030
F9F0
8030
8030
8030
8030
8030
F9F0
8030
ENDCHAR
STARTCHAR 2EBE
ENCODING 11966
SWIDTH 1000 0
DWIDTH 14 0
BBX 12 5 1 3
BITMAP
1080
1080
FFF0
1080
1080
ENDCHAR
STARTCHAR 2EBF
ENCODING 11967
SWIDTH 1000 0
DWIDTH 14 0
BBX 12 4 1 3
BITMAP
2040
FFF0
2040
2040
ENDCHAR
STARTCHAR 2EC0
ENCODING 11968
SWIDTH 1000 0
DWIDTH 14 0
BBX 12 5 1 3
BITMAP
1080
1080
F0F0
1080
1080
ENDCHAR
STARTCHAR 2EC1
ENCODING 11969
SWIDTH 1000 0
DWIDTH 14 0
BBX 12 14 1 -2
BITMAP
0400
07E0
0400
7FF0
4410
7FC0
4430
47E0
4000
C900
8910
8910
9110
A1F0
ENDCHAR
STARTCHAR 2EC2
ENCODING 11970
SWIDTH 1000 0
DWIDTH 14 0
BBX 12 14 1 -2
BITMAP
0600
0600
FFE0
0060
00C0
0190
0720
0F80
3EC0
E670
0600
0600
0600
0600
ENDCHAR
STARTCHAR 2EC3
ENCODING 11971
SWIDTH 1000 0
DWIDTH 14 0
BBX 12 6 1 2
BITMAP
FFF0
0900
FFF0
8910
8910
FFF0
ENDCHAR
STARTCHAR 2EC4
ENCODING 11972
SWIDTH 1000 0
DWIDTH 14 0
BBX 13 13 1 -2
BITMAP
FFF8
1900
1900
FFF0
9910
9110
9150
9150
A1D0
A010
8010
FFF0
8010
ENDCHAR
STARTCHAR 2EC6
ENCODING 11974
SWIDTH 1000 0
DWIDTH 14 0
BBX 12 14 1 -2
BITMAP
0800
1FC0
2080
C180
FFF0
4210
7FF0
4210
4210
7FF0
4210
4210
8210
82F0
ENDCHAR
STARTCHAR 2ECA
ENCODING 11978
SWIDTH 1000 0
DWIDTH 14 0
BBX 6 13 4 -2
BITMAP
F8
88
88
F8
10
10
50
5C
50
50
54
F8
80
ENDCHAR
STARTCHAR 2ECC
ENCODING 11980
SWIDTH 1000 0
DWIDTH 14 0
BBX 13 14 1 -2
BITMAP
8000
C000
2000
0000
0000
0000
E000
2000
2000
2000
2000
6000
F000
9FF8
ENDCHAR
STARTCHAR 2ECD
ENCODING 11981
SWIDTH 1000 0
DWIDTH 14 0
BBX 13 13 1 -2
BITMAP
4000
6000
0000
8000
E000
0000
0000
E000
2000
2000
2000
F000
9FF8
ENDCHAR
STARTCHAR 2ECF
ENCODING 11983
SWIDTH 1000 0
DWIDTH 14 0
BBX 6 13 4 -2
BITMAP
FC
CC
C8
D8
D0
C8
C4
C4
C4
FC
C0
C0
C0
ENDCHAR
STARTCHAR 2ED1
ENCODING 11985
SWIDTH 1000 0
DWIDTH 14 0
BBX 12 13 1 -2
BITMAP
7FE0
6000
7FE0
6000
7FE0
6000
FFF0
6420
6660
6380
6180
6EE0
F830
ENDCHAR
STARTCHAR 2ED2
ENCODING 11986
SWIDTH 1000 0
DWIDTH 14 0
BBX 12 13 1 -2
BITMAP
3FE0
2000
2000
3FC0
2000
3FC0
2000
FFF0
1800
10C0
1040
2060
FFB0
ENDCHAR
STARTCHAR 2ED6
ENCODING 11990
SWIDTH 1000 0
DWIDTH 14 0
BBX 6 13 4 -2
BITMAP
FC
CC
C8
D8
D0
C8
C4
C4
C4
FC
C0
C0
C0
ENDCHAR
STARTCHAR 2ED7
ENCODING 11991
SWIDTH 1000 0
DWIDTH 14 0
BBX 12 7 1 1
BITMAP
FFE0
0600
FFF0
8610
B690
3FC0
0600
ENDCHAR
STARTCHAR 2ED8
ENCODING 11992
SWIDTH 1000 0
DWIDTH 14 0
BBX 12 14 1 -2
BITMAP
0600
FFF0
0600
7FE0
0600
FFF0
0000
7FE0
7FE0
4020
7FE0
4020
4020
41E0
ENDCHAR
STARTCHAR 2EDD
ENCODING 11997
SWIDTH 1000 0
DWIDTH 14 0
BBX 14 14 0 -2
BITMAP
0300
0CC0
37B0
E01C
3FE0
3020
3FE0
3020
3FE0
3318
3130
30C0
3F70
7818
ENDCHAR
STARTCHAR 2EDE
ENCODING 11998
SWIDTH 1000 0
DWIDTH 14 0
BBX 8 14 3 -2
BITMAP
18
34
63
FD
7E
42
7E
42
7E
40
7E
40
7E
40
ENDCHAR
STARTCHAR 2EDF
ENCODING 11999
SWIDTH 1000 0
DWIDTH 14 0
BBX 8 14 3 -2
BITMAP
18
36
63
D8
7E
42
7E
42
7E
40
44
4E
F2
82
ENDCHAR
STARTCHAR 2EE4
ENCODING 12004
SWIDTH 1000 0
DWIDTH 14 0
BBX 12 14 1 -2
BITMAP
0400
7FE0
4620
4620
7FE0
4620
4620
7FE0
1240
12A0
1290
22F0
6210
83F0
ENDCHAR
STARTCHAR 2EE8
ENCODING 12008
SWIDTH 1000 0
DWIDTH 14 0
BBX 13 14 1 -2
BITMAP
0600
FFF0
0600
7FF0
0600
FFF8
0800
1FC0
7040
D080
0F00
0F00
79F0
C030
ENDCHAR
STARTCHAR 2EE9
ENCODING 12009
SWIDTH 1000 0
DWIDTH 14 0
BBX 12 14 1 -2
BITMAP
1080
FFF0
1080
1080
FFF0
0600
7FE0
4620
7FE0
4620
7FE0
1080
E070
8010
ENDCHAR
STARTCHAR 2EEB
ENCODING 12011
SWIDTH 1000 0
DWIDTH 14 0
BBX 12 14 1 -2
BITMAP
0600
FFF0
30C0
1900
1F00
F0F0
2040
3FC0
2040
2040
7FC0
4040
C040
8040
ENDCHAR
STARTCHAR 2EED
ENCODING 12013
SWIDTH 1000 0
DWIDTH 14 0
BBX 12 14 1 -2
BITMAP
0200
23F0
2200
FFF0
0000
9690
8690
BFD0
8F10
9F90
B6D0
8010
FFF0
8010
ENDCHAR
STARTCHAR 2EEF
ENCODING 12015
SWIDTH 1000 0
DWIDTH 14 0
BBX 12 14 1 -2
BITMAP
0600
FFF0
1080
FFF0
0000
7FE0
4420
4420
7FE0
4420
7FE0
4410
0410
07F0
ENDCHAR
STARTCHAR 2EF2
ENCODING 12018
SWIDTH 1000 0
DWIDTH 14 0
BBX 13 14 1 -2
BITMAP
3F80
E180
FFE0
4420
7FE0
4420
7FE0
FFF0
8430
FFF0
8430
FFF8
8418
07F0
ENDCHAR
STARTCHAR 2F00
ENCODING 12032
SWIDTH 1000 0
DWIDTH 14 0
BBX 12 1 1 5
BITMAP
FFF0
ENDCHAR
STARTCHAR 2F01
ENCODING 12033
SWIDTH 1000 0
DWIDTH 14 0
BBX 2 13 6 -2
BITMAP
C0
C0
C0
C0
C0
C0
C0
C0
C0
C0
C0
C0
C0
ENDCHAR
STARTCHAR 2F02
ENCODING 12034
SWIDTH 1000 0
DWIDTH 14 0
BBX 6 6 4 1
BITMAP
80
40
20
10
18
0C
ENDCHAR
STARTCHAR 2F03
ENCODING 12035
SWIDTH 1000 0
DWIDTH 14 0
BBX 7 12 2 -2
BITMAP
06
06
06
04
04
04
04
0C
08
18
30
E0
ENDCHAR
STARTCHAR 2F04
ENCODING 12036
SWIDTH 1000 0
DWIDTH 14 0
BBX 12 13 1 -2
BITMAP
FFE0
00C0
0180
0600
0C00
1800
3000
6000
C010
8010
8010
C010
7FF0
ENDCHAR
STARTCHAR 2F05
ENCODING 12037
SWIDTH 1000 0
DWIDTH 14 0
BBX 4 14 4 -2
BITMAP
30
30
30
30
30
30
30
30
30
30
30
30
30
F0
ENDCHAR
STARTCHAR 2F06
ENCODING 12038
SWIDTH 1000 0
DWIDTH 14 0
BBX 12 10 1 0
BITMAP
FFF0
0000
0000
0000
0000
0000
0000
0000
0000
FFF0
ENDCHAR
STARTCHAR 2F07
ENCODING 12039
SWIDTH 1000 0
DWIDTH 14 0
BBX 12 5 1 3
BITMAP
0600
0600
0600
0600
FFF0
ENDCHAR
STARTCHAR 2F08
ENCODING 12040
SWIDTH 1000 0
DWIDTH 14 0
BBX 12 13 1 -2
BITMAP
0600
0600
0600
0600
0600
0600
0F00
0900
1980
1080
6060
C030
8010
ENDCHAR
STARTCHAR 2F09
ENCODING 12041
SWIDTH 1000 0
DWIDTH 14 0
BBX 12 14 1 -2
BITMAP
1080
1080
1080
1080
1080
1080
1080
1080
3080
2080
2090
6090
C090
80F0
ENDCHAR
STARTCHAR 2F0A
ENCODING 12042
SWIDTH 1000 0
DWIDTH 14 0
BBX 12 13 1 -2
BITMAP
3E00
0600
0600
0600
0600
0600
0D00
0900
1980
30C0
6060
C030
8010
ENDCHAR
STARTCHAR 2F0B
ENCODING 12043
SWIDTH 1000 0
DWIDTH 14 0
BBX 13 12 0 -2
BITMAP
0840
0840
0840
0840
0840
0840
1860
1020
1020
3030
6018
C008
ENDCHAR
STARTCHAR 2F0C
ENCODING 12044
SWIDTH 1000 0
DWIDTH 14 0
BBX 12 13 1 -2
BITMAP
FFF0
8010
8010
8010
8010
8010
8010
8010
8010
8010
8010
8010
80F0
ENDCHAR
STARTCHAR 2F0D
ENCODING 12045
SWIDTH 1000 0
DWIDTH 14 0
BBX 12 5 1 2
BITMAP
FFF0
8010
8010
8010
8010
ENDCHAR
STARTCHAR 2F0E
ENCODING 12046
SWIDTH 1000 0
DWIDTH 14 0
BBX 8 12 3 -2
BITMAP
40
60
10
08
00
00
01
02
04
18
30
C0
ENDCHAR
STARTCHAR 2F0F
ENCODING 12047
SWIDTH 1000 0
DWIDTH 14 0
BBX 14 13 0 -2
BITMAP
1FC0
1040
1040
1040
1040
1040
1040
1040
1040
304C
204C
6048
C078
ENDCHAR
STARTCHAR 2F10
ENCODING 12048
SWIDTH 1000 0
DWIDTH 14 0
BBX 12 13 1 -2
BITMAP
8010
8010
8010
8010
8010
8010
8010
8010
8010
8010
8010
FFF0
8010
ENDCHAR
STARTCHAR 2F11
ENCODING 12049
SWIDTH 1000 0
DWIDTH 14 0
BBX 12 12 1 -1
BITMAP
FFF0
0430
0420
0C20
0C20
0820
0820
1820
1020
3020
6020
C3C0
ENDCHAR
STARTCHAR 2F12
ENCODING 12050
SWIDTH 1000 0
DWIDTH 14 0
BBX 12 14 1 -2
BITMAP
0400
0400
0400
FFF0
0C10
0C10
0810
0810
1810
1010
3030
6030
C020
81E0
ENDCHAR
STARTCHAR 2F13
ENCODING 12051
SWIDTH 1000 0
DWIDTH 14 0
BBX 12 14 1 -2
BITMAP
1000
1000
3FF0
2010
4010
C010
8010
0010
0010
0010
0030
0020
0020
01E0
ENDCHAR
STARTCHAR 2F14
ENCODING 12052
SWIDTH 1000 0
DWIDTH 14 0
BBX 11 13 2 -1
BITMAP
8000
8000
8040
81C0
8700
BC00
E000
8000
8000
8020
8020
8020
FFC0
ENDCHAR
STARTCHAR 2F15
ENCODING 12053
SWIDTH 1000 0
DWIDTH 14 0
BBX 12 13 1 -2
BITMAP
FFF0
8000
8000
8000
8000
8000
8000
8000
8000
8000
8000
FFF0
8000
ENDCHAR
STARTCHAR 2F16
ENCODING 12054
SWIDTH 1000 0
DWIDTH 14 0
BBX 12 12 1 -1
BITMAP
FFF0
6000
6000
6000
6000
6000
6000
6000
6000
6000
6000
7FF0
ENDCHAR
STARTCHAR 2F17
ENCODING 12055
SWIDTH 1000 0
DWIDTH 14 0
BBX 13 14 1 -2
BITMAP
0600
0600
0600
0600
0600
FFF8
0600
0600
0600
0600
0600
0600
0600
0600
ENDCHAR
STARTCHAR 2F18
ENCODING 12056
SWIDTH 1000 0
DWIDTH 14 0
BBX 9 13 4 -2
BITMAP
8000
8000
8000
8000
C000
F800
8E00
8380
8000
8000
8000
8000
8000
ENDCHAR
STARTCHAR 2F19
ENCODING 12057
SWIDTH 1000 0
DWIDTH 14 0
BBX 8 13 3 -2
BITMAP
FF
81
81
81
81
81
81
81
81
81
8F
80
80
ENDCHAR
STARTCHAR 2F1A
ENCODING 12058
SWIDTH 1000 0
DWIDTH 14 0
BBX 12 13 1 -2
BITMAP
7FF0
4000
4000
4000
4000
4000
4000
4000
4000
C000
C000
8000
8000
ENDCHAR
STARTCHAR 2F1B
ENCODING 12059
SWIDTH 1000 0
DWIDTH 14 0
BBX 12 11 1 -1
BITMAP
0400
0400
0C00
0800
0800
1180
10C0
3040
2060
6060
FFB0
ENDCHAR
STARTCHAR 2F1C
ENCODING 12060
SWIDTH 1000 0
DWIDTH 14 0
BBX 13 13 1 -2
BITMAP
FFE0
0020
6060
2040
2040
1080
1980
0900
0600
0F00
39C0
E078
8010
ENDCHAR
STARTCHAR 2F1D
ENCODING 12061
SWIDTH 1000 0
DWIDTH 14 0
BBX 12 12 1 -1
BITMAP
FFF0
C030
C030
C030
C030
C030
C030
C030
C030
C030
FFF0
C030
ENDCHAR
STARTCHAR 2F1E
ENCODING 12062
SWIDTH 1000 0
DWIDTH 14 0
BBX 10 13 2 -2
BITMAP
FFC0
8040
8040
8040
8040
8040
8040
8040
8040
8040
8040
FFC0
8040
ENDCHAR
STARTCHAR 2F1F
ENCODING 12063
SWIDTH 1000 0
DWIDTH 14 0
BBX 12 13 1 -1
BITMAP
0600
0600
0600
0600
FFF0
0600
0600
0600
0600
0600
0600
0600
FFF0
ENDCHAR
STARTCHAR 2F20
ENCODING 12064
SWIDTH 1000 0
DWIDTH 14 0
BBX 12 13 1 -1
BITMAP
0600
0600
0600
0600
FFF0
0600
0600
0600
0600
0600
0600
0600
FFF0
ENDCHAR
STARTCHAR 2F21
ENCODING 12065
SWIDTH 1000 0
DWIDTH 14 0
BBX 12 14 1 -2
BITMAP
0800
1800
1000
1FC0
2040
6040
D0C0
1080
0900
0700
0600
1980
70E0
C030
ENDCHAR
STARTCHAR 2F22
ENCODING 12066
SWIDTH 1000 0
DWIDTH 14 0
BBX 12 14 1 -2
BITMAP
0400
0C00
0800
5FC0
3040
2040
50C0
9080
0900
0F00
0600
1B80
70E0
C030
ENDCHAR
STARTCHAR 2F23
ENCODING 12067
SWIDTH 1000 0
DWIDTH 14 0
BBX 12 14 1 -2
BITMAP
0C00
0800
1FF0
1020
3020
6060
CC40
06C0
0380
0100
0600
0C00
7800
4000
ENDCHAR
STARTCHAR 2F24
ENCODING 12068
SWIDTH 1000 0
DWIDTH 14 0
BBX 13 14 1 -2
BITMAP
0600
0600
0600
0600
FFF8
0600
0600
0600
0900
1980
1080
6060
C030
8010
ENDCHAR
STARTCHAR 2F25
ENCODING 12069
SWIDTH 1000 0
DWIDTH 14 0
BBX 13 14 1 -2
BITMAP
0C00
0800
0800
0800
FFF8
1040
3040
20C0
6080
1D80
0700
0FC0
7860
C020
ENDCHAR
STARTCHAR 2F26
ENCODING 12070
SWIDTH 1000 0
DWIDTH 14 0
BBX 12 13 1 -2
BITMAP
7FE0
0060
0180
0700
0600
FFF0
0600
0600
0600
0600
0600
0600
1C00
ENDCHAR
STARTCHAR 2F27
ENCODING 12071
SWIDTH 1000 0
DWIDTH 14 0
BBX 12 6 1 2
BITMAP
0600
0600
FFF0
8010
8010
8010
ENDCHAR
STARTCHAR 2F28
ENCODING 12072
SWIDTH 1000 0
DWIDTH 14 0
BBX 12 14 1 -2
BITMAP
00C0
00C0
00C0
FFF0
00C0
00C0
30C0
10C0
08C0
0CC0
00C0
00C0
00C0
0780
ENDCHAR
STARTCHAR 2F29
ENCODING 12073
SWIDTH 1000 0
DWIDTH 14 0
BBX 14 14 0 -2
BITMAP
0300
0300
0300
1320
1320
3330
2310
2310
6318
4308
C30C
0300
0300
0E00
ENDCHAR
STARTCHAR 2F2A
ENCODING 12074
SWIDTH 1000 0
DWIDTH 14 0
BBX 12 14 1 -2
BITMAP
0C00
0C00
0C00
FFF0
0A00
0A00
0A00
0A00
1A00
1200
3210
2210
C210
83F0
ENDCHAR
STARTCHAR 2F2B
ENCODING 12075
SWIDTH 1000 0
DWIDTH 14 0
BBX 12 13 1 -2
BITMAP
7FF0
4010
4010
4010
4010
7FF0
4010
4000
4000
4000
C000
8000
8000
ENDCHAR
STARTCHAR 2F2C
ENCODING 12076
SWIDTH 1000 0
DWIDTH 14 0
BBX 12 14 1 -2
BITMAP
0600
8610
8610
8610
8610
8610
8610
FFF0
0410
0400
0C00
0800
3000
2000
ENDCHAR
STARTCHAR 2F2D
ENCODING 12077
SWIDTH 1000 0
DWIDTH 14 0
BBX 12 14 1 -2
BITMAP
0600
0600
0600
8610
8610
8610
8610
8610
8610
8610
8610
8610
FFF0
8010
ENDCHAR
STARTCHAR 2F2E
ENCODING 12078
SWIDTH 1000 0
DWIDTH 14 0
BBX 12 13 1 -1
BITMAP
1110
1110
3220
2260
4440
CC80
8980
4C80
6440
2260
3220
1130
1110
ENDCHAR
STARTCHAR 2F2F
ENCODING 12079
SWIDTH 1000 0
DWIDTH 14 0
BBX 12 12 1 -1
BITMAP
FFF0
0600
0600
0600
0600
0600
0600
0600
0600
0600
0600
FFF0
ENDCHAR
STARTCHAR 2F30
ENCODING 12080
SWIDTH 1000 0
DWIDTH 14 0
BBX 13 13 1 -2
BITMAP
FFF0
0030
0030
0030
0030
FFF0
C000
C000
C000
C018
C018
C010
7FF0
ENDCHAR
STARTCHAR 2F31
ENCODING 12081
SWIDTH 1000 0
DWIDTH 14 0
BBX 12 14 1 -2
BITMAP
0600
0600
0600
FFF0
8610
8610
8610
8610
8610
8610
8610
86F0
0600
0600
ENDCHAR
STARTCHAR 2F32
ENCODING 12082
SWIDTH 1000 0
DWIDTH 14 0
BBX 12 13 1 -2
BITMAP
FFF0
0600
0600
0600
0600
FFF0
0600
0600
0600
0600
0600
0600
0600
ENDCHAR
STARTCHAR 2F33
ENCODING 12083
SWIDTH 1000 0
DWIDTH 14 0
BBX 12 13 1 -1
BITMAP
0200
0400
0C00
58C0
7180
1100
0A00
0480
08C0
1840
3060
FFB0
0010
ENDCHAR
STARTCHAR 2F34
ENCODING 12084
SWIDTH 1000 0
DWIDTH 14 0
BBX 12 14 1 -2
BITMAP
0200
0200
7FF0
4000
4000
4000
4000
4000
4000
4000
C000
8000
8000
8000
ENDCHAR
STARTCHAR 2F35
ENCODING 12085
SWIDTH 1000 0
DWIDTH 14 0
BBX 14 12 0 -2
BITMAP
7800
1800
3000
6000
7800
0800
4800
4800
3000
3000
3800
CFFC
ENDCHAR
STARTCHAR 2F36
ENCODING 12086
SWIDTH 1000 0
DWIDTH 14 0
BBX 12 14 1 -2
BITMAP
1080
1080
1080
1080
1080
FFF0
1080
1080
1080
1080
2080
6080
C080
8080
ENDCHAR
STARTCHAR 2F37
ENCODING 12087
SWIDTH 1000 0
DWIDTH 14 0
BBX 14 14 0 -2
BITMAP
0200
0260
0230
0200
FFFC
7200
0300
0100
0100
0100
0088
00C8
0068
0030
ENDCHAR
STARTCHAR 2F38
ENCODING 12088
SWIDTH 1000 0
DWIDTH 14 0
BBX 12 13 1 -2
BITMAP
FFE0
0020
0020
7FE0
4000
4000
4000
FFF0
8010
0010
0030
0020
03E0
ENDCHAR
STARTCHAR 2F39
ENCODING 12089
SWIDTH 1000 0
DWIDTH 14 0
BBX 12 12 1 -1
BITMAP
FFC0
0040
0040
0040
0040
FFC0
0040
0040
0040
0040
0040
FFF0
ENDCHAR
STARTCHAR 2F3A
ENCODING 12090
SWIDTH 1000 0
DWIDTH 14 0
BBX 11 13 2 -2
BITMAP
0180
0300
0C00
F000
8180
0300
0C00
F060
80C0
0380
0E00
F000
8000
ENDCHAR
STARTCHAR 2F3B
ENCODING 12091
SWIDTH 1000 0
DWIDTH 14 0
BBX 9 13 2 -1
BITMAP
0300
0600
1C80
7180
4300
0600
1C00
E400
8400
0400
0400
0400
0400
ENDCHAR
STARTCHAR 2F3C
ENCODING 12092
SWIDTH 1000 0
DWIDTH 14 0
BBX 14 14 0 -2
BITMAP
0C00
0F80
00C0
0000
0800
2810
2810
6818
6808
4808
4828
C82C
0860
0FC0
ENDCHAR
STARTCHAR 2F3D
ENCODING 12093
SWIDTH 1000 0
DWIDTH 14 0
BBX 12 14 1 -2
BITMAP
04C0
0460
0400
FFF0
0400
0460
0440
0680
0380
0300
0F10
3910
E090
8060
ENDCHAR
STARTCHAR 2F3E
ENCODING 12094
SWIDTH 1000 0
DWIDTH 14 0
BBX 13 13 0 -2
BITMAP
FFF8
0000
0000
3FF0
2010
2010
2010
3FF0
2010
2000
6000
4000
4000
ENDCHAR
STARTCHAR 2F3F
ENCODING 12095
SWIDTH 1000 0
DWIDTH 14 0
BBX 13 14 1 -2
BITMAP
0060
FFC0
0600
0600
FFF0
0600
0600
0600
FFF8
0600
0600
0600
0600
1C00
ENDCHAR
STARTCHAR 2F40
ENCODING 12096
SWIDTH 1000 0
DWIDTH 14 0
BBX 12 14 1 -2
BITMAP
0600
0600
FFF0
0600
0600
7FC0
0040
30C0
1980
0900
0600
1F80
F0F0
C010
ENDCHAR
STARTCHAR 2F41
ENCODING 12097
SWIDTH 1000 0
DWIDTH 14 0
BBX 12 14 1 -2
BITMAP
0400
0400
07F0
0400
0400
FFE0
0060
2040
1080
1980
0F00
0F00
F9F0
C030
ENDCHAR
STARTCHAR 2F42
ENCODING 12098
SWIDTH 1000 0
DWIDTH 14 0
BBX 13 14 1 -2
BITMAP
0600
0600
FFF8
2040
2040
30C0
1080
1980
0900
0600
0E00
1980
F0E0
C030
ENDCHAR
STARTCHAR 2F43
ENCODING 12099
SWIDTH 1000 0
DWIDTH 14 0
BBX 14 13 0 -1
BITMAP
1040
1840
0640
0040
3040
1840
0440
0040
03FC
FF40
0040
0040
0040
ENDCHAR
STARTCHAR 2F44
ENCODING 12100
SWIDTH 1000 0
DWIDTH 14 0
BBX 12 14 1 -2
BITMAP
00E0
7FC0
4000
4000
4000
7FF0
4100
4100
4100
4100
4100
C100
8100
8100
ENDCHAR
STARTCHAR 2F45
ENCODING 12101
SWIDTH 1000 0
DWIDTH 14 0
BBX 14 14 0 -2
BITMAP
0300
0300
FFFC
0400
0400
0400
0FF0
0C10
0810
0810
1810
3030
6020
41E0
ENDCHAR
STARTCHAR 2F46
ENCODING 12102
SWIDTH 1000 0
DWIDTH 14 0
BBX 12 13 1 -2
BITMAP
FFF0
0600
0600
0400
0400
FFF0
0400
0E00
0A00
1A10
3210
6210
C3F0
ENDCHAR
STARTCHAR 2F47
ENCODING 12103
SWIDTH 1000 0
DWIDTH 14 0
BBX 10 13 2 -2
BITMAP
FFC0
8040
8040
8040
8040
FFC0
8040
8040
8040
8040
8040
FFC0
8040
ENDCHAR
STARTCHAR 2F48
ENCODING 12104
SWIDTH 1000 0
DWIDTH 14 0
BBX 10 13 2 -2
BITMAP
FFC0
8040
8040
8040
8040
FF40
8040
8040
8040
8040
8040
FFC0
8040
ENDCHAR
STARTCHAR 2F49
ENCODING 12105
SWIDTH 1000 0
DWIDTH 14 0
BBX 11 13 1 -2
BITMAP
7FE0
6020
6020
7FE0
6020
6020
6020
7FE0
6020
4020
4020
C020
81E0
ENDCHAR
STARTCHAR 2F4A
ENCODING 12106
SWIDTH 1000 0
DWIDTH 14 0
BBX 14 14 0 -2
BITMAP
0300
0300
0300
FFFC
0300
0780
0780
0B40
1B60
3330
6318
4308
0300
0300
ENDCHAR
STARTCHAR 2F4B
ENCODING 12107
SWIDTH 1000 0
DWIDTH 14 0
BBX 12 14 1 -2
BITMAP
1000
1000
3FF0
2010
4430
8420
0660
0640
0E00
0900
1980
30C0
E070
8010
ENDCHAR
STARTCHAR 2F4C
ENCODING 12108
SWIDTH 1000 0
DWIDTH 14 0
BBX 12 13 1 -1
BITMAP
0200
0200
0200
2200
2200
23F0
2200
2200
2200
2200
2200
2200
FFF0
ENDCHAR
STARTCHAR 2F4D
ENCODING 12109
SWIDTH 1000 0
DWIDTH 14 0
BBX 12 13 1 -2
BITMAP
FFF0
0C00
0800
1FE0
3040
6040
18C0
0C80
0700
0600
0C00
7000
4000
ENDCHAR
STARTCHAR 2F4E
ENCODING 12110
SWIDTH 1000 0
DWIDTH 14 0
BBX 12 13 1 -2
BITMAP
3F80
2080
2090
C0F0
8000
0000
FFE0
2060
30C0
1980
0600
3FC0
E070
ENDCHAR
STARTCHAR 2F4F
ENCODING 12111
SWIDTH 1000 0
DWIDTH 14 0
BBX 12 13 1 -2
BITMAP
7FE0
4220
4220
4220
4220
FFF0
4420
4420
4420
7FF0
C040
0040
03C0
ENDCHAR
STARTCHAR 2F50
ENCODING 12112
SWIDTH 1000 0
DWIDTH 14 0
BBX 13 14 0 -2
BITMAP
2100
2100
2108
2118
3F70
21C0
2100
2100
2100
2100
2108
2308
3F08
E1F8
ENDCHAR
STARTCHAR 2F51
ENCODING 12113
SWIDTH 1000 0
DWIDTH 14 0
BBX 13 14 1 -2
BITMAP
0060
FFC0
0400
0400
07F0
FC00
0400
0400
FFF0
0400
0410
0418
0410
07F0
ENDCHAR
STARTCHAR 2F52
ENCODING 12114
SWIDTH 1000 0
DWIDTH 14 0
BBX 14 14 0 -2
BITMAP
0030
3FE0
2100
2100
2100
3FF8
2100
2180
2080
2080
208C
2248
7E68
C038
ENDCHAR
STARTCHAR 2F53
ENCODING 12115
SWIDTH 1000 0
DWIDTH 14 0
BBX 13 14 1 -2
BITMAP
2000
7FF0
C000
BFE0
0000
0000
FFC0
0040
0040
0040
0040
0058
0070
0030
ENDCHAR
STARTCHAR 2F54
ENCODING 12116
SWIDTH 1000 0
DWIDTH 14 0
BBX 14 14 0 -2
BITMAP
0300
0300
0308
0318
7F30
0BE0
0B80
0BC0
1B40
1320
2330
C31C
0300
0E00
ENDCHAR
STARTCHAR 2F55
ENCODING 12117
SWIDTH 1000 0
DWIDTH 14 0
BBX 12 13 1 -1
BITMAP
0600
0600
8610
C630
4620
6660
2640
0F00
0900
1980
30C0
E070
8010
ENDCHAR
STARTCHAR 2F56
ENCODING 12118
SWIDTH 1000 0
DWIDTH 14 0
BBX 12 14 1 -2
BITMAP
0060
7FC0
4440
4440
4440
4440
4460
4420
4420
4420
C430
8410
8410
0410
ENDCHAR
STARTCHAR 2F57
ENCODING 12119
SWIDTH 1000 0
DWIDTH 14 0
BBX 12 13 1 -1
BITMAP
1080
10C0
2040
4020
9090
1080
1900
0B00
0600
0F00
1980
70E0
C030
ENDCHAR
STARTCHAR 2F58
ENCODING 12120
SWIDTH 1000 0
DWIDTH 14 0
BBX 12 13 1 -1
BITMAP
4060
38C0
0780
07C0
7860
D090
1080
1980
0900
0600
0F00
71C0
C030
ENDCHAR
STARTCHAR 2F59
ENCODING 12121
SWIDTH 1000 0
DWIDTH 14 0
BBX 10 14 1 -2
BITMAP
00C0
20C0
20C0
20C0
3FC0
00C0
00C0
00C0
FFC0
10C0
10C0
10C0
60C0
40C0
ENDCHAR
STARTCHAR 2F5A
ENCODING 12122
SWIDTH 1000 0
DWIDTH 14 0
BBX 12 14 1 -2
BITMAP
4300
4300
4300
4300
7FF0
4000
4000
4000
7F80
4080
4080
C080
8080
8080
ENDCHAR
STARTCHAR 2F5B
ENCODING 12123
SWIDTH 1000 0
DWIDTH 14 0
BBX 12 13 1 -2
BITMAP
7FF0
4080
4080
4080
4080
FFF0
0180
0280
0480
1880
7080
C080
0380
ENDCHAR
STARTCHAR 2F5C
ENCODING 12124
SWIDTH 1000 0
DWIDTH 14 0
BBX 12 14 1 -2
BITMAP
2600
2600
6600
7FF0
C600
8600
8600
0600
FFF0
0600
0600
0600
0600
0600
ENDCHAR
STARTCHAR 2F5D
ENCODING 12125
SWIDTH 1000 0
DWIDTH 14 0
BBX 12 14 1 -2
BITMAP
0400
04C0
0460
0400
FFF0
0600
0600
0600
0900
0900
1080
3040
C030
8010
ENDCHAR
STARTCHAR 2F5E
ENCODING 12126
SWIDTH 1000 0
DWIDTH 14 0
BBX 12 14 1 -2
BITMAP
0600
0600
FFF0
0C00
08C0
5080
7100
1B00
0E00
0CC0
0840
1060
FFF0
0010
ENDCHAR
STARTCHAR 2F5F
ENCODING 12127
SWIDTH 1000 0
DWIDTH 14 0
BBX 12 12 1 -1
BITMAP
FFF0
0600
0600
0600
0600
7FE0
0600
06C0
0640
0660
0600
FFF0
ENDCHAR
STARTCHAR 2F60
ENCODING 12128
SWIDTH 1000 0
DWIDTH 14 0
BBX 14 13 0 -2
BITMAP
0030
3FE0
2220
2220
2220
2220
2230
2210
2210
6250
4258
42C8
DF6C
ENDCHAR
STARTCHAR 2F61
ENCODING 12129
SWIDTH 1000 0
DWIDTH 14 0
BBX 14 13 0 -2
BITMAP
7FF8
0800
0800
0FE0
0820
1220
1220
1320
1120
1060
23E4
FE6C
0038
ENDCHAR
STARTCHAR 2F62
ENCODING 12130
SWIDTH 1000 0
DWIDTH 14 0
BBX 12 14 1 -2
BITMAP
2040
2040
2040
FFF0
2040
2040
2040
3FC0
2040
2040
2040
2040
3FC0
2040
ENDCHAR
STARTCHAR 2F63
ENCODING 12131
SWIDTH 1000 0
DWIDTH 14 0
BBX 12 13 1 -1
BITMAP
2600
2600
6600
7FF0
C600
8600
8600
0600
FFF0
0600
0600
0600
FFF0
ENDCHAR
STARTCHAR 2F64
ENCODING 12132
SWIDTH 1000 0
DWIDTH 14 0
BBX 12 13 1 -2
BITMAP
7FF0
4210
4210
7FF0
4210
4210
4210
7FF0
4210
4210
C210
8210
8270
ENDCHAR
STARTCHAR 2F65
ENCODING 12133
SWIDTH 1000 0
DWIDTH 14 0
BBX 12 13 1 -2
BITMAP
FFF0
8610
8610
8610
8610
FFF0
8610
8610
8610
8610
8610
FFF0
8010
ENDCHAR
STARTCHAR 2F66
ENCODING 12134
SWIDTH 1000 0
DWIDTH 14 0
BBX 14 12 0 -2
BITMAP
7FF8
0308
0310
1330
1300
13F8
1300
3300
3300
2B00
6700
C3FC
ENDCHAR
STARTCHAR 2F67
ENCODING 12135
SWIDTH 1000 0
DWIDTH 14 0
BBX 13 14 0 -2
BITMAP
0100
1FF8
D000
5000
5000
1000
1000
7000
D000
3000
2000
2000
6000
4000
ENDCHAR
STARTCHAR 2F68
ENCODING 12136
SWIDTH 1000 0
DWIDTH 14 0
BBX 12 6 1 2
BITMAP
7E40
0790
4930
30E0
6060
C030
ENDCHAR
STARTCHAR 2F69
ENCODING 12137
SWIDTH 1000 0
DWIDTH 14 0
BBX 12 14 1 -2
BITMAP
0400
0400
FFF0
C030
C030
C030
C030
FFF0
C030
C030
C030
C030
FFF0
C030
ENDCHAR
STARTCHAR 2F6A
ENCODING 12138
SWIDTH 1000 0
DWIDTH 14 0
BBX 13 14 1 -2
BITMAP
0200
0200
7FF0
4210
4220
7FE0
4060
5840
48C0
4C80
C700
8780
BCF8
A030
ENDCHAR
STARTCHAR 2F6B
ENCODING 12139
SWIDTH 1000 0
DWIDTH 14 0
BBX 12 12 1 -1
BITMAP
7FF0
4930
4930
4930
4930
4930
4930
4930
4930
4930
4930
FFF0
ENDCHAR
STARTCHAR 2F6C
ENCODING 12140
SWIDTH 1000 0
DWIDTH 14 0
BBX 10 13 2 -2
BITMAP
FFC0
8040
8040
FFC0
8040
8040
8040
FFC0
8040
8040
8040
FFC0
8040
ENDCHAR
STARTCHAR 2F6D
ENCODING 12141
SWIDTH 1000 0
DWIDTH 14 0
BBX 13 13 0 -2
BITMAP
3FF0
0030
0FC0
0180
7FF8
0308
0718
0530
1920
3100
E100
0100
0F00
ENDCHAR
STARTCHAR 2F6E
ENCODING 12142
SWIDTH 1000 0
DWIDTH 14 0
BBX 12 14 1 -2
BITMAP
3000
2000
3FF0
4600
C600
8400
0400
FFF0
0600
0F00
0900
30C0
6060
C010
ENDCHAR
STARTCHAR 2F6F
ENCODING 12143
SWIDTH 1000 0
DWIDTH 14 0
BBX 12 13 1 -2
BITMAP
FFF0
0800
1800
1000
1000
3FE0
6020
E020
A020
2020
2020
3FE0
2020
ENDCHAR
STARTCHAR 2F70
ENCODING 12144
SWIDTH 1000 0
DWIDTH 14 0
BBX 12 13 1 -2
BITMAP
FFF0
0000
0000
0000
FFF0
0600
0640
2640
4620
4620
C630
8610
1C00
ENDCHAR
STARTCHAR 2F71
ENCODING 12145
SWIDTH 1000 0
DWIDTH 14 0
BBX 12 14 1 -2
BITMAP
0200
0600
FFF0
8410
8810
8990
9890
90D0
BFD0
8050
8010
8010
8010
80F0
ENDCHAR
STARTCHAR 2F72
ENCODING 12146
SWIDTH 1000 0
DWIDTH 14 0
BBX 13 14 1 -2
BITMAP
0060
FFC0
0600
0600
0600
FFF0
0600
0F00
1F80
36C0
6660
C638
0600
0600
ENDCHAR
STARTCHAR 2F73
ENCODING 12147
SWIDTH 1000 0
DWIDTH 14 0
BBX 12 14 1 -2
BITMAP
0600
0600
FFF0
8010
8010
9990
1080
1080
1080
30C0
2040
4060
C030
8010
ENDCHAR
STARTCHAR 2F74
ENCODING 12148
SWIDTH 1000 0
DWIDTH 14 0
BBX 13 13 1 -1
BITMAP
0600
0600
FFF0
0000
2040
3040
10C0
1080
1080
1080
1980
0100
FFF8
ENDCHAR
STARTCHAR 2F75
ENCODING 12149
SWIDTH 1000 0
DWIDTH 14 0
BBX 13 14 0 -2
BITMAP
10C0
1080
2080
3EF8
6930
CB30
0A30
0830
0830
0830
0830
0830
0830
08E0
ENDCHAR
STARTCHAR 2F76
ENCODING 12150
SWIDTH 1000 0
DWIDTH 14 0
BBX 14 14 0 -2
BITMAP
0300
2310
3330
1320
0300
7FF8
0300
0780
0B40
1B60
3330
E31C
0300
0300
ENDCHAR
STARTCHAR 2F77
ENCODING 12151
SWIDTH 1000 0
DWIDTH 14 0
BBX 14 14 0 -2
BITMAP
0600
0440
28C0
3880
0D20
0630
0418
FFF8
0308
1320
3330
6318
C30C
0300
ENDCHAR
STARTCHAR 2F78
ENCODING 12152
SWIDTH 1000 0
DWIDTH 14 0
BBX 12 14 1 -2
BITMAP
1000
2000
3FF0
4600
C600
0600
FFF0
0600
4620
4620
4620
4620
7FE0
4020
ENDCHAR
STARTCHAR 2F79
ENCODING 12153
SWIDTH 1000 0
DWIDTH 14 0
BBX 12 13 1 -2
BITMAP
FFF0
8890
8890
8890
AA90
9990
9990
9550
9110
A310
E210
8010
80F0
ENDCHAR
STARTCHAR 2F7A
ENCODING 12154
SWIDTH 1000 0
DWIDTH 14 0
BBX 12 14 1 -2
BITMAP
30C0
1080
FFF0
0600
0600
0600
FFF0
0600
0600
FFF0
0600
0600
0600
0600
ENDCHAR
STARTCHAR 2F7B
ENCODING 12155
SWIDTH 1000 0
DWIDTH 14 0
BBX 13 13 0 -2
BITMAP
7DF8
0408
4408
6488
3448
0448
0428
1C68
34C8
E588
0508
0408
1C78
ENDCHAR
STARTCHAR 2F7C
ENCODING 12156
SWIDTH 1000 0
DWIDTH 14 0
BBX 13 14 1 -2
BITMAP
0C00
0C30
FFE0
0CC0
0D80
FFF8
0C00
3820
F0E0
9780
1C00
1010
1010
1FF0
ENDCHAR
STARTCHAR 2F7D
ENCODING 12157
SWIDTH 1000 0
DWIDTH 14 0
BBX 12 13 1 -2
BITMAP
FFF0
0400
0400
FFF0
8910
8910
8910
8910
8910
8910
8910
8910
8970
ENDCHAR
STARTCHAR 2F7E
ENCODING 12158
SWIDTH 1000 0
DWIDTH 14 0
BBX 12 14 1 -2
BITMAP
0600
0630
FFC0
0600
FFF0
0600
0600
FFF0
0F00
1F00
36C0
6660
8610
0600
ENDCHAR
STARTCHAR 2F7F
ENCODING 12159
SWIDTH 1000 0
DWIDTH 14 0
BBX 12 13 1 -2
BITMAP
FFF0
2040
2040
3FC0
2040
2040
3FC0
2040
2040
3FF0
FFC0
0040
0040
ENDCHAR
STARTCHAR 2F80
ENCODING 12160
SWIDTH 1000 0
DWIDTH 14 0
BBX 12 14 1 -2
BITMAP
0600
7FE0
0620
0620
FFF0
0620
7FE0
0600
FFF0
0600
0600
FFF0
0600
0600
ENDCHAR
STARTCHAR 2F81
ENCODING 12161
SWIDTH 1000 0
DWIDTH 14 0
BBX 12 14 1 -2
BITMAP
0600
0400
FFF0
8610
8F10
9990
B2D0
8610
8610
8910
B0D0
A050
8010
80F0
ENDCHAR
STARTCHAR 2F82
ENCODING 12162
SWIDTH 1000 0
DWIDTH 14 0
BBX 12 13 1 -2
BITMAP
FFF0
8600
8600
FFE0
8020
8020
8020
FFE0
8600
8600
8600
FFF0
8000
ENDCHAR
STARTCHAR 2F83
ENCODING 12163
SWIDTH 1000 0
DWIDTH 14 0
BBX 10 14 2 -2
BITMAP
0800
0800
FFC0
8040
8040
FFC0
8040
8040
FFC0
8040
8040
8040
FFC0
8040
ENDCHAR
STARTCHAR 2F84
ENCODING 12164
SWIDTH 1000 0
DWIDTH 14 0
BBX 12 12 1 -1
BITMAP
FFF0
1800
10C0
3060
FFF0
0610
0600
FFF0
0600
0600
0600
FFF0
ENDCHAR
STARTCHAR 2F85
ENCODING 12165
SWIDTH 1000 0
DWIDTH 14 0
BBX 12 14 1 -2
BITMAP
0800
FBF0
8010
8010
8010
8010
F9F0
8010
8010
8010
8010
8010
FFF0
8010
ENDCHAR
STARTCHAR 2F86
ENCODING 12166
SWIDTH 1000 0
DWIDTH 14 0
BBX 12 14 1 -2
BITMAP
0060
7FC0
0600
0600
FFF0
0600
0600
0600
7FE0
4020
4020
4020
7FE0
4020
ENDCHAR
STARTCHAR 2F87
ENCODING 12167
SWIDTH 1000 0
DWIDTH 14 0
BBX 12 14 1 -2
BITMAP
2020
2020
7820
4BF0
C820
CA20
EA20
3220
1220
37F0
2020
4020
C020
8020
ENDCHAR
STARTCHAR 2F88
ENCODING 12168
SWIDTH 1000 0
DWIDTH 14 0
BBX 12 14 1 -2
BITMAP
0600
0400
3FE0
2020
2420
2220
2020
FFF0
6620
6620
4620
4620
C020
81E0
ENDCHAR
STARTCHAR 2F89
ENCODING 12169
SWIDTH 1000 0
DWIDTH 14 0
BBX 12 13 1 -2
BITMAP
7FE0
4020
7FE0
4020
4020
7FE0
4210
4220
43C0
4180
40C0
7E60
F010
ENDCHAR
STARTCHAR 2F8A
ENCODING 12170
SWIDTH 1000 0
DWIDTH 14 0
BBX 12 14 1 -2
BITMAP
1800
1FC0
6080
C180
FFF0
4230
4230
4230
7FF0
4000
4010
4010
4010
7FF0
ENDCHAR
STARTCHAR 2F8B
ENCODING 12171
SWIDTH 1000 0
DWIDTH 14 0
BBX 12 14 1 -2
BITMAP
2040
AF50
AF50
AF50
AF50
AF50
AF50
AF50
AF50
FFF0
2F50
6040
4040
8040
ENDCHAR
STARTCHAR 2F8C
ENCODING 12172
SWIDTH 1000 0
DWIDTH 14 0
BBX 12 14 1 -2
BITMAP
0400
07E0
0400
0400
7FF0
4010
4410
4400
7FE0
4400
C410
8410
8410
87F0
ENDCHAR
STARTCHAR 2F8D
ENCODING 12173
SWIDTH 1000 0
DWIDTH 14 0
BBX 13 14 0 -2
BITMAP
0300
0300
0300
7FF8
6308
6308
6308
6308
7FF8
0300
0320
0310
03F8
FF08
ENDCHAR
STARTCHAR 2F8E
ENCODING 12174
SWIDTH 1000 0
DWIDTH 14 0
BBX 12 13 1 -1
BITMAP
0400
0400
FFF0
C930
C930
C930
C930
C930
C930
C930
C930
C930
FFF0
ENDCHAR
STARTCHAR 2F8F
ENCODING 12175
SWIDTH 1000 0
DWIDTH 14 0
BBX 13 14 0 -2
BITMAP
1000
13F8
2000
C800
1000
37F8
2020
6020
A020
2020
2020
2020
2020
21E0
ENDCHAR
STARTCHAR 2F90
ENCODING 12176
SWIDTH 1000 0
DWIDTH 14 0
BBX 13 14 0 -2
BITMAP
0300
0300
7FF8
0700
0508
0D98
18B0
38E0
E8C0
0840
0860
0830
0F98
7808
ENDCHAR
STARTCHAR 2F91
ENCODING 12177
SWIDTH 1000 0
DWIDTH 14 0
BBX 12 12 1 -1
BITMAP
FFF0
0900
0900
FFF0
C930
C930
C930
C930
CF30
C030
C030
C030
ENDCHAR
STARTCHAR 2F92
ENCODING 12178
SWIDTH 1000 0
DWIDTH 14 0
BBX 13 13 1 -2
BITMAP
7FE0
4020
7FE0
4020
4020
7FE0
4020
7FE0
1900
1118
3110
6110
C1F0
ENDCHAR
STARTCHAR 2F93
ENCODING 12179
SWIDTH 1000 0
DWIDTH 14 0
BBX 12 14 1 -2
BITMAP
0800
1FC0
2080
C180
FFF0
4210
7FF0
4210
4210
7FF0
4010
C010
8010
80F0
ENDCHAR
STARTCHAR 2F94
ENCODING 12180
SWIDTH 1000 0
DWIDTH 14 0
BBX 12 13 1 -2
BITMAP
7FE0
0000
FFF0
0000
7FE0
0000
7FE0
0000
7FE0
4020
4020
7FE0
4020
ENDCHAR
STARTCHAR 2F95
ENCODING 12181
SWIDTH 1000 0
DWIDTH 14 0
BBX 14 14 0 -2
BITMAP
0840
1860
7038
4308
0780
0CC0
3870
E01C
3FF0
3030
3030
3030
3FF0
3030
ENDCHAR
STARTCHAR 2F96
ENCODING 12182
SWIDTH 1000 0
DWIDTH 14 0
BBX 12 12 1 -1
BITMAP
FFF0
0000
7FE0
4020
4020
4020
7FE0
0080
1080
1080
1080
FFF0
ENDCHAR
STARTCHAR 2F97
ENCODING 12183
SWIDTH 1000 0
DWIDTH 14 0
BBX 12 13 1 -2
BITMAP
FFF0
0500
0D20
3560
C7C0
0E80
3180
E340
0D60
1930
E110
8300
1E00
ENDCHAR
STARTCHAR 2F98
ENCODING 12184
SWIDTH 1000 0
DWIDTH 14 0
BBX 10 14 2 -2
BITMAP
0100
1E00
F400
24C0
3300
0E00
F200
0700
3900
E300
0D00
F100
8100
0F00
ENDCHAR
STARTCHAR 2F99
ENCODING 12185
SWIDTH 1000 0
DWIDTH 14 0
BBX 12 13 1 -2
BITMAP
7FE0
4020
4020
7FE0
4020
4020
7FE0
4020
4020
7FE0
30C0
E070
8010
ENDCHAR
STARTCHAR 2F9A
ENCODING 12186
SWIDTH 1000 0
DWIDTH 14 0
BBX 13 14 1 -2
BITMAP
0600
0600
FFF0
0600
0600
FFF0
0900
6940
4960
5920
9130
B118
6100
4700
ENDCHAR
STARTCHAR 2F9B
ENCODING 12187
SWIDTH 1000 0
DWIDTH 14 0
BBX 13 14 0 -2
BITMAP
0300
0300
7FF8
0300
0300
7FF8
0300
1300
13F0
1300
3300
2B00
6F00
C3F8
ENDCHAR
STARTCHAR 2F9C
ENCODING 12188
SWIDTH 1000 0
DWIDTH 14 0
BBX 13 13 0 -2
BITMAP
3FF0
2010
2010
3FF0
0300
1300
1300
13F8
3300
3300
2B00
6F00
C3F8
ENDCHAR
STARTCHAR 2F9D
ENCODING 12189
SWIDTH 1000 0
DWIDTH 14 0
BBX 12 14 1 -2
BITMAP
0400
3FC0
2040
2040
3FC0
2050
3FD0
2060
21C0
FEC0
0340
0C40
F040
81C0
ENDCHAR
STARTCHAR 2F9E
ENCODING 12190
SWIDTH 1000 0
DWIDTH 14 0
BBX 14 14 0 -2
BITMAP
0300
7FF8
0300
0300
3FF0
2310
3FF0
2310
3FF0
0300
0300
FFFC
0300
0300
ENDCHAR
STARTCHAR 2F9F
ENCODING 12191
SWIDTH 1000 0
DWIDTH 14 0
BBX 12 14 1 -2
BITMAP
0600
0600
FFF0
1080
1080
1080
FFF0
0600
0600
FFF0
0600
0600
0600
0600
ENDCHAR
STARTCHAR 2FA0
ENCODING 12192
SWIDTH 1000 0
DWIDTH 14 0
BBX 14 13 0 -2
BITMAP
7FF8
6000
7FF0
6000
6000
7FFC
6D00
4C90
4CE0
4C40
4C60
DF98
1808
ENDCHAR
STARTCHAR 2FA1
ENCODING 12193
SWIDTH 1000 0
DWIDTH 14 0
BBX 14 14 0 -2
BITMAP
0030
03E0
7E00
01F0
3E08
0078
03E0
7F00
1300
13F8
3300
3B00
6F00
C3FC
ENDCHAR
STARTCHAR 2FA2
ENCODING 12194
SWIDTH 1000 0
DWIDTH 14 0
BBX 13 13 1 -2
BITMAP
7FE0
4020
7FE0
0000
FFF0
C630
C630
C630
FFF0
C000
C018
C010
7FF0
ENDCHAR
STARTCHAR 2FA3
ENCODING 12195
SWIDTH 1000 0
DWIDTH 14 0
BBX 12 13 1 -2
BITMAP
FFF0
0900
FFF0
8910
9910
9150
B1D0
A010
8010
FFF0
8010
FFF0
8010
ENDCHAR
STARTCHAR 2FA4
ENCODING 12196
SWIDTH 1000 0
DWIDTH 14 0
BBX 13 14 1 -2
BITMAP
0070
FFC0
0620
2660
3640
0600
FFF8
0600
0F00
1E80
36C0
6660
C638
0600
ENDCHAR
STARTCHAR 2FA5
ENCODING 12197
SWIDTH 1000 0
DWIDTH 14 0
BBX 13 12 1 -1
BITMAP
7FE0
4620
4620
7FE0
4620
4620
7FE0
0600
FFF0
0600
0600
FFF8
ENDCHAR
STARTCHAR 2FA6
ENCODING 12198
SWIDTH 1000 0
DWIDTH 14 0
BBX 12 13 1 -1
BITMAP
0600
0900
30C0
E070
BFD0
0600
0600
FFF0
0600
2640
26C0
3680
FFF0
ENDCHAR
STARTCHAR 2FA7
ENCODING 12199
SWIDTH 1000 0
DWIDTH 14 0
BBX 12 13 1 -2
BITMAP
7FE0
6000
7FE0
6000
7FE0
6000
FFF0
6420
6660
6380
6180
6EE0
F830
ENDCHAR
STARTCHAR 2FA8
ENCODING 12200
SWIDTH 1000 0
DWIDTH 14 0
BBX 12 13 1 -2
BITMAP
F9F0
8910
F9F0
8910
F9F0
8010
8010
8010
8010
8010
8010
8010
8070
ENDCHAR
STARTCHAR 2FA9
ENCODING 12201
SWIDTH 1000 0
DWIDTH 14 0
BBX 12 14 1 -2
BITMAP
0400
7FE0
4020
7FE0
4000
7FE0
4020
4020
7FE0
0600
FFF0
0600
0600
0600
ENDCHAR
STARTCHAR 2FAA
ENCODING 12202
SWIDTH 1000 0
DWIDTH 14 0
BBX 13 14 1 -2
BITMAP
0600
7FE0
0620
0620
FFF0
0620
7FE0
0600
6630
3760
1E80
3640
C638
1C00
ENDCHAR
STARTCHAR 2FAB
ENCODING 12203
SWIDTH 1000 0
DWIDTH 14 0
BBX 12 14 1 -2
BITMAP
1100
1100
3300
3FF0
6200
E200
BFF0
2200
2200
3FF0
2200
2200
3FF0
2000
ENDCHAR
STARTCHAR 2FAC
ENCODING 12204
SWIDTH 1000 0
DWIDTH 14 0
BBX 12 13 1 -2
BITMAP
FFF0
0600
0600
FFF0
8610
A790
96D0
8610
A710
B6D0
8650
8610
8670
ENDCHAR
STARTCHAR 2FAD
ENCODING 12205
SWIDTH 1000 0
DWIDTH 14 0
BBX 12 14 1 -2
BITMAP
0600
FFF0
0600
FFF0
0600
FFF0
0000
7FE0
4620
4620
7FE0
4020
4020
41E0
ENDCHAR
STARTCHAR 2FAE
ENCODING 12206
SWIDTH 1000 0
DWIDTH 14 0
BBX 13 14 0 -2
BITMAP
0480
0480
7CF8
0480
0480
7C80
04F8
0480
0C80
FE80
18F8
3080
6080
4080
ENDCHAR
STARTCHAR 2FAF
ENCODING 12207
SWIDTH 1000 0
DWIDTH 14 0
BBX 13 13 0 -2
BITMAP
FFF8
0200
0200
7FF8
4848
4FC8
4848
4848
4FC8
4848
4848
7FF8
4008
ENDCHAR
STARTCHAR 2FB0
ENCODING 12208
SWIDTH 1000 0
DWIDTH 14 0
BBX 13 14 1 -2
BITMAP
10C0
FFF0
10C0
10C0
1FC0
0600
7FE0
4620
7FE0
0600
0600
FFF8
0600
0600
ENDCHAR
STARTCHAR 2FB1
ENCODING 12209
SWIDTH 1000 0
DWIDTH 14 0
BBX 12 14 1 -2
BITMAP
0400
7FE0
0C20
FFF0
0000
7FE0
4020
7FE0
0100
7FF0
4100
FFF0
0100
0100
ENDCHAR
STARTCHAR 2FB2
ENCODING 12210
SWIDTH 1000 0
DWIDTH 14 0
BBX 12 13 1 -1
BITMAP
0900
0900
F9F0
0900
0900
0900
F9F0
0900
0900
F9F0
0900
0900
FFF0
ENDCHAR
STARTCHAR 2FB3
ENCODING 12211
SWIDTH 1000 0
DWIDTH 14 0
BBX 12 14 1 -2
BITMAP
0600
FFF0
1080
1080
1080
FFF0
0000
7FE0
4020
7FE0
4020
4020
7FE0
4020
ENDCHAR
STARTCHAR 2FB4
ENCODING 12212
SWIDTH 1000 0
DWIDTH 14 0
BBX 12 13 1 -2
BITMAP
FFF0
0400
7FE0
4020
7FE0
4020
4020
7FE0
4020
7FE0
1080
60F0
8010
ENDCHAR
STARTCHAR 2FB5
ENCODING 12213
SWIDTH 1000 0
DWIDTH 14 0
BBX 13 13 1 -2
BITMAP
7FE0
4020
7FA0
4420
5FA0
54A0
54A0
54A0
DFA0
C420
84A8
BFF0
0010
ENDCHAR
STARTCHAR 2FB6
ENCODING 12214
SWIDTH 1000 0
DWIDTH 14 0
BBX 13 13 1 -1
BITMAP
FFB0
00A0
1480
E4B0
2448
FFB0
24A0
64E0
6480
44F0
44D0
C450
8470
ENDCHAR
STARTCHAR 2FB7
ENCODING 12215
SWIDTH 1000 0
DWIDTH 14 0
BBX 12 14 1 -2
BITMAP
0600
0F00
1780
E660
FFD0
6040
7FC0
6040
7FC0
6420
6240
6180
6EC0
F830
ENDCHAR
STARTCHAR 2FB8
ENCODING 12216
SWIDTH 1000 0
DWIDTH 14 0
BBX 13 14 1 -2
BITMAP
10C0
1080
FFF8
0600
0400
7FE0
4020
7FE0
4020
7FE0
4020
4020
7FE0
4020
ENDCHAR
STARTCHAR 2FB9
ENCODING 12217
SWIDTH 1000 0
DWIDTH 14 0
BBX 12 14 1 -2
BITMAP
0060
7FC0
0600
FFF0
0F00
36C0
E660
FFF0
6060
6060
7FE0
6060
7FE0
6060
ENDCHAR
STARTCHAR 2FBA
ENCODING 12218
SWIDTH 1000 0
DWIDTH 14 0
BBX 12 13 1 -2
BITMAP
FFF0
C200
FFE0
C200
FFE0
C200
FFF0
0010
C090
9490
92D0
9230
80E0
ENDCHAR
STARTCHAR 2FBB
ENCODING 12219
SWIDTH 1000 0
DWIDTH 14 0
BBX 12 14 1 -2
BITMAP
3FC0
2040
27C0
2440
FFF0
8010
BFD0
2040
3FC0
2040
3FC0
2040
2040
21C0
ENDCHAR
STARTCHAR 2FBC
ENCODING 12220
SWIDTH 1000 0
DWIDTH 14 0
BBX 13 14 1 -2
BITMAP
0600
FFF8
0000
7FC0
6040
7FC0
0000
FFF0
8010
9F90
9090
9F90
8010
8070
ENDCHAR
STARTCHAR 2FBD
ENCODING 12221
SWIDTH 1000 0
DWIDTH 14 0
BBX 12 13 1 -1
BITMAP
7C30
40C0
7D00
4010
7C30
4060
41C0
FF00
6010
4830
4460
FD80
0200
ENDCHAR
STARTCHAR 2FBE
ENCODING 12222
SWIDTH 1000 0
DWIDTH 14 0
BBX 12 14 1 -2
BITMAP
BFD0
9090
B9D0
9090
9090
BFD0
8010
8010
8010
8010
8010
8010
8010
8070
ENDCHAR
STARTCHAR 2FBF
ENCODING 12223
SWIDTH 1000 0
DWIDTH 14 0
BBX 12 14 1 -2
BITMAP
0400
8290
9910
E670
8D90
B6D0
8210
FFF0
4000
41E0
7E00
4010
4010
7FE0
ENDCHAR
STARTCHAR 2FC0
ENCODING 12224
SWIDTH 1000 0
DWIDTH 14 0
BBX 12 13 1 -2
BITMAP
FFF0
0000
7FE0
4020
7FE0
0000
FFF0
B1D0
A010
BFD0
8410
8410
8470
ENDCHAR
STARTCHAR 2FC1
ENCODING 12225
SWIDTH 1000 0
DWIDTH 14 0
BBX 12 14 1 -2
BITMAP
0400
7FE0
4620
4620
7FE0
4620
4620
7FE0
1240
12A0
1290
22F0
6210
83F0
ENDCHAR
STARTCHAR 2FC2
ENCODING 12226
SWIDTH 1000 0
DWIDTH 14 0
BBX 14 14 0 -2
BITMAP
0C00
0FC0
1040
20C0
7FF8
2318
3FF8
2318
2318
3FF8
0000
2490
4498
C48C
ENDCHAR
STARTCHAR 2FC3
ENCODING 12227
SWIDTH 1000 0
DWIDTH 14 0
BBX 13 14 0 -2
BITMAP
0200
3FF0
2010
3FF0
2010
3FF0
2000
3FF8
2000
3FF8
0008
2B48
4948
C870
ENDCHAR
STARTCHAR 2FC4
ENCODING 12228
SWIDTH 1000 0
DWIDTH 14 0
BBX 12 14 1 -2
BITMAP
0400
07F0
0400
0400
FFF0
8410
B290
8D10
B650
8D90
B4D0
8210
FFF0
8010
ENDCHAR
STARTCHAR 2FC5
ENCODING 12229
SWIDTH 1000 0
DWIDTH 14 0
BBX 13 14 1 -2
BITMAP
0200
FFF0
C900
C900
FFF0
C910
C910
FFF0
D100
DF30
91C0
9118
9F10
B1F0
ENDCHAR
STARTCHAR 2FC6
ENCODING 12230
SWIDTH 1000 0
DWIDTH 14 0
BBX 12 14 1 -2
BITMAP
0600
FFF0
2640
2640
76E0
8FB0
1F80
E460
8F90
3080
7D00
0700
1CC0
6000
ENDCHAR
STARTCHAR 2FC7
ENCODING 12231
SWIDTH 1000 0
DWIDTH 14 0
BBX 13 14 1 -2
BITMAP
0200
FFF0
C000
C840
C840
FFF0
C840
CCE0
9EE0
BBD0
A950
CA48
8840
0840
ENDCHAR
STARTCHAR 2FC8
ENCODING 12232
SWIDTH 1000 0
DWIDTH 14 0
BBX 12 14 1 -2
BITMAP
1080
FFF0
1080
1F80
0000
FFF0
0400
7FE0
4420
7FE0
4420
7FE0
30C0
C030
ENDCHAR
STARTCHAR 2FC9
ENCODING 12233
SWIDTH 1000 0
DWIDTH 14 0
BBX 12 14 1 -2
BITMAP
0060
7FC0
0600
FFF0
1F80
66E0
8730
1980
E670
B6D0
1680
1F80
E6F0
0C10
ENDCHAR
STARTCHAR 2FCA
ENCODING 12234
SWIDTH 1000 0
DWIDTH 14 0
BBX 13 14 0 -2
BITMAP
3FF0
2310
2310
3FF0
2310
3FF0
0300
7FF8
0300
FFF8
0000
2490
4488
44C8
ENDCHAR
STARTCHAR 2FCB
ENCODING 12235
SWIDTH 1000 0
DWIDTH 14 0
BBX 12 14 1 -2
BITMAP
4920
2940
FFF0
1480
6460
C410
FFF0
8430
94B0
94B0
94B0
94B0
9430
8460
ENDCHAR
STARTCHAR 2FCC
ENCODING 12236
SWIDTH 1000 0
DWIDTH 14 0
BBX 13 13 1 -2
BITMAP
FFF0
8910
F9F0
0900
F9F0
8910
F9F0
8910
8910
F9F0
8908
0910
0FF0
ENDCHAR
STARTCHAR 2FCD
ENCODING 12237
SWIDTH 1000 0
DWIDTH 14 0
BBX 12 14 1 -2
BITMAP
1F90
9090
9F90
9090
9F90
9F90
8010
F9F0
0900
F9F0
4920
4920
C920
8920
ENDCHAR
STARTCHAR 2FCE
ENCODING 12238
SWIDTH 1000 0
DWIDTH 14 0
BBX 13 14 0 -2
BITMAP
1020
7E20
11F8
1020
7E20
0020
7FF8
4608
7E90
24F0
2460
2A70
FD98
0308
ENDCHAR
STARTCHAR 2FCF
ENCODING 12239
SWIDTH 1000 0
DWIDTH 14 0
BBX 13 14 1 -2
BITMAP
0800
F9F0
8010
F9F0
8010
FFF0
0020
75A0
4420
75A0
44A0
4428
F7A8
8C10
ENDCHAR
STARTCHAR 2FD0
ENCODING 12240
SWIDTH 1000 0
DWIDTH 14 0
BBX 12 14 1 -2
BITMAP
0400
7FE0
7FE0
4020
7FE0
7FE0
FFF0
8410
FFF0
FFF0
1880
FFF0
3080
C080
ENDCHAR
STARTCHAR 2FD1
ENCODING 12241
SWIDTH 1000 0
DWIDTH 14 0
BBX 12 14 1 -2
BITMAP
0600
FFF0
0900
F7F0
56A0
9690
B7F0
2060
3FE0
2060
2060
7FE0
4060
8060
ENDCHAR
STARTCHAR 2FD2
ENCODING 12242
SWIDTH 1000 0
DWIDTH 14 0
BBX 12 14 1 -2
BITMAP
0200
23F0
2200
FFF0
0000
9990
9990
A250
FFF0
9090
9990
A650
FFF0
8010
ENDCHAR
STARTCHAR 2FD3
ENCODING 12243
SWIDTH 1000 0
DWIDTH 14 0
BBX 12 14 1 -2
BITMAP
2100
FDF0
4900
49F0
FC10
01F0
F900
89F0
F900
89F0
F900
89F0
8910
99F0
ENDCHAR
STARTCHAR 2FD4
ENCODING 12244
SWIDTH 1000 0
DWIDTH 14 0
BBX 14 14 0 -2
BITMAP
1FC0
3040
FFF0
2590
3DF0
7D80
0DF8
7F88
7DE8
05E8
3DC8
7FF8
7D84
0FF8
ENDCHAR
STARTCHAR 2FD5
ENCODING 12245
SWIDTH 1000 0
DWIDTH 14 0
BBX 12 14 1 -2
BITMAP
0600
1980
FFF0
8010
FF70
9990
FF70
0000
7FE0
4920
7FE0
4920
4920
4960
ENDCHAR
STARTCHAR 3000
ENCODING 12288
SWIDTH 1000 0
DWIDTH 14 0
BBX 0 0 0 0
BITMAP
ENDCHAR
STARTCHAR 3001
ENCODING 12289
SWIDTH 1000 0
DWIDTH 14 0
BBX 3 4 1 -2
BITMAP
C0
40
60
20
ENDCHAR
STARTCHAR 3002
ENCODING 12290
SWIDTH 1000 0
DWIDTH 14 0
BBX 4 5 1 -2
BITMAP
60
90
90
90
60
ENDCHAR
STARTCHAR 3003
ENCODING 12291
SWIDTH 1000 0
DWIDTH 14 0
BBX 8 8 3 1
BITMAP
33
22
22
66
44
44
4C
88
ENDCHAR
STARTCHAR 3004
ENCODING 12292
SWIDTH 1000 0
DWIDTH 14 0
BBX 14 14 0 -2
BITMAP
0600
1820
2050
4048
4248
81C8
8204
8204
8608
4808
4408
2410
1C20
01C0
ENDCHAR
STARTCHAR 3005
ENCODING 12293
SWIDTH 1000 0
DWIDTH 14 0
BBX 12 12 1 0
BITMAP
0C00
0800
1FF0
1030
2020
6040
D0C0
9980
0F00
0600
0300
0180
ENDCHAR
STARTCHAR 3006
ENCODING 12294
SWIDTH 1000 0
DWIDTH 14 0
BBX 10 13 2 -1
BITMAP
0080
00C0
0180
0300
3E00
0700
0580
0CC0
0800
1000
9000
A000
E000
ENDCHAR
STARTCHAR 3007
ENCODING 12295
SWIDTH 1000 0
DWIDTH 14 0
BBX 12 14 1 -2
BITMAP
0F00
30C0
6060
4020
8010
8010
8010
8010
8010
8010
4020
6060
30C0
0F00
ENDCHAR
STARTCHAR 3008
ENCODING 12296
SWIDTH 1000 0
DWIDTH 14 0
BBX 5 13 8 -2
BITMAP
08
18
10
20
60
40
80
40
60
20
10
18
08
ENDCHAR
STARTCHAR 3009
ENCODING 12297
SWIDTH 1000 0
DWIDTH 14 0
BBX 5 13 1 -2
BITMAP
80
C0
40
20
30
10
08
10
30
20
40
C0
80
ENDCHAR
STARTCHAR 300A
ENCODING 12298
SWIDTH 1000 0
DWIDTH 14 0
BBX 5 13 8 -2
BITMAP
18
28
30
50
60
A0
C0
A0
60
50
30
28
18
ENDCHAR
STARTCHAR 300B
ENCODING 12299
SWIDTH 1000 0
DWIDTH 14 0
BBX 5 13 1 -2
BITMAP
C0
A0
60
50
30
28
28
28
50
50
60
A0
C0
ENDCHAR
STARTCHAR 300C
ENCODING 12300
SWIDTH 1000 0
DWIDTH 14 0
BBX 5 14 9 -2
BITMAP
F8
80
80
80
80
80
80
80
80
80
80
80
80
80
ENDCHAR
STARTCHAR 300D
ENCODING 12301
SWIDTH 1000 0
DWIDTH 14 0
BBX 5 14 0 -2
BITMAP
08
08
08
08
08
08
08
08
08
08
08
08
08
F8
ENDCHAR
STARTCHAR 300E
ENCODING 12302
SWIDTH 1000 0
DWIDTH 14 0
BBX 4 13 10 -1
BITMAP
F0
E0
80
80
80
80
80
80
80
80
80
80
80
ENDCHAR
STARTCHAR 300F
ENCODING 12303
SWIDTH 1000 0
DWIDTH 14 0
BBX 4 13 0 -2
BITMAP
30
30
30
30
30
30
30
30
30
30
30
30
F0
ENDCHAR
STARTCHAR 3010
ENCODING 12304
SWIDTH 1000 0
DWIDTH 14 0
BBX 3 14 10 -2
BITMAP
E0
E0
C0
C0
C0
80
80
80
80
C0
C0
C0
E0
E0
ENDCHAR
STARTCHAR 3011
ENCODING 12305
SWIDTH 1000 0
DWIDTH 14 0
BBX 3 14 1 -2
BITMAP
E0
E0
60
60
60
20
20
20
20
60
60
60
E0
E0
ENDCHAR
STARTCHAR 3012
ENCODING 12306
SWIDTH 1000 0
DWIDTH 14 0
BBX 8 12 3 -1
BITMAP
FF
00
00
00
FF
18
18
18
18
18
18
18
ENDCHAR
STARTCHAR 3013
ENCODING 12307
SWIDTH 1000 0
DWIDTH 14 0
BBX 8 10 3 0
BITMAP
FF
FF
FF
FF
00
00
FF
FF
FF
FF
ENDCHAR
STARTCHAR 3014
ENCODING 12308
SWIDTH 1000 0
DWIDTH 14 0
BBX 3 13 10 -2
BITMAP
20
C0
80
80
80
80
80
80
80
80
80
E0
20
ENDCHAR
STARTCHAR 3015
ENCODING 12309
SWIDTH 1000 0
DWIDTH 14 0
BBX 3 13 1 -2
BITMAP
80
60
20
20
20
20
20
20
20
20
20
E0
80
ENDCHAR
STARTCHAR 301C
ENCODING 12316
SWIDTH 1000 0
DWIDTH 14 0
BBX 12 4 1 3
BITMAP
7800
CE10
8730
01E0
ENDCHAR
STARTCHAR 301D
ENCODING 12317
SWIDTH 1000 0
DWIDTH 14 0
BBX 5 5 8 7
BITMAP
20
10
C8
20
10
ENDCHAR
STARTCHAR 301F
ENCODING 12319
SWIDTH 1000 0
DWIDTH 14 0
BBX 4 5 1 -2
BITMAP
40
20
90
40
20
ENDCHAR
STARTCHAR 3020
ENCODING 12320
SWIDTH 1000 0
DWIDTH 14 0
BBX 14 10 0 0
BITMAP
3FF0
0000
3FF0
0300
4B48
BB64
9328
4850
2490
1FE0
ENDCHAR
STARTCHAR 3030
ENCODING 12336
SWIDTH 1000 0
DWIDTH 14 0
BBX 14 4 0 3
BITMAP
8304
4488
4890
3060
ENDCHAR
STARTCHAR 3033
ENCODING 12339
SWIDTH 1000 0
DWIDTH 14 0
BBX 7 14 3 -3
BITMAP
04
06
04
0C
08
08
18
10
30
20
60
C0
80
80
ENDCHAR
STARTCHAR 3034
ENCODING 12340
SWIDTH 1000 0
DWIDTH 14 0
BBX 10 14 3 -3
BITMAP
0400
0600
0400
0C00
0800
0880
1B40
1100
3000
2000
6000
C000
8000
8000
ENDCHAR
STARTCHAR 3035
ENCODING 12341
SWIDTH 1000 0
DWIDTH 14 0
BBX 9 14 3 -1
BITMAP
8000
C000
6000
3000
1000
1800
0C00
0400
0600
0300
0300
0180
0180
0100
ENDCHAR
STARTCHAR 3036
ENCODING 12342
SWIDTH 1000 0
DWIDTH 14 0
BBX 14 14 0 -2
BITMAP
0780
1860
2010
5FE8
8008
8008
9FE4
8304
8304
8308
4308
4310
3020
0FC0
ENDCHAR
STARTCHAR 3041
ENCODING 12353
SWIDTH 1000 0
DWIDTH 14 0
BBX 10 11 2 -2
BITMAP
1000
FFC0
1000
1000
3F00
7480
D4C0
9C40
98C0
7180
0700
ENDCHAR
STARTCHAR 3042
ENCODING 12354
SWIDTH 1000 0
DWIDTH 14 0
BBX 12 13 1 -1
BITMAP
0800
0800
FFF0
0800
0800
0FC0
3960
4B30
CA10
8E10
CC30
7860
03C0
ENDCHAR
STARTCHAR 3043
ENCODING 12355
SWIDTH 1000 0
DWIDTH 14 0
BBX 10 9 2 -1
BITMAP
C100
8180
8080
8080
80C0
8040
C840
4840
7000
ENDCHAR
STARTCHAR 3044
ENCODING 12356
SWIDTH 1000 0
DWIDTH 14 0
BBX 12 12 1 -1
BITMAP
C000
C0C0
8060
8020
8030
8030
8010
C010
C410
4410
6800
3800
ENDCHAR
STARTCHAR 3045
ENCODING 12357
SWIDTH 1000 0
DWIDTH 14 0
BBX 8 11 3 -2
BITMAP
78
06
00
FE
C2
03
01
03
02
0E
78
ENDCHAR
STARTCHAR 3046
ENCODING 12358
SWIDTH 1000 0
DWIDTH 14 0
BBX 10 14 2 -2
BITMAP
3C00
0F00
0000
0000
7F00
E080
00C0
00C0
00C0
00C0
0080
0180
0700
3C00
ENDCHAR
STARTCHAR 3047
ENCODING 12359
SWIDTH 1000 0
DWIDTH 14 0
BBX 10 11 2 -2
BITMAP
3E00
0300
0000
7E00
0600
0C00
1C00
3600
6600
C600
03C0
ENDCHAR
STARTCHAR 3048
ENCODING 12360
SWIDTH 1000 0
DWIDTH 14 0
BBX 12 13 1 -1
BITMAP
1E00
0380
0000
0000
7F80
0180
0300
0600
0F00
1900
2100
4100
81F0
ENDCHAR
STARTCHAR 3049
ENCODING 12361
SWIDTH 1000 0
DWIDTH 14 0
BBX 10 11 2 -2
BITMAP
1000
1080
FEC0
1040
1F00
7080
50C0
9040
90C0
7180
0700
ENDCHAR
STARTCHAR 304A
ENCODING 12362
SWIDTH 1000 0
DWIDTH 14 0
BBX 12 12 1 -1
BITMAP
08C0
0860
FF30
0810
0810
0FC0
3860
4830
C810
8830
C860
7BC0
ENDCHAR
STARTCHAR 304B
ENCODING 12363
SWIDTH 1000 0
DWIDTH 14 0
BBX 12 13 1 -1
BITMAP
1000
1000
1060
FE20
3130
2110
2190
2190
6100
4100
4100
C100
9E00
ENDCHAR
STARTCHAR 304C
ENCODING 12364
SWIDTH 1000 0
DWIDTH 14 0
BBX 12 13 1 -1
BITMAP
1050
1050
1000
FE60
3120
3130
2110
2110
2110
6100
4100
C300
9E00
ENDCHAR
STARTCHAR 304D
ENCODING 12365
SWIDTH 1000 0
DWIDTH 14 0
BBX 12 12 1 -1
BITMAP
0600
0220
7FE0
0200
0210
FFF0
0100
3180
2080
6000
2000
1FC0
ENDCHAR
STARTCHAR 304E
ENCODING 12366
SWIDTH 1000 0
DWIDTH 14 0
BBX 13 13 1 -1
BITMAP
0010
0630
0628
7FC0
0200
0210
FFF0
0100
2180
2080
6000
2000
1FC0
ENDCHAR
STARTCHAR 304F
ENCODING 12367
SWIDTH 1000 0
DWIDTH 14 0
BBX 9 12 2 0
BITMAP
0300
0600
1C00
3000
6000
C000
E000
3000
0C00
0700
0180
0080
ENDCHAR
STARTCHAR 3050
ENCODING 12368
SWIDTH 1000 0
DWIDTH 14 0
BBX 11 12 2 0
BITMAP
0300
0600
1C60
30A0
6080
C000
E000
3000
0C00
0700
0180
0080
ENDCHAR
STARTCHAR 3051
ENCODING 12369
SWIDTH 1000 0
DWIDTH 14 0
BBX 12 12 1 -2
BITMAP
40C0
40C0
40C0
DFF0
C040
C040
C040
C0C0
C0C0
C080
4180
4E00
ENDCHAR
STARTCHAR 3052
ENCODING 12370
SWIDTH 1000 0
DWIDTH 14 0
BBX 13 13 1 -2
BITMAP
0030
40A8
40A0
C080
DFF0
C080
C080
C080
C080
C080
C080
C300
4E00
ENDCHAR
STARTCHAR 3053
ENCODING 12371
SWIDTH 1000 0
DWIDTH 14 0
BBX 10 12 2 -1
BITMAP
FF80
0700
0C00
0000
0000
4000
8000
8000
8000
8000
C000
3FC0
ENDCHAR
STARTCHAR 3054
ENCODING 12372
SWIDTH 1000 0
DWIDTH 14 0
BBX 11 12 2 -1
BITMAP
FF80
0700
0C40
00A0
00A0
4000
C000
8000
8000
8000
E000
3FC0
ENDCHAR
STARTCHAR 3055
ENCODING 12373
SWIDTH 1000 0
DWIDTH 14 0
BBX 12 13 1 -1
BITMAP
0200
0200
0200
FFF0
0100
0100
0080
30C0
6040
4000
4000
6000
3FC0
ENDCHAR
STARTCHAR 3056
ENCODING 12374
SWIDTH 1000 0
DWIDTH 14 0
BBX 13 13 1 -1
BITMAP
0250
0228
0200
FFF0
0100
0100
0080
3080
6040
4000
4000
6000
1FC0
ENDCHAR
STARTCHAR 3057
ENCODING 12375
SWIDTH 1000 0
DWIDTH 14 0
BBX 10 12 3 -1
BITMAP
8000
8000
8000
8000
8000
8000
80C0
80C0
8080
8180
C300
7E00
ENDCHAR
STARTCHAR 3058
ENCODING 12376
SWIDTH 1000 0
DWIDTH 14 0
BBX 9 12 3 -1
BITMAP
8100
8580
8200
8200
8000
8000
8080
8080
8080
8180
C300
7E00
ENDCHAR
STARTCHAR 3059
ENCODING 12377
SWIDTH 1000 0
DWIDTH 14 0
BBX 12 13 1 -1
BITMAP
0100
0100
FFF0
0100
0100
1F00
1100
3100
1100
1F00
0100
0600
3C00
ENDCHAR
STARTCHAR 305A
ENCODING 12378
SWIDTH 1000 0
DWIDTH 14 0
BBX 13 13 1 -1
BITMAP
0100
0100
FFF0
0100
0110
1F50
1128
3100
3100
1F00
0100
0600
3C00
ENDCHAR
STARTCHAR 305B
ENCODING 12379
SWIDTH 1000 0
DWIDTH 14 0
BBX 12 13 1 -1
BITMAP
00C0
2040
2040
2040
FFF0
2040
2040
2040
20C0
2380
2000
1000
1FE0
ENDCHAR
STARTCHAR 305C
ENCODING 12380
SWIDTH 1000 0
DWIDTH 14 0
BBX 13 13 1 -1
BITMAP
0030
30A8
30A0
3080
FFF0
3080
3080
3080
3080
2780
3000
1000
1FE0
ENDCHAR
STARTCHAR 305D
ENCODING 12381
SWIDTH 1000 0
DWIDTH 14 0
BBX 12 12 1 -1
BITMAP
3FC0
0180
0300
0C00
37F0
FD00
0600
0C00
0800
0800
0C00
07C0
ENDCHAR
STARTCHAR 305E
ENCODING 12382
SWIDTH 1000 0
DWIDTH 14 0
BBX 12 12 1 -1
BITMAP
3F90
01F0
0620
0C00
37F0
FF00
0600
0C00
0800
0800
0C00
07C0
ENDCHAR
STARTCHAR 305F
ENCODING 12383
SWIDTH 1000 0
DWIDTH 14 0
BBX 12 12 1 -1
BITMAP
1000
3000
FF00
2000
23F0
2200
2000
6000
4400
4400
C400
83F0
ENDCHAR
STARTCHAR 3060
ENCODING 12384
SWIDTH 1000 0
DWIDTH 14 0
BBX 12 13 1 -1
BITMAP
0030
1050
1050
FF00
2000
23F0
2200
2000
6000
4400
4400
C400
83F0
ENDCHAR
STARTCHAR 3061
ENCODING 12385
SWIDTH 1000 0
DWIDTH 14 0
BBX 12 12 1 -1
BITMAP
1800
1800
FFF0
1000
1000
17C0
3860
3020
0020
0020
0060
3F80
ENDCHAR
STARTCHAR 3062
ENCODING 12386
SWIDTH 1000 0
DWIDTH 14 0
BBX 13 13 1 -1
BITMAP
0050
1838
1800
FFF0
1000
1000
1FC0
3860
3020
0020
0020
0060
3F80
ENDCHAR
STARTCHAR 3063
ENCODING 12387
SWIDTH 1000 0
DWIDTH 14 0
BBX 10 8 2 -1
BITMAP
3F00
E080
00C0
0040
00C0
0080
0380
3E00
ENDCHAR
STARTCHAR 3064
ENCODING 12388
SWIDTH 1000 0
DWIDTH 14 0
BBX 12 10 1 0
BITMAP
1FC0
F860
0030
0010
0010
0010
0030
0020
00C0
3F80
ENDCHAR
STARTCHAR 3065
ENCODING 12389
SWIDTH 1000 0
DWIDTH 14 0
BBX 13 13 1 -1
BITMAP
0050
0038
0020
3FC0
F060
0030
0010
0010
0010
0030
0060
01C0
3F00
ENDCHAR
STARTCHAR 3066
ENCODING 12390
SWIDTH 1000 0
DWIDTH 14 0
BBX 12 12 1 -1
BITMAP
03F0
FF80
0200
0400
0800
1800
1000
1000
1000
1800
0C00
07E0
ENDCHAR
STARTCHAR 3067
ENCODING 12391
SWIDTH 1000 0
DWIDTH 14 0
BBX 12 12 1 -1
BITMAP
03F0
FF80
0200
0430
0850
1840
1000
1000
1000
1800
0C00
07E0
ENDCHAR
STARTCHAR 3068
ENCODING 12392
SWIDTH 1000 0
DWIDTH 14 0
BBX 10 13 2 -1
BITMAP
1000
1000
1000
1000
11C0
1F80
3800
6000
8000
8000
8000
C000
7FC0
ENDCHAR
STARTCHAR 3069
ENCODING 12393
SWIDTH 1000 0
DWIDTH 14 0
BBX 11 13 2 -1
BITMAP
0040
10A0
1080
1000
11C0
1F80
3800
6000
8000
8000
8000
C000
7FC0
ENDCHAR
STARTCHAR 306A
ENCODING 12394
SWIDTH 1000 0
DWIDTH 14 0
BBX 12 12 1 -1
BITMAP
1000
10F0
FE80
2080
2080
2080
6080
4F80
58E0
D0B0
1890
0F80
ENDCHAR
STARTCHAR 306B
ENCODING 12395
SWIDTH 1000 0
DWIDTH 14 0
BBX 11 12 2 -1
BITMAP
8000
8FC0
8000
8000
8000
8000
8800
9000
9000
9800
8FE0
8000
ENDCHAR
STARTCHAR 306C
ENCODING 12396
SWIDTH 1000 0
DWIDTH 14 0
BBX 12 12 1 0
BITMAP
0100
4100
4FC0
7A60
2220
6630
F410
9410
99D0
8A30
9230
61C0
ENDCHAR
STARTCHAR 306D
ENCODING 12397
SWIDTH 1000 0
DWIDTH 14 0
BBX 12 12 1 0
BITMAP
1000
13C0
F660
3820
3010
3010
7010
7010
F3D0
B630
3670
33C0
ENDCHAR
STARTCHAR 306E
ENCODING 12398
SWIDTH 1000 0
DWIDTH 14 0
BBX 12 12 1 -1
BITMAP
0F80
36E0
6620
C430
8410
8410
8410
8C10
8830
D820
70E0
0380
ENDCHAR
STARTCHAR 306F
ENCODING 12399
SWIDTH 1000 0
DWIDTH 14 0
BBX 12 12 1 -1
BITMAP
4080
4080
DFF0
C080
C080
C080
C080
CF80
C8E0
D0B0
D890
4F00
ENDCHAR
STARTCHAR 3070
ENCODING 12400
SWIDTH 1000 0
DWIDTH 14 0
BBX 13 13 1 -1
BITMAP
0030
40A8
4080
5FF0
C080
C080
C080
C080
CF80
C8C0
D0B0
D890
4F00
ENDCHAR
STARTCHAR 3071
ENCODING 12401
SWIDTH 1000 0
DWIDTH 14 0
BBX 13 13 1 -1
BITMAP
0030
40C8
C0B0
C080
DFF0
C080
8080
8080
8F80
D8C0
D0B0
D9A0
4F00
ENDCHAR
STARTCHAR 3072
ENCODING 12402
SWIDTH 1000 0
DWIDTH 14 0
BBX 12 12 1 -1
BITMAP
0100
F980
30C0
20E0
40B0
4050
4040
C040
40C0
4080
6180
3F00
ENDCHAR
STARTCHAR 3073
ENCODING 12403
SWIDTH 1000 0
DWIDTH 14 0
BBX 12 13 1 -1
BITMAP
0050
0130
F9A0
3080
20E0
40B0
4050
C040
C040
C0C0
4080
6180
3F00
ENDCHAR
STARTCHAR 3074
ENCODING 12404
SWIDTH 1000 0
DWIDTH 14 0
BBX 13 13 1 -1
BITMAP
0030
0148
F9B0
30C0
20E0
40B0
40D0
C040
C040
C0C0
4080
6180
3F00
ENDCHAR
STARTCHAR 3075
ENCODING 12405
SWIDTH 1000 0
DWIDTH 14 0
BBX 12 12 1 -1
BITMAP
3C00
0780
0300
0400
4460
4420
4620
4330
4110
C110
8110
1E00
ENDCHAR
STARTCHAR 3076
ENCODING 12406
SWIDTH 1000 0
DWIDTH 14 0
BBX 12 13 1 -1
BITMAP
0010
3C50
03B0
0300
0400
4460
4420
4620
4330
4110
C110
8110
1F00
ENDCHAR
STARTCHAR 3077
ENCODING 12407
SWIDTH 1000 0
DWIDTH 14 0
BBX 13 13 1 -1
BITMAP
1C30
0F48
01B0
0300
0400
4420
4420
4220
4330
4110
C110
8110
1F00
ENDCHAR
STARTCHAR 3078
ENCODING 12408
SWIDTH 1000 0
DWIDTH 14 0
BBX 12 8 1 1
BITMAP
1C00
3600
6300
C180
80C0
0060
0030
0010
ENDCHAR
STARTCHAR 3079
ENCODING 12409
SWIDTH 1000 0
DWIDTH 14 0
BBX 12 10 1 1
BITMAP
0020
0050
1C40
3600
6300
C180
80C0
0060
0030
0010
ENDCHAR
STARTCHAR 307A
ENCODING 12410
SWIDTH 1000 0
DWIDTH 14 0
BBX 13 10 0 1
BITMAP
0030
0050
0E30
1B00
3180
60C0
C060
0030
0018
0008
ENDCHAR
STARTCHAR 307B
ENCODING 12411
SWIDTH 1000 0
DWIDTH 14 0
BBX 12 12 1 -1
BITMAP
4FE0
4080
C080
C080
CFF0
8080
8080
8780
C8E0
D8B0
C880
4F00
ENDCHAR
STARTCHAR 307C
ENCODING 12412
SWIDTH 1000 0
DWIDTH 14 0
BBX 13 13 1 -1
BITMAP
0030
4FE8
C0A0
C080
C080
9FF0
8080
8080
8F80
88E0
D0B0
D880
CF00
ENDCHAR
STARTCHAR 307D
ENCODING 12413
SWIDTH 1000 0
DWIDTH 14 0
BBX 13 13 1 -1
BITMAP
0038
4FE8
C090
C080
8080
9FF0
8080
8080
8F80
98E0
90B0
D880
CF00
ENDCHAR
STARTCHAR 307E
ENCODING 12414
SWIDTH 1000 0
DWIDTH 14 0
BBX 12 13 1 -1
BITMAP
0200
0200
FFF0
0200
0200
7FE0
0200
0200
3E00
4380
42C0
4660
3C00
ENDCHAR
STARTCHAR 307F
ENCODING 12415
SWIDTH 1000 0
DWIDTH 14 0
BBX 12 12 1 -1
BITMAP
7E00
0400
0420
0420
0420
3FE0
CC70
8850
8840
9880
7180
0300
ENDCHAR
STARTCHAR 3080
ENCODING 12416
SWIDTH 1000 0
DWIDTH 14 0
BBX 12 13 1 -1
BITMAP
1000
1060
FF30
1010
1010
7000
9060
9820
9020
9030
7030
1020
1FE0
ENDCHAR
STARTCHAR 3081
ENCODING 12417
SWIDTH 1000 0
DWIDTH 14 0
BBX 12 13 1 -1
BITMAP
0200
4300
4200
6F80
3260
6220
6230
9610
9410
8C30
8820
7060
0780
ENDCHAR
STARTCHAR 3082
ENCODING 12418
SWIDTH 1000 0
DWIDTH 14 0
BBX 12 12 1 -1
BITMAP
1000
1000
FF80
1000
1000
10A0
FFB0
1010
1010
1030
1820
0FC0
ENDCHAR
STARTCHAR 3083
ENCODING 12419
SWIDTH 1000 0
DWIDTH 14 0
BBX 10 10 2 -1
BITMAP
6400
2780
7AC0
F040
10C0
1780
1000
1800
1800
0800
ENDCHAR
STARTCHAR 3084
ENCODING 12420
SWIDTH 1000 0
DWIDTH 14 0
BBX 12 12 1 -1
BITMAP
2200
2300
23E0
3DB0
F110
9010
1830
0BE0
0800
0800
0C00
0400
ENDCHAR
STARTCHAR 3085
ENCODING 12421
SWIDTH 1000 0
DWIDTH 14 0
BBX 10 10 2 -1
BITMAP
4600
C600
DF80
A2C0
C240
D240
9280
8F80
4C00
1800
ENDCHAR
STARTCHAR 3086
ENCODING 12422
SWIDTH 1000 0
DWIDTH 14 0
BBX 12 12 1 -1
BITMAP
4100
4100
CFC0
D920
E130
C110
D110
9930
C920
C7C0
C600
0C00
ENDCHAR
STARTCHAR 3087
ENCODING 12423
SWIDTH 1000 0
DWIDTH 14 0
BBX 10 11 2 -2
BITMAP
0C00
0C00
0FC0
0C00
0C00
0C00
7C00
4F00
CD80
4CC0
7800
ENDCHAR
STARTCHAR 3088
ENCODING 12424
SWIDTH 1000 0
DWIDTH 14 0
BBX 12 12 1 -1
BITMAP
0600
0600
07F0
0600
0600
0600
0600
3E00
47C0
C660
C630
7C00
ENDCHAR
STARTCHAR 3089
ENCODING 12425
SWIDTH 1000 0
DWIDTH 14 0
BBX 11 12 2 -1
BITMAP
1F00
0100
4000
C000
CF80
F0C0
E040
C060
0060
0040
01C0
7F00
ENDCHAR
STARTCHAR 308A
ENCODING 12426
SWIDTH 1000 0
DWIDTH 14 0
BBX 8 12 3 -1
BITMAP
80
9E
A3
C1
81
81
81
81
81
03
06
78
ENDCHAR
STARTCHAR 308B
ENCODING 12427
SWIDTH 1000 0
DWIDTH 14 0
BBX 12 12 1 -1
BITMAP
7F80
0180
0300
0600
0FC0
1860
3020
6030
CE30
1320
1160
0F80
ENDCHAR
STARTCHAR 308C
ENCODING 12428
SWIDTH 1000 0
DWIDTH 14 0
BBX 12 14 1 -2
BITMAP
1000
11C0
1640
FC40
1840
1040
3040
3040
5040
D040
B040
3060
3030
3000
ENDCHAR
STARTCHAR 308D
ENCODING 12429
SWIDTH 1000 0
DWIDTH 14 0
BBX 11 12 2 -1
BITMAP
FF00
0200
0600
0C00
1F80
30C0
6040
8060
0040
0040
00C0
7F00
ENDCHAR
STARTCHAR 308E
ENCODING 12430
SWIDTH 1000 0
DWIDTH 14 0
BBX 10 10 2 -1
BITMAP
2000
2000
F700
3880
2040
6040
6040
A0C0
2180
2F00
ENDCHAR
STARTCHAR 308F
ENCODING 12431
SWIDTH 1000 0
DWIDTH 14 0
BBX 12 12 1 -1
BITMAP
3000
3000
F7C0
2C60
3030
2010
6010
6010
E030
A020
20C0
2780
ENDCHAR
STARTCHAR 3090
ENCODING 12432
SWIDTH 1000 0
DWIDTH 14 0
BBX 12 12 1 -1
BITMAP
7C00
0400
0400
0FC0
3460
6C20
4830
8810
8BB0
9260
9660
63C0
ENDCHAR
STARTCHAR 3091
ENCODING 12433
SWIDTH 1000 0
DWIDTH 14 0
BBX 12 12 1 -1
BITMAP
3FC0
0300
0F80
3840
6E60
1260
16C0
0F80
1000
3DE0
6630
C410
ENDCHAR
STARTCHAR 3092
ENCODING 12434
SWIDTH 1000 0
DWIDTH 14 0
BBX 12 13 1 -1
BITMAP
0800
0800
FFE0
1800
1E00
3170
21C0
4700
CD00
1900
1000
1800
0FE0
ENDCHAR
STARTCHAR 3093
ENCODING 12435
SWIDTH 1000 0
DWIDTH 14 0
BBX 12 13 1 -1
BITMAP
1000
1800
1000
1000
3000
2000
3E00
7210
6210
4210
C230
8320
81E0
ENDCHAR
STARTCHAR 3094
ENCODING 12436
SWIDTH 1000 0
DWIDTH 14 0
BBX 12 14 2 -2
BITMAP
7C00
0F20
00A0
0050
7F40
E180
0080
00C0
00C0
0080
0080
0180
0700
3C00
ENDCHAR
STARTCHAR 309B
ENCODING 12443
SWIDTH 1000 0
DWIDTH 14 0
BBX 3 3 1 8
BITMAP
60
A0
40
ENDCHAR
STARTCHAR 309C
ENCODING 12444
SWIDTH 1000 0
DWIDTH 14 0
BBX 3 3 1 8
BITMAP
C0
A0
C0
ENDCHAR
STARTCHAR 309D
ENCODING 12445
SWIDTH 1000 0
DWIDTH 14 0
BBX 6 9 4 0
BITMAP
C0
60
30
18
0C
04
04
3C
60
ENDCHAR
STARTCHAR 309E
ENCODING 12446
SWIDTH 1000 0
DWIDTH 14 0
BBX 9 11 4 0
BITMAP
0100
0580
C200
6000
3000
1800
0C00
0400
0400
3800
6000
ENDCHAR
STARTCHAR 30A1
ENCODING 12449
SWIDTH 1000 0
DWIDTH 14 0
BBX 10 9 2 -2
BITMAP
FFC0
0080
0880
0B00
0A00
0800
1000
3000
6000
ENDCHAR
STARTCHAR 30A2
ENCODING 12450
SWIDTH 1000 0
DWIDTH 14 0
BBX 12 12 1 -1
BITMAP
FFF0
0030
0020
0460
04C0
0580
0C00
0C00
0800
1800
3000
6000
ENDCHAR
STARTCHAR 30A3
ENCODING 12451
SWIDTH 1000 0
DWIDTH 14 0
BBX 9 10 2 -1
BITMAP
0080
0180
0300
0600
1C00
7400
C400
0400
0400
0400
ENDCHAR
STARTCHAR 30A4
ENCODING 12452
SWIDTH 1000 0
DWIDTH 14 0
BBX 11 12 1 -1
BITMAP
0020
0060
00C0
0300
0600
1E00
7200
C200
0200
0200
0200
0200
ENDCHAR
STARTCHAR 30A5
ENCODING 12453
SWIDTH 1000 0
DWIDTH 14 0
BBX 8 11 3 -2
BITMAP
18
18
FF
81
81
81
03
02
04
78
40
ENDCHAR
STARTCHAR 30A6
ENCODING 12454
SWIDTH 1000 0
DWIDTH 14 0
BBX 10 13 2 -1
BITMAP
0C00
0C00
0C00
FFC0
8040
8040
8040
80C0
0080
0180
0300
0E00
7800
ENDCHAR
STARTCHAR 30A7
ENCODING 12455
SWIDTH 1000 0
DWIDTH 14 0
BBX 10 9 2 -1
BITMAP
7F80
0C00
0C00
0C00
0C00
0C00
0C00
0C00
FFC0
ENDCHAR
STARTCHAR 30A8
ENCODING 12456
SWIDTH 1000 0
DWIDTH 14 0
BBX 12 10 1 0
BITMAP
7FE0
0600
0600
0600
0600
0600
0600
0600
0600
FFF0
ENDCHAR
STARTCHAR 30A9
ENCODING 12457
SWIDTH 1000 0
DWIDTH 14 0
BBX 10 11 2 -2
BITMAP
0200
0200
FFC0
0600
0600
0A00
1200
3200
6200
8200
0E00
ENDCHAR
STARTCHAR 30AA
ENCODING 12458
SWIDTH 1000 0
DWIDTH 14 0
BBX 12 13 1 -1
BITMAP
0100
0100
0100
FFF0
0100
0300
0700
0D00
1900
3100
E100
8100
0F00
ENDCHAR
STARTCHAR 30AB
ENCODING 12459
SWIDTH 1000 0
DWIDTH 14 0
BBX 11 13 1 -1
BITMAP
0400
0400
0C00
FFE0
0C20
0820
0820
0820
1820
1020
3020
6060
C3C0
ENDCHAR
STARTCHAR 30AC
ENCODING 12460
SWIDTH 1000 0
DWIDTH 14 0
BBX 12 13 1 -1
BITMAP
0050
0450
0C70
0C00
FFE0
0C20
0820
0820
1820
1020
3020
6060
C3C0
ENDCHAR
STARTCHAR 30AD
ENCODING 12461
SWIDTH 1000 0
DWIDTH 14 0
BBX 12 12 1 -1
BITMAP
0400
0400
05E0
FF80
0400
0400
06F0
FFC0
0600
0200
0200
0200
ENDCHAR
STARTCHAR 30AE
ENCODING 12462
SWIDTH 1000 0
DWIDTH 14 0
BBX 13 13 1 -1
BITMAP
0050
0438
0400
0FE0
FC00
0400
0600
07F0
FE00
0200
0200
0200
0200
ENDCHAR
STARTCHAR 30AF
ENCODING 12463
SWIDTH 1000 0
DWIDTH 14 0
BBX 11 12 1 -1
BITMAP
0C00
0800
1FE0
1020
2060
C040
0040
0080
0180
0300
0E00
7800
ENDCHAR
STARTCHAR 30B0
ENCODING 12464
SWIDTH 1000 0
DWIDTH 14 0
BBX 12 13 1 -1
BITMAP
0050
0C70
0800
1FE0
3020
6060
C040
00C0
0080
0180
0300
0E00
7800
ENDCHAR
STARTCHAR 30B1
ENCODING 12465
SWIDTH 1000 0
DWIDTH 14 0
BBX 12 13 1 -1
BITMAP
1000
1000
1000
3FF0
2100
4100
C100
0100
0300
0200
0600
1C00
7000
ENDCHAR
STARTCHAR 30B2
ENCODING 12466
SWIDTH 1000 0
DWIDTH 14 0
BBX 12 13 1 -1
BITMAP
1050
1050
3000
3FF0
2100
4100
C100
0300
0300
0200
0600
1C00
7000
ENDCHAR
STARTCHAR 30B3
ENCODING 12467
SWIDTH 1000 0
DWIDTH 14 0
BBX 10 10 2 0
BITMAP
FFC0
0040
0040
0040
0040
0040
0040
0040
0040
FFC0
ENDCHAR
STARTCHAR 30B4
ENCODING 12468
SWIDTH 1000 0
DWIDTH 14 0
BBX 11 12 2 0
BITMAP
0060
0040
FFC0
0040
0040
0040
0040
0040
0040
0040
0040
FFC0
ENDCHAR
STARTCHAR 30B5
ENCODING 12469
SWIDTH 1000 0
DWIDTH 14 0
BBX 12 12 1 -1
BITMAP
30C0
30C0
30C0
FFF0
30C0
30C0
30C0
30C0
0080
0180
0300
1E00
ENDCHAR
STARTCHAR 30B6
ENCODING 12470
SWIDTH 1000 0
DWIDTH 14 0
BBX 13 13 1 -1
BITMAP
0030
30A8
3080
3080
FFF0
3080
3080
3080
3080
0080
0180
0700
3C00
ENDCHAR
STARTCHAR 30B7
ENCODING 12471
SWIDTH 1000 0
DWIDTH 14 0
BBX 11 11 2 0
BITMAP
6000
3800
0820
8060
E040
30C0
0080
0180
0700
1C00
F000
ENDCHAR
STARTCHAR 30B8
ENCODING 12472
SWIDTH 1000 0
DWIDTH 14 0
BBX 11 12 2 0
BITMAP
0020
40A0
7840
0800
0060
E040
30C0
0080
0180
0300
1C00
F000
ENDCHAR
STARTCHAR 30B9
ENCODING 12473
SWIDTH 1000 0
DWIDTH 14 0
BBX 12 12 1 -1
BITMAP
7FC0
00C0
0080
0180
0100
0300
0200
0500
0CC0
1860
6030
C030
ENDCHAR
STARTCHAR 30BA
ENCODING 12474
SWIDTH 1000 0
DWIDTH 14 0
BBX 13 13 1 -1
BITMAP
0030
0028
7F80
0080
0180
0100
0100
0200
0700
0D80
18C0
7060
C030
ENDCHAR
STARTCHAR 30BB
ENCODING 12475
SWIDTH 1000 0
DWIDTH 14 0
BBX 12 12 1 -1
BITMAP
1000
1000
10F0
FFF0
1020
1060
1040
1180
1000
1000
1800
0FF0
ENDCHAR
STARTCHAR 30BC
ENCODING 12476
SWIDTH 1000 0
DWIDTH 14 0
BBX 13 13 1 -1
BITMAP
0050
1058
1000
1070
FFF0
D020
1020
1040
1180
1000
1000
1800
0FF0
ENDCHAR
STARTCHAR 30BD
ENCODING 12477
SWIDTH 1000 0
DWIDTH 14 0
BBX 11 11 2 -1
BITMAP
8060
C040
4040
60C0
0080
0180
0100
0200
0C00
3800
6000
ENDCHAR
STARTCHAR 30BE
ENCODING 12478
SWIDTH 1000 0
DWIDTH 14 0
BBX 11 13 2 -1
BITMAP
00A0
00A0
8000
8040
4040
60C0
0080
0180
0300
0200
0C00
3800
6000
ENDCHAR
STARTCHAR 30BF
ENCODING 12479
SWIDTH 1000 0
DWIDTH 14 0
BBX 12 13 1 -2
BITMAP
0400
0C00
0FF0
1020
3020
6860
CE40
03C0
0180
0100
0600
0C00
7800
ENDCHAR
STARTCHAR 30C0
ENCODING 12480
SWIDTH 1000 0
DWIDTH 14 0
BBX 12 14 1 -2
BITMAP
0050
0C50
0800
1FE0
3020
6060
C840
86C0
0380
0100
0600
0C00
7000
4000
ENDCHAR
STARTCHAR 30C1
ENCODING 12481
SWIDTH 1000 0
DWIDTH 14 0
BBX 12 12 1 -1
BITMAP
03E0
7E00
0200
0200
0200
FFF0
0200
0200
0600
0400
1C00
7000
ENDCHAR
STARTCHAR 30C2
ENCODING 12482
SWIDTH 1000 0
DWIDTH 14 0
BBX 13 12 1 0
BITMAP
03E0
7F10
0228
0220
0200
FFF0
0200
0200
0600
0400
1800
7000
ENDCHAR
STARTCHAR 30C3
ENCODING 12483
SWIDTH 1000 0
DWIDTH 14 0
BBX 9 9 3 -1
BITMAP
1080
9180
9900
C100
0300
0200
0C00
3800
6000
ENDCHAR
STARTCHAR 30C4
ENCODING 12484
SWIDTH 1000 0
DWIDTH 14 0
BBX 11 11 2 -1
BITMAP
1860
8860
8840
CC40
40C0
0080
0180
0300
0600
3800
6000
ENDCHAR
STARTCHAR 30C5
ENCODING 12485
SWIDTH 1000 0
DWIDTH 14 0
BBX 11 13 2 -1
BITMAP
00A0
00A0
8800
8860
8840
CC40
40C0
0080
0100
0300
0600
3800
6000
ENDCHAR
STARTCHAR 30C6
ENCODING 12486
SWIDTH 1000 0
DWIDTH 14 0
BBX 12 12 1 -2
BITMAP
7FE0
0000
0000
0000
FFF0
0200
0200
0600
0600
0400
1800
7000
ENDCHAR
STARTCHAR 30C7
ENCODING 12487
SWIDTH 1000 0
DWIDTH 14 0
BBX 13 14 1 -2
BITMAP
0030
7FE8
0000
0000
0000
FFF0
0200
0200
0200
0600
0400
1C00
7000
4000
ENDCHAR
STARTCHAR 30C8
ENCODING 12488
SWIDTH 1000 0
DWIDTH 14 0
BBX 8 12 5 -1
BITMAP
80
80
80
80
E0
BC
86
83
80
80
80
80
ENDCHAR
STARTCHAR 30C9
ENCODING 12489
SWIDTH 1000 0
DWIDTH 14 0
BBX 8 12 5 0
BITMAP
89
85
84
80
F0
9C
87
80
80
80
80
80
ENDCHAR
STARTCHAR 30CA
ENCODING 12490
SWIDTH 1000 0
DWIDTH 14 0
BBX 12 12 1 -1
BITMAP
0600
0600
0600
FFF0
0600
0600
0600
0400
0C00
0800
3800
6000
ENDCHAR
STARTCHAR 30CB
ENCODING 12491
SWIDTH 1000 0
DWIDTH 14 0
BBX 12 10 1 0
BITMAP
7FE0
0000
0000
0000
0000
0000
0000
0000
0000
FFF0
ENDCHAR
STARTCHAR 30CC
ENCODING 12492
SWIDTH 1000 0
DWIDTH 14 0
BBX 10 12 2 -1
BITMAP
FF80
0080
0080
2180
3900
0F00
0600
0700
0D80
18C0
7000
C000
ENDCHAR
STARTCHAR 30CD
ENCODING 12493
SWIDTH 1000 0
DWIDTH 14 0
BBX 12 13 1 -2
BITMAP
0600
0600
7FE0
0040
0080
0100
0600
1FC0
7670
C610
0600
0600
0600
ENDCHAR
STARTCHAR 30CE
ENCODING 12494
SWIDTH 1000 0
DWIDTH 14 0
BBX 10 12 2 -1
BITMAP
0040
00C0
0080
0180
0180
0300
0200
0600
0C00
3800
E000
8000
ENDCHAR
STARTCHAR 30CF
ENCODING 12495
SWIDTH 1000 0
DWIDTH 14 0
BBX 12 11 1 -1
BITMAP
1080
1080
1080
3080
20C0
2040
2040
6060
4020
C030
8010
ENDCHAR
STARTCHAR 30D0
ENCODING 12496
SWIDTH 1000 0
DWIDTH 14 0
BBX 13 12 1 0
BITMAP
0010
10A8
10A0
3080
3080
3080
20C0
2040
6040
4060
C030
8010
ENDCHAR
STARTCHAR 30D1
ENCODING 12497
SWIDTH 1000 0
DWIDTH 14 0
BBX 13 13 1 -1
BITMAP
0030
10C8
10B0
3080
3080
3080
20C0
20C0
2040
6060
4020
C030
8010
ENDCHAR
STARTCHAR 30D2
ENCODING 12498
SWIDTH 1000 0
DWIDTH 14 0
BBX 10 12 2 -1
BITMAP
8000
8000
8080
8380
9E00
F000
8000
8000
8000
8000
C000
7FC0
ENDCHAR
STARTCHAR 30D3
ENCODING 12499
SWIDTH 1000 0
DWIDTH 14 0
BBX 12 13 2 -1
BITMAP
00A0
8050
8040
8080
8380
9E00
F000
8000
8000
8000
8000
C000
7FC0
ENDCHAR
STARTCHAR 30D4
ENCODING 12500
SWIDTH 1000 0
DWIDTH 14 0
BBX 12 13 2 -1
BITMAP
0060
8090
8060
8080
8380
9E00
F000
8000
8000
8000
8000
C000
7FC0
ENDCHAR
STARTCHAR 30D5
ENCODING 12501
SWIDTH 1000 0
DWIDTH 14 0
BBX 11 11 2 -1
BITMAP
FFE0
0040
0040
0040
00C0
0080
0180
0300
0600
1C00
7000
ENDCHAR
STARTCHAR 30D6
ENCODING 12502
SWIDTH 1000 0
DWIDTH 14 0
BBX 11 13 2 -1
BITMAP
00A0
0000
FFC0
0040
0040
00C0
0080
0080
0180
0300
0600
1C00
7000
ENDCHAR
STARTCHAR 30D7
ENCODING 12503
SWIDTH 1000 0
DWIDTH 14 0
BBX 13 13 1 -1
BITMAP
0030
0028
FFF0
0020
0020
0060
0060
0040
00C0
0180
0300
0E00
3800
ENDCHAR
STARTCHAR 30D8
ENCODING 12504
SWIDTH 1000 0
DWIDTH 14 0
BBX 13 8 1 0
BITMAP
1C00
3600
6300
C180
C0C0
8060
0030
0018
ENDCHAR
STARTCHAR 30D9
ENCODING 12505
SWIDTH 1000 0
DWIDTH 14 0
BBX 13 10 1 1
BITMAP
0030
0050
1C40
3600
6300
C180
C0C0
8060
0030
0018
ENDCHAR
STARTCHAR 30DA
ENCODING 12506
SWIDTH 1000 0
DWIDTH 14 0
BBX 13 10 1 0
BITMAP
0060
0090
1C60
3600
6300
C180
80C0
8060
0030
0018
ENDCHAR
STARTCHAR 30DB
ENCODING 12507
SWIDTH 1000 0
DWIDTH 14 0
BBX 12 13 1 -2
BITMAP
0600
0600
FFF0
0600
0600
2640
2640
2640
6660
4620
C630
0600
0600
ENDCHAR
STARTCHAR 30DC
ENCODING 12508
SWIDTH 1000 0
DWIDTH 14 0
BBX 12 14 1 -2
BITMAP
0050
0670
0600
FFF0
0600
0600
2640
2640
2640
6660
4620
C630
0600
0600
ENDCHAR
STARTCHAR 30DD
ENCODING 12509
SWIDTH 1000 0
DWIDTH 14 0
BBX 13 14 1 -2
BITMAP
0030
0648
0630
0600
FFE0
0600
2640
2640
2640
6660
4620
C630
0600
0600
ENDCHAR
STARTCHAR 30DE
ENCODING 12510
SWIDTH 1000 0
DWIDTH 14 0
BBX 12 11 1 -1
BITMAP
FFF0
0030
0020
0040
20C0
1980
0F00
0600
0200
0300
0180
ENDCHAR
STARTCHAR 30DF
ENCODING 12511
SWIDTH 1000 0
DWIDTH 14 0
BBX 11 12 1 -1
BITMAP
7F00
03E0
0020
0000
7800
1F80
00C0
0000
0000
FC00
1FC0
00E0
ENDCHAR
STARTCHAR 30E0
ENCODING 12512
SWIDTH 1000 0
DWIDTH 14 0
BBX 12 12 1 -2
BITMAP
0C00
0C00
0800
1800
1800
1080
1080
3040
2060
2020
67F0
FF30
ENDCHAR
STARTCHAR 30E1
ENCODING 12513
SWIDTH 1000 0
DWIDTH 14 0
BBX 11 12 1 -1
BITMAP
0040
0040
00C0
3880
0F80
0300
0380
06C0
0C60
1800
6000
C000
ENDCHAR
STARTCHAR 30E2
ENCODING 12514
SWIDTH 1000 0
DWIDTH 14 0
BBX 12 11 1 -1
BITMAP
7FE0
0800
0800
0800
FFF0
0800
0800
0800
0800
0800
0FE0
ENDCHAR
STARTCHAR 30E3
ENCODING 12515
SWIDTH 1000 0
DWIDTH 14 0
BBX 10 10 2 -1
BITMAP
1000
1000
1FC0
F8C0
1880
1980
0900
0800
0800
0800
ENDCHAR
STARTCHAR 30E4
ENCODING 12516
SWIDTH 1000 0
DWIDTH 14 0
BBX 12 12 1 -1
BITMAP
1000
1800
18F0
3FF0
E830
0820
0840
0D80
0C00
0400
0400
0400
ENDCHAR
STARTCHAR 30E5
ENCODING 12517
SWIDTH 1000 0
DWIDTH 14 0
BBX 10 9 2 -1
BITMAP
7F00
0100
0100
0100
0300
0300
0300
0200
FFC0
ENDCHAR
STARTCHAR 30E6
ENCODING 12518
SWIDTH 1000 0
DWIDTH 14 0
BBX 12 10 1 0
BITMAP
7FC0
00C0
0080
0080
0080
0080
0080
0080
0180
FFF0
ENDCHAR
STARTCHAR 30E7
ENCODING 12519
SWIDTH 1000 0
DWIDTH 14 0
BBX 8 9 3 -1
BITMAP
FF
01
01
01
FF
01
01
01
FF
ENDCHAR
STARTCHAR 30E8
ENCODING 12520
SWIDTH 1000 0
DWIDTH 14 0
BBX 10 11 2 -1
BITMAP
FFC0
00C0
00C0
00C0
FFC0
00C0
00C0
00C0
00C0
00C0
FFC0
ENDCHAR
STARTCHAR 30E9
ENCODING 12521
SWIDTH 1000 0
DWIDTH 14 0
BBX 11 12 1 -1
BITMAP
7FE0
0000
0000
0000
FFE0
0020
0020
0060
0040
0080
0300
3E00
ENDCHAR
STARTCHAR 30EA
ENCODING 12522
SWIDTH 1000 0
DWIDTH 14 0
BBX 8 12 3 -1
BITMAP
81
81
81
81
81
81
81
81
03
02
1C
70
ENDCHAR
STARTCHAR 30EB
ENCODING 12523
SWIDTH 1000 0
DWIDTH 14 0
BBX 12 12 1 -1
BITMAP
2200
2200
2200
2200
2200
2210
2210
2210
6220
4260
C3C0
8200
ENDCHAR
STARTCHAR 30EC
ENCODING 12524
SWIDTH 1000 0
DWIDTH 14 0
BBX 10 12 3 -1
BITMAP
8000
8000
8000
8040
8040
8080
8080
8100
8300
8C00
F800
8000
ENDCHAR
STARTCHAR 30ED
ENCODING 12525
SWIDTH 1000 0
DWIDTH 14 0
BBX 10 10 2 0
BITMAP
FFC0
8040
8040
8040
8040
8040
8040
8040
8040
FFC0
ENDCHAR
STARTCHAR 30EE
ENCODING 12526
SWIDTH 1000 0
DWIDTH 14 0
BBX 8 10 3 -2
BITMAP
FF
81
81
81
01
03
02
0C
78
40
ENDCHAR
STARTCHAR 30EF
ENCODING 12527
SWIDTH 1000 0
DWIDTH 14 0
BBX 10 12 2 -1
BITMAP
FFC0
8040
8040
8040
8040
80C0
00C0
0080
0180
0300
1E00
3800
ENDCHAR
STARTCHAR 30F0
ENCODING 12528
SWIDTH 1000 0
DWIDTH 14 0
BBX 12 13 1 -2
BITMAP
0100
0100
FFF0
2100
2100
2100
2100
2100
FFF0
0100
0100
0100
0100
ENDCHAR
STARTCHAR 30F1
ENCODING 12529
SWIDTH 1000 0
DWIDTH 14 0
BBX 12 10 1 0
BITMAP
7FE0
0060
00C0
0780
0600
0600
0600
0600
0600
FFF0
ENDCHAR
STARTCHAR 30F2
ENCODING 12530
SWIDTH 1000 0
DWIDTH 14 0
BBX 10 12 2 -1
BITMAP
FFC0
0040
0040
0040
FFC0
00C0
0080
0080
0100
0300
0C00
7800
ENDCHAR
STARTCHAR 30F3
ENCODING 12531
SWIDTH 1000 0
DWIDTH 14 0
BBX 12 11 1 -1
BITMAP
6000
7810
0830
0030
0060
0040
00C0
0180
0700
FC00
6000
ENDCHAR
STARTCHAR 30F4
ENCODING 12532
SWIDTH 1000 0
DWIDTH 14 0
BBX 12 14 2 -2
BITMAP
00A0
0C50
0C00
FFC0
8040
8040
8040
80C0
0080
0180
0300
0600
7C00
4000
ENDCHAR
STARTCHAR 30F5
ENCODING 12533
SWIDTH 1000 0
DWIDTH 14 0
BBX 9 10 2 -1
BITMAP
0800
0800
0800
FF80
0880
1080
1080
3080
6080
C780
ENDCHAR
STARTCHAR 30F6
ENCODING 12534
SWIDTH 1000 0
DWIDTH 14 0
BBX 10 10 2 -2
BITMAP
1000
2000
3FC0
6200
C200
0200
0400
0400
0800
7000
ENDCHAR
STARTCHAR 30F7
ENCODING 12535
SWIDTH 1000 0
DWIDTH 14 0
BBX 12 14 2 -2
BITMAP
0050
0050
FFC0
8040
8040
8040
8040
00C0
0080
0180
0300
0600
7C00
2000
ENDCHAR
STARTCHAR 30F8
ENCODING 12536
SWIDTH 1000 0
DWIDTH 14 0
BBX 13 14 1 -2
BITMAP
0070
0128
0100
FFF0
2100
2100
2100
2100
2100
FFF0
0100
0100
0100
0100
ENDCHAR
STARTCHAR 30F9
ENCODING 12537
SWIDTH 1000 0
DWIDTH 14 0
BBX 13 12 1 0
BITMAP
0028
0028
7FE0
0060
00C0
0780
0600
0600
0600
0600
0600
FFF0
ENDCHAR
STARTCHAR 30FA
ENCODING 12538
SWIDTH 1000 0
DWIDTH 14 0
BBX 12 13 2 -2
BITMAP
00E0
0050
FFC0
0040
0040
0040
FFC0
00C0
0080
0180
0300
0600
7800
ENDCHAR
STARTCHAR 30FB
ENCODING 12539
SWIDTH 1000 0
DWIDTH 14 0
BBX 2 2 6 4
BITMAP
C0
C0
ENDCHAR
STARTCHAR 30FC
ENCODING 12540
SWIDTH 1000 0
DWIDTH 14 0
BBX 12 1 1 5
BITMAP
FFF0
ENDCHAR
STARTCHAR 30FD
ENCODING 12541
SWIDTH 1000 0
DWIDTH 14 0
BBX 6 8 4 1
BITMAP
80
C0
60
30
18
0C
0C
04
ENDCHAR
STARTCHAR 30FE
ENCODING 12542
SWIDTH 1000 0
DWIDTH 14 0
BBX 8 9 4 1
BITMAP
03
85
C0
60
30
18
08
0C
04
ENDCHAR
STARTCHAR 3220
ENCODING 12832
SWIDTH 1000 0
DWIDTH 14 0
BBX 14 14 0 -2
BITMAP
2010
4010
4008
8008
8008
8004
BFF4
8004
8004
8008
8008
4008
4010
2010
ENDCHAR
STARTCHAR 3221
ENCODING 12833
SWIDTH 1000 0
DWIDTH 14 0
BBX 14 14 0 -2
BITMAP
2010
4010
5FE8
8008
8008
8004
8004
8004
8004
8008
8008
7FF8
4010
2010
ENDCHAR
STARTCHAR 3222
ENCODING 12834
SWIDTH 1000 0
DWIDTH 14 0
BBX 14 14 0 -2
BITMAP
2010
4010
5FE8
8008
8008
8004
9FE4
8004
8004
8008
4008
7FF8
4010
2010
ENDCHAR
STARTCHAR 3223
ENCODING 12835
SWIDTH 1000 0
DWIDTH 14 0
BBX 14 14 0 -2
BITMAP
2010
4010
5FE8
9528
9528
9524
9524
9564
99E4
9828
9028
5FE8
5030
2010
ENDCHAR
STARTCHAR 3224
ENCODING 12836
SWIDTH 1000 0
DWIDTH 14 0
BBX 14 14 0 -2
BITMAP
2010
4010
5FE8
4208
8208
8204
9FC4
8444
8444
8448
8448
7FF8
4010
2010
ENDCHAR
STARTCHAR 3225
ENCODING 12837
SWIDTH 1000 0
DWIDTH 14 0
BBX 14 14 0 -2
BITMAP
2010
4310
4308
BFF8
8008
8004
8484
8484
8844
8848
9868
5028
4010
2010
ENDCHAR
STARTCHAR 3226
ENCODING 12838
SWIDTH 1000 0
DWIDTH 14 0
BBX 14 14 0 -2
BITMAP
2010
4410
4408
8408
84F8
9F84
B404
8404
8404
8428
8428
4428
47F0
2010
ENDCHAR
STARTCHAR 3227
ENCODING 12839
SWIDTH 1000 0
DWIDTH 14 0
BBX 14 13 0 -2
BITMAP
2010
4488
4488
8488
8484
8884
8844
8844
8848
9068
5028
4010
2010
ENDCHAR
STARTCHAR 3228
ENCODING 12840
SWIDTH 1000 0
DWIDTH 14 0
BBX 14 14 0 -2
BITMAP
2010
4410
4408
BFC8
8448
8444
8444
8444
8444
8C58
8858
5858
5070
2010
ENDCHAR
STARTCHAR 3229
ENCODING 12841
SWIDTH 1000 0
DWIDTH 14 0
BBX 14 14 0 -2
BITMAP
2010
4310
4308
8308
8308
BFF4
8304
8304
8304
8308
8308
4308
4310
2010
ENDCHAR
STARTCHAR 322A
ENCODING 12842
SWIDTH 1000 0
DWIDTH 14 0
BBX 14 14 0 -2
BITMAP
2010
4FD0
4848
8848
8848
8FC4
8844
8844
8FC4
8848
9048
5048
50D0
2010
ENDCHAR
STARTCHAR 322B
ENCODING 12843
SWIDTH 1000 0
DWIDTH 14 0
BBX 14 13 0 -2
BITMAP
2010
4308
5328
9328
9324
8B44
8304
8304
8488
8CC8
5868
5030
2010
ENDCHAR
STARTCHAR 322C
ENCODING 12844
SWIDTH 1000 0
DWIDTH 14 0
BBX 14 14 0 -2
BITMAP
2010
4210
4208
8328
BF48
87C4
8684
8A84
8AC4
9A48
9228
6218
4610
2010
ENDCHAR
STARTCHAR 322D
ENCODING 12845
SWIDTH 1000 0
DWIDTH 14 0
BBX 14 14 0 -2
BITMAP
2010
4210
4208
BFF8
8308
8304
8684
8684
8A44
9228
B238
4208
4210
2010
ENDCHAR
STARTCHAR 322E
ENCODING 12846
SWIDTH 1000 0
DWIDTH 14 0
BBX 14 14 0 -2
BITMAP
2010
4310
4788
4CC8
9868
BFF4
8204
9FE4
8A04
8A48
8A48
4A88
5FF0
2010
ENDCHAR
STARTCHAR 322F
ENCODING 12847
SWIDTH 1000 0
DWIDTH 14 0
BBX 14 14 0 -2
BITMAP
2010
4310
4308
4308
8308
9FE4
8304
8304
8304
8308
8308
4308
3FF0
2010
ENDCHAR
STARTCHAR 3230
ENCODING 12848
SWIDTH 1000 0
DWIDTH 14 0
BBX 14 14 0 -2
BITMAP
2010
5FF0
5028
9028
9028
9024
9FE4
9024
9024
9028
5028
5FE8
5030
2010
ENDCHAR
STARTCHAR 3231
ENCODING 12849
SWIDTH 1000 0
DWIDTH 14 0
BBX 14 14 0 -2
BITMAP
2010
4890
4A88
BFE8
8A88
9884
9BF4
9CC4
ADC4
A9A8
8AA8
4E98
4890
2010
ENDCHAR
STARTCHAR 3232
ENCODING 12850
SWIDTH 1000 0
DWIDTH 14 0
BBX 14 14 0 -2
BITMAP
2010
4210
7FF8
8408
8408
8FE4
8844
9FE4
8844
8FE8
8848
4848
48D0
2010
ENDCHAR
STARTCHAR 3233
ENCODING 12851
SWIDTH 1000 0
DWIDTH 14 0
BBX 14 14 0 -2
BITMAP
2010
4890
4888
BC88
8488
87E4
8884
9C84
BC84
A888
8888
4888
4BF0
2010
ENDCHAR
STARTCHAR 3234
ENCODING 12852
SWIDTH 1000 0
DWIDTH 14 0
BBX 14 14 0 -2
BITMAP
2010
4210
47C8
8848
9C88
8784
8304
87E4
BC24
8428
4428
47E8
4430
2010
ENDCHAR
STARTCHAR 3235
ENCODING 12853
SWIDTH 1000 0
DWIDTH 14 0
BBX 14 14 0 -2
BITMAP
2010
4890
6BE8
9C88
A888
ABF4
A824
8FF4
B824
8928
8928
4828
48F0
2010
ENDCHAR
STARTCHAR 3236
ENCODING 12854
SWIDTH 1000 0
DWIDTH 14 0
BBX 14 14 0 -2
BITMAP
2010
5C30
5428
95F8
9C68
9464
9CA4
94A4
95A4
9F28
9428
5428
62F0
2010
ENDCHAR
STARTCHAR 3237
ENCODING 12855
SWIDTH 1000 0
DWIDTH 14 0
BBX 14 14 0 -2
BITMAP
2010
4BF0
4A28
BE28
8628
8A24
8BE4
9D44
AD44
8948
8958
4A58
4C70
2010
ENDCHAR
STARTCHAR 3238
ENCODING 12856
SWIDTH 1000 0
DWIDTH 14 0
BBX 14 14 0 -2
BITMAP
2010
5230
4A48
8848
BFF8
A214
A214
9FE4
8224
8628
8468
5848
51D0
2010
ENDCHAR
STARTCHAR 3239
ENCODING 12857
SWIDTH 1000 0
DWIDTH 14 0
BBX 14 14 0 -2
BITMAP
2010
4950
4968
8928
9118
97F4
B104
9104
9084
9088
9098
50D8
5070
2010
ENDCHAR
STARTCHAR 323A
ENCODING 12858
SWIDTH 1000 0
DWIDTH 14 0
BBX 14 14 0 -2
BITMAP
2010
4070
5B88
A8A8
AAA8
AAA4
A884
AFF4
A884
A888
5888
4088
4190
2010
ENDCHAR
STARTCHAR 323B
ENCODING 12859
SWIDTH 1000 0
DWIDTH 14 0
BBX 14 14 0 -2
BITMAP
2010
5230
4948
BFF8
A018
AFD4
80C4
8184
8104
BFF8
8108
4108
4610
2010
ENDCHAR
STARTCHAR 323C
ENCODING 12860
SWIDTH 1000 0
DWIDTH 14 0
BBX 14 14 0 -2
BITMAP
2010
5E90
68F8
9F08
9F08
A804
9EE4
8004
9FE4
9528
9528
5528
5FF0
2010
ENDCHAR
STARTCHAR 323D
ENCODING 12861
SWIDTH 1000 0
DWIDTH 14 0
BBX 14 14 0 -2
BITMAP
2010
4310
4788
8CC8
9968
B134
8904
89E4
8904
8908
8908
4908
5FF0
2010
ENDCHAR
STARTCHAR 323E
ENCODING 12862
SWIDTH 1000 0
DWIDTH 14 0
BBX 14 14 0 -2
BITMAP
2010
5210
5BE8
85A8
9E68
BFE4
9024
9FE4
9024
9FE8
9FE8
4088
5870
2010
ENDCHAR
STARTCHAR 323F
ENCODING 12863
SWIDTH 1000 0
DWIDTH 14 0
BBX 14 14 0 -2
BITMAP
2010
5110
57E8
9128
BB28
9664
9444
9FF4
9554
9568
95A8
59A8
5AF0
2010
ENDCHAR
STARTCHAR 3240
ENCODING 12864
SWIDTH 1000 0
DWIDTH 14 0
BBX 14 14 0 -2
BITMAP
2010
4910
5FE8
BB28
94E8
8844
97A4
A004
BFF4
8A48
8A48
5228
4610
2010
ENDCHAR
STARTCHAR 3241
ENCODING 12865
SWIDTH 1000 0
DWIDTH 14 0
BBX 14 14 0 -2
BITMAP
2010
4890
4888
97F8
9088
B184
B1C4
92C4
92A4
94B8
9098
5088
5090
2010
ENDCHAR
STARTCHAR 3242
ENCODING 12866
SWIDTH 1000 0
DWIDTH 14 0
BBX 14 14 0 -2
BITMAP
2010
4210
5FE8
9028
9028
9FE4
9024
9024
9FE4
9028
9028
5028
5FF0
3030
ENDCHAR
STARTCHAR 3243
ENCODING 12867
SWIDTH 1000 0
DWIDTH 14 0
BBX 14 14 0 -2
BITMAP
2010
5FF0
4408
84C8
8848
9FE4
8124
8104
9FE4
8108
8108
4108
5FF0
2010
ENDCHAR
STARTCHAR 3280
ENCODING 12928
SWIDTH 1000 0
DWIDTH 14 0
BBX 14 14 0 -2
BITMAP
0780
1860
2010
4008
8008
8008
8004
BFF4
8004
8008
4008
4010
3020
0FC0
ENDCHAR
STARTCHAR 3281
ENCODING 12929
SWIDTH 1000 0
DWIDTH 14 0
BBX 14 14 0 -2
BITMAP
0780
1860
2010
5FE8
8008
8008
8004
8004
8004
8008
7FF8
4010
3020
0FC0
ENDCHAR
STARTCHAR 3282
ENCODING 12930
SWIDTH 1000 0
DWIDTH 14 0
BBX 14 14 0 -2
BITMAP
0FC0
1020
7FF0
4008
8008
8004
9FE4
8004
8008
8008
7FF8
2010
1020
0FC0
ENDCHAR
STARTCHAR 3283
ENCODING 12931
SWIDTH 1000 0
DWIDTH 14 0
BBX 14 14 0 -2
BITMAP
0FC0
1020
7FF0
5528
9528
9528
9524
9564
99E4
9028
5FE8
3030
1020
0FC0
ENDCHAR
STARTCHAR 3284
ENCODING 12932
SWIDTH 1000 0
DWIDTH 14 0
BBX 14 14 0 -2
BITMAP
0FC0
1020
7FF0
4208
8208
8208
9FC4
8444
8444
8448
7FF8
2010
1020
0FC0
ENDCHAR
STARTCHAR 3285
ENCODING 12933
SWIDTH 1000 0
DWIDTH 14 0
BBX 14 14 0 -2
BITMAP
0780
1860
2210
4208
BFF8
8008
8484
8484
8844
8868
5028
4010
3020
0FC0
ENDCHAR
STARTCHAR 3286
ENCODING 12934
SWIDTH 1000 0
DWIDTH 14 0
BBX 14 14 0 -2
BITMAP
0780
1860
2810
4808
8868
8F88
B804
8804
8804
8828
4828
47F0
3020
0FC0
ENDCHAR
STARTCHAR 3287
ENCODING 12935
SWIDTH 1000 0
DWIDTH 14 0
BBX 14 14 0 -2
BITMAP
0780
1860
2490
4488
8488
8488
8844
8844
8848
9028
7038
2010
1020
0FC0
ENDCHAR
STARTCHAR 3288
ENCODING 12936
SWIDTH 1000 0
DWIDTH 14 0
BBX 14 14 0 -2
BITMAP
0FC0
1020
6410
7FC8
8448
8444
8444
8444
8858
9858
7078
2010
1020
0FC0
ENDCHAR
STARTCHAR 3289
ENCODING 12937
SWIDTH 1000 0
DWIDTH 14 0
BBX 14 14 0 -2
BITMAP
0FC0
1020
6010
4208
8208
BFF4
8204
8204
8208
8208
4208
2210
1020
0FC0
ENDCHAR
STARTCHAR 328A
ENCODING 12938
SWIDTH 1000 0
DWIDTH 14 0
BBX 14 14 0 -2
BITMAP
0FC0
1020
2FF0
4828
8828
8FE4
8824
8FE4
8828
9028
5028
20D0
1020
0FC0
ENDCHAR
STARTCHAR 328B
ENCODING 12939
SWIDTH 1000 0
DWIDTH 14 0
BBX 14 14 0 -2
BITMAP
0780
1860
2210
5228
9228
9B28
8B44
8304
8488
8CC8
5868
2010
1020
0FC0
ENDCHAR
STARTCHAR 328C
ENCODING 12940
SWIDTH 1000 0
DWIDTH 14 0
BBX 14 14 0 -2
BITMAP
0FC0
1020
6210
4138
BD68
85C4
8684
8A84
8A48
9228
6218
4610
3020
0FC0
ENDCHAR
STARTCHAR 328D
ENCODING 12941
SWIDTH 1000 0
DWIDTH 14 0
BBX 14 14 0 -2
BITMAP
0780
1860
2210
4208
BFF8
8308
8684
8684
8A48
B238
4208
2010
1020
0FC0
ENDCHAR
STARTCHAR 328E
ENCODING 12942
SWIDTH 1000 0
DWIDTH 14 0
BBX 14 14 0 -2
BITMAP
0780
1860
2310
4488
9868
AFD8
8204
9FE4
8A44
8A48
7FF8
2010
1020
0FC0
ENDCHAR
STARTCHAR 328F
ENCODING 12943
SWIDTH 1000 0
DWIDTH 14 0
BBX 14 14 0 -2
BITMAP
0FC0
1020
6210
4208
9FE8
8204
8204
8204
8208
8208
7FF8
2010
1020
0FC0
ENDCHAR
STARTCHAR 3290
ENCODING 12944
SWIDTH 1000 0
DWIDTH 14 0
BBX 14 14 0 -2
BITMAP
0FC0
1020
7FF0
5028
9028
9024
9FE4
9024
9028
9028
5FE8
3030
1020
0FC0
ENDCHAR
STARTCHAR 3291
ENCODING 12945
SWIDTH 1000 0
DWIDTH 14 0
BBX 14 14 0 -2
BITMAP
0780
1860
3190
5288
BFF8
9A88
9BF4
B4C4
B1C8
93A8
5698
3090
1020
0FC0
ENDCHAR
STARTCHAR 3292
ENCODING 12946
SWIDTH 1000 0
DWIDTH 14 0
BBX 14 14 0 -2
BITMAP
0780
1860
2210
7FF8
8408
8FE8
9824
BFE4
A828
8FE8
4828
28F0
1020
0FC0
ENDCHAR
STARTCHAR 3293
ENCODING 12947
SWIDTH 1000 0
DWIDTH 14 0
BBX 14 14 0 -2
BITMAP
0FC0
1020
2890
7C88
8488
8BE8
8884
BC84
AC84
8888
4888
4BF0
3020
0FC0
ENDCHAR
STARTCHAR 3294
ENCODING 12948
SWIDTH 1000 0
DWIDTH 14 0
BBX 14 14 0 -2
BITMAP
0FC0
1220
27D0
48C8
B888
A508
8204
8FE4
B824
8828
4FE8
2830
1020
0FC0
ENDCHAR
STARTCHAR 3295
ENCODING 12949
SWIDTH 1000 0
DWIDTH 14 0
BBX 14 14 0 -2
BITMAP
0780
1860
2890
5BE8
9C88
ABF4
A824
8FF4
B828
8928
4828
28F0
1020
0FC0
ENDCHAR
STARTCHAR 3296
ENCODING 12950
SWIDTH 1000 0
DWIDTH 14 0
BBX 14 14 0 -2
BITMAP
0FC0
1020
3E30
5228
9FF8
9224
9E64
92E4
92A8
9F28
5228
3270
1020
0FC0
ENDCHAR
STARTCHAR 3297
ENCODING 12951
SWIDTH 1000 0
DWIDTH 14 0
BBX 14 14 0 -2
BITMAP
0FC0
1020
6BF0
4A28
BE28
8A24
8BE4
9544
B548
9168
5268
3670
1020
0FC0
ENDCHAR
STARTCHAR 3298
ENCODING 12952
SWIDTH 1000 0
DWIDTH 14 0
BBX 14 14 0 -2
BITMAP
0780
1860
3230
4948
BFF8
A218
A214
9FE4
8228
8428
4828
31D0
1020
0FC0
ENDCHAR
STARTCHAR 3299
ENCODING 12953
SWIDTH 1000 0
DWIDTH 14 0
BBX 14 14 0 -2
BITMAP
0780
1860
2510
58E8
8828
BD28
8B64
9F64
9A94
A898
4928
2EF0
1020
0FC0
ENDCHAR
STARTCHAR 329A
ENCODING 12954
SWIDTH 1000 0
DWIDTH 14 0
BBX 14 14 0 -2
BITMAP
0FC0
1020
3FF0
5228
9FE8
9224
9FE4
8204
BFE8
8228
4C28
30F0
1020
0FC0
ENDCHAR
STARTCHAR 329B
ENCODING 12955
SWIDTH 1000 0
DWIDTH 14 0
BBX 14 14 0 -2
BITMAP
0780
1860
2210
4408
BFF8
8448
8844
8884
8688
8388
5C68
3030
1020
0FC0
ENDCHAR
STARTCHAR 329C
ENCODING 12956
SWIDTH 1000 0
DWIDTH 14 0
BBX 14 14 0 -2
BITMAP
0780
1860
2090
57F8
87E8
8528
B7E4
97E4
9664
97E8
5808
27F0
1020
0FC0
ENDCHAR
STARTCHAR 329D
ENCODING 12957
SWIDTH 1000 0
DWIDTH 14 0
BBX 14 14 0 -2
BITMAP
0780
1860
37F0
57E8
97E8
97E8
BFE4
BD24
95A4
93C8
55C8
5FF0
3020
0FC0
ENDCHAR
STARTCHAR 329E
ENCODING 12958
SWIDTH 1000 0
DWIDTH 14 0
BBX 14 14 0 -2
BITMAP
0780
1860
2010
5DE8
9128
9128
9F24
9124
9128
9128
5F68
4110
3020
0FC0
ENDCHAR
STARTCHAR 329F
ENCODING 12959
SWIDTH 1000 0
DWIDTH 14 0
BBX 14 14 0 -2
BITMAP
0780
1860
3190
4888
87F8
B084
8084
87E4
8888
9088
5088
27F0
1020
0FC0
ENDCHAR
STARTCHAR 32A0
ENCODING 12960
SWIDTH 1000 0
DWIDTH 14 0
BBX 14 14 0 -2
BITMAP
0FC0
3020
3BF0
7888
93E8
9224
93E4
93E4
9228
9FE8
6148
2630
1020
0FC0
ENDCHAR
STARTCHAR 32A1
ENCODING 12961
SWIDTH 1000 0
DWIDTH 14 0
BBX 14 14 0 -2
BITMAP
0780
1860
2890
4888
97F8
9188
B1C4
92C4
92A8
94B8
5088
3090
1020
0FC0
ENDCHAR
STARTCHAR 32A2
ENCODING 12962
SWIDTH 1000 0
DWIDTH 14 0
BBX 14 14 0 -2
BITMAP
0780
1860
2010
5FE8
9428
87C8
8804
8FC4
8044
BFF8
4048
2390
1020
0FC0
ENDCHAR
STARTCHAR 32A3
ENCODING 12963
SWIDTH 1000 0
DWIDTH 14 0
BBX 14 14 0 -2
BITMAP
0FC0
1020
7FF0
4108
8108
8904
89E4
8904
8904
8908
4908
5FF0
3020
0FC0
ENDCHAR
STARTCHAR 32A4
ENCODING 12964
SWIDTH 1000 0
DWIDTH 14 0
BBX 14 14 0 -2
BITMAP
0780
1860
2210
4208
8208
83E8
8204
8204
8204
8208
5FE8
2010
1020
0FC0
ENDCHAR
STARTCHAR 32A5
ENCODING 12965
SWIDTH 1000 0
DWIDTH 14 0
BBX 14 14 0 -2
BITMAP
0780
1860
2210
4208
9FE8
A228
A224
A224
9FE4
8208
4208
2210
1020
0FC0
ENDCHAR
STARTCHAR 32A6
ENCODING 12966
SWIDTH 1000 0
DWIDTH 14 0
BBX 14 14 0 -2
BITMAP
0780
1860
2010
7FF8
8208
8208
8384
8264
8228
8208
4208
2210
1220
0FC0
ENDCHAR
STARTCHAR 32A7
ENCODING 12967
SWIDTH 1000 0
DWIDTH 14 0
BBX 14 14 0 -2
BITMAP
0FC0
1020
6410
7FF8
8408
8404
87E4
8904
8908
9108
4FE8
2010
1020
0FC0
ENDCHAR
STARTCHAR 32A8
ENCODING 12968
SWIDTH 1000 0
DWIDTH 14 0
BBX 14 14 0 -2
BITMAP
0FC0
1020
6210
7FF8
8408
8404
8FE4
9824
B828
8828
4FE8
2810
1020
0FC0
ENDCHAR
STARTCHAR 32A9
ENCODING 12969
SWIDTH 1000 0
DWIDTH 14 0
BBX 14 14 0 -2
BITMAP
0FC0
1020
3FF0
5208
97C8
9D04
9FE4
9284
92C8
9C28
5FE8
3010
1020
0FC0
ENDCHAR
STARTCHAR 32AA
ENCODING 12970
SWIDTH 1000 0
DWIDTH 14 0
BBX 14 14 0 -2
BITMAP
0780
1860
2110
7FF8
A018
AFD8
8004
BFF4
8148
8948
5128
2610
1020
0FC0
ENDCHAR
STARTCHAR 32AB
ENCODING 12971
SWIDTH 1000 0
DWIDTH 14 0
BBX 14 14 0 -2
BITMAP
0FC0
3020
4A30
7FF8
A018
AFD4
80C4
8104
BFF8
8108
4108
2710
1020
0FC0
ENDCHAR
STARTCHAR 32AC
ENCODING 12972
SWIDTH 1000 0
DWIDTH 14 0
BBX 14 14 0 -2
BITMAP
0FC0
1020
3E90
54E8
9F08
9E08
94E4
9E04
9FE8
9528
5528
3FF0
1020
0FC0
ENDCHAR
STARTCHAR 32AD
ENCODING 12973
SWIDTH 1000 0
DWIDTH 14 0
BBX 14 14 0 -2
BITMAP
0FC0
1320
6490
4848
B138
8904
89E4
8904
8908
8908
7FE8
2010
1020
0FC0
ENDCHAR
STARTCHAR 32AE
ENCODING 12974
SWIDTH 1000 0
DWIDTH 14 0
BBX 14 14 0 -2
BITMAP
0FC0
1020
7BF0
45A8
9A48
BFF4
9024
9FE4
9FE8
9FE8
4CC8
3030
1020
0FC0
ENDCHAR
STARTCHAR 32AF
ENCODING 12975
SWIDTH 1000 0
DWIDTH 14 0
BBX 14 14 0 -2
BITMAP
0780
1860
3090
57E8
B928
9668
9444
9FF4
9558
9568
55A8
3BF0
1020
0FC0
ENDCHAR
STARTCHAR 32B0
ENCODING 12976
SWIDTH 1000 0
DWIDTH 14 0
BBX 14 14 0 -2
BITMAP
0780
1860
2210
7FF8
8908
89E8
9224
B6A4
9148
91C8
51C8
3630
1020
0FC0
ENDCHAR
STARTCHAR 32D0
ENCODING 13008
SWIDTH 1000 0
DWIDTH 14 0
BBX 14 14 0 -2
BITMAP
0780
1860
2010
5FF8
8028
8328
8244
8284
8208
8608
4408
3810
1020
0FC0
ENDCHAR
STARTCHAR 32D1
ENCODING 13009
SWIDTH 1000 0
DWIDTH 14 0
BBX 14 14 0 -2
BITMAP
0780
1860
2070
40C8
8188
8308
8D04
B104
8108
8108
4108
2110
1020
0FC0
ENDCHAR
STARTCHAR 32D2
ENCODING 13010
SWIDTH 1000 0
DWIDTH 14 0
BBX 14 14 0 -2
BITMAP
0780
1860
2110
4108
9FE8
9028
9024
9024
8044
80C8
4388
2C10
1020
0FC0
ENDCHAR
STARTCHAR 32D3
ENCODING 13011
SWIDTH 1000 0
DWIDTH 14 0
BBX 14 14 0 -2
BITMAP
0780
1860
2010
5FE8
8308
8308
8304
8304
8304
8308
5FF8
4010
3020
0FC0
ENDCHAR
STARTCHAR 32D4
ENCODING 13012
SWIDTH 1000 0
DWIDTH 14 0
BBX 14 14 0 -2
BITMAP
0780
1860
2090
4088
9FF8
8188
8184
8284
8484
9888
5088
4390
3020
0FC0
ENDCHAR
STARTCHAR 32D5
ENCODING 13013
SWIDTH 1000 0
DWIDTH 14 0
BBX 14 14 0 -2
BITMAP
0780
1860
2210
4208
9FE8
8224
8224
8424
8428
8828
51C8
2010
1020
0FC0
ENDCHAR
STARTCHAR 32D6
ENCODING 13014
SWIDTH 1000 0
DWIDTH 14 0
BBX 14 14 0 -2
BITMAP
0780
1860
2210
4208
8FE8
9208
8204
83F4
BD08
8108
4108
2110
1020
0FC0
ENDCHAR
STARTCHAR 32D7
ENCODING 13015
SWIDTH 1000 0
DWIDTH 14 0
BBX 14 14 0 -2
BITMAP
0780
1860
2210
4208
87E8
8C28
9864
8044
80C4
8188
4608
4810
3020
0FC0
ENDCHAR
STARTCHAR 32D8
ENCODING 13016
SWIDTH 1000 0
DWIDTH 14 0
BBX 14 14 0 -2
BITMAP
0780
1860
2410
4408
8FF8
8884
9084
8084
8108
8308
4608
2810
1020
0FC0
ENDCHAR
STARTCHAR 32D9
ENCODING 13017
SWIDTH 1000 0
DWIDTH 14 0
BBX 14 14 0 -2
BITMAP
0780
1860
2010
5FE8
8028
8028
8024
8024
8028
8028
5FE8
2010
1020
0FC0
ENDCHAR
STARTCHAR 32DA
ENCODING 13018
SWIDTH 1000 0
DWIDTH 14 0
BBX 14 14 0 -2
BITMAP
0FC0
1020
6850
4848
BFF8
8844
8844
8844
8048
8088
4308
2610
1020
0FC0
ENDCHAR
STARTCHAR 32DB
ENCODING 13019
SWIDTH 1000 0
DWIDTH 14 0
BBX 14 14 0 -2
BITMAP
0780
1860
2010
4E08
8208
9818
8C24
8064
8048
8188
4F08
2810
1020
0FC0
ENDCHAR
STARTCHAR 32DC
ENCODING 13020
SWIDTH 1000 0
DWIDTH 14 0
BBX 14 14 0 -2
BITMAP
0FC0
3020
5FD0
4048
8088
8084
8104
8384
86C8
8C68
5838
2010
1020
0FC0
ENDCHAR
STARTCHAR 32DD
ENCODING 13021
SWIDTH 1000 0
DWIDTH 14 0
BBX 14 14 0 -2
BITMAP
0780
1860
2C10
4C08
8C68
BFA8
8C64
8C44
8D84
8C08
4408
47F0
2020
1FC0
ENDCHAR
STARTCHAR 32DE
ENCODING 13022
SWIDTH 1000 0
DWIDTH 14 0
BBX 14 14 0 -2
BITMAP
0780
1860
2010
5028
9828
8828
8044
8044
8088
8188
4608
2C10
1020
0FC0
ENDCHAR
STARTCHAR 32DF
ENCODING 13023
SWIDTH 1000 0
DWIDTH 14 0
BBX 14 14 0 -2
BITMAP
0FC0
1020
6210
47E8
8428
8824
9344
81C4
8088
8108
4608
2810
1020
0FC0
ENDCHAR
STARTCHAR 32E0
ENCODING 13024
SWIDTH 1000 0
DWIDTH 14 0
BBX 14 14 0 -2
BITMAP
0780
1860
2010
40E8
9F08
8108
9FF4
8104
8108
8308
4608
3810
1020
0FC0
ENDCHAR
STARTCHAR 32E1
ENCODING 13025
SWIDTH 1000 0
DWIDTH 14 0
BBX 14 14 0 -2
BITMAP
0780
1860
2010
4238
9228
8928
8824
8044
8048
8088
4308
2C10
1020
0FC0
ENDCHAR
STARTCHAR 32E2
ENCODING 13026
SWIDTH 1000 0
DWIDTH 14 0
BBX 14 14 0 -2
BITMAP
0780
1860
2010
4FE8
8008
8008
9FF4
8104
8104
8108
4208
3C10
1020
0FC0
ENDCHAR
STARTCHAR 32E3
ENCODING 13027
SWIDTH 1000 0
DWIDTH 14 0
BBX 14 14 0 -2
BITMAP
0780
1860
2410
4408
8408
8708
85C4
8464
8408
8408
4408
2410
1020
0FC0
ENDCHAR
STARTCHAR 32E4
ENCODING 13028
SWIDTH 1000 0
DWIDTH 14 0
BBX 14 14 0 -2
BITMAP
0780
1860
2110
4108
8108
9FF8
8104
8104
8104
8208
4608
3810
1020
0FC0
ENDCHAR
ENDFONT
